M48
;DRILL file {KiCad (5.0.0)} date 08/07/20 11:04:01
;FORMAT={-:-/ absolute / inch / decimal}
FMAT,2
INCH,TZ
T1C0.0157
T2C0.0354
T3C0.0394
T4C0.0433
%
G90
G05
M72
T1
X4.5472Y-2.7756
X4.6457Y-2.7756
X4.7441Y-2.7953
X4.7638Y-3.937
X5.1181Y-3.8189
X5.1969Y-3.8189
X5.2756Y-2.9921
X5.8465Y-4.0551
X5.9055Y-4.8228
X5.9252Y-3.9961
T2
X5.0394Y-2.4016
X5.1394Y-2.4016
X5.4724Y-2.4016
X5.5724Y-2.4016
X5.0787Y-4.9213
X5.1787Y-4.9213
X4.6063Y-2.4016
X4.7063Y-2.4016
T3
X5.9252Y-2.4543
X5.9252Y-2.5543
X5.9252Y-2.6543
X5.9252Y-2.7543
X5.9252Y-2.8543
X5.9252Y-2.9543
X5.9055Y-4.4669
X5.9055Y-4.5669
T4
X5.315Y-4.1732
X5.315Y-4.3504
X5.5709Y-4.1732
X5.5709Y-4.3504
X4.685Y-4.1732
X4.685Y-4.3504
X4.9409Y-4.1732
X4.9409Y-4.3504
T0
M30
