G04 #@! TF.GenerationSoftware,KiCad,Pcbnew,(5.0.0)*
G04 #@! TF.CreationDate,2020-08-07T11:04:04-05:00*
G04 #@! TF.ProjectId,Church Controller,43687572636820436F6E74726F6C6C65,rev?*
G04 #@! TF.SameCoordinates,Original*
G04 #@! TF.FileFunction,Copper,L2,Bot,Signal*
G04 #@! TF.FilePolarity,Positive*
%FSLAX46Y46*%
G04 Gerber Fmt 4.6, Leading zero omitted, Abs format (unit mm)*
G04 Created by KiCad (PCBNEW (5.0.0)) date 08/07/20 11:04:04*
%MOMM*%
%LPD*%
G01*
G04 APERTURE LIST*
G04 #@! TA.AperFunction,ComponentPad*
%ADD10R,1.800000X1.800000*%
G04 #@! TD*
G04 #@! TA.AperFunction,ComponentPad*
%ADD11C,1.800000*%
G04 #@! TD*
G04 #@! TA.AperFunction,ComponentPad*
%ADD12R,1.700000X1.700000*%
G04 #@! TD*
G04 #@! TA.AperFunction,ComponentPad*
%ADD13O,1.700000X1.700000*%
G04 #@! TD*
G04 #@! TA.AperFunction,ComponentPad*
%ADD14C,2.000000*%
G04 #@! TD*
G04 #@! TA.AperFunction,ViaPad*
%ADD15C,0.800000*%
G04 #@! TD*
G04 #@! TA.AperFunction,Conductor*
%ADD16C,0.500000*%
G04 #@! TD*
G04 #@! TA.AperFunction,Conductor*
%ADD17C,0.254000*%
G04 #@! TD*
G04 APERTURE END LIST*
D10*
G04 #@! TO.P,D1,1*
G04 #@! TO.N,Net-(D1-Pad1)*
X117000000Y-61000000D03*
D11*
G04 #@! TO.P,D1,2*
G04 #@! TO.N,+3V3*
X119540000Y-61000000D03*
G04 #@! TD*
D10*
G04 #@! TO.P,D2,1*
G04 #@! TO.N,Net-(D2-Pad1)*
X128000000Y-61000000D03*
D11*
G04 #@! TO.P,D2,2*
G04 #@! TO.N,+3V3*
X130540000Y-61000000D03*
G04 #@! TD*
G04 #@! TO.P,D3,2*
G04 #@! TO.N,+3V3*
X141540000Y-61000000D03*
D10*
G04 #@! TO.P,D3,1*
G04 #@! TO.N,Net-(D3-Pad1)*
X139000000Y-61000000D03*
G04 #@! TD*
D11*
G04 #@! TO.P,D4,2*
G04 #@! TO.N,+3V3*
X131540000Y-125000000D03*
D10*
G04 #@! TO.P,D4,1*
G04 #@! TO.N,Net-(D4-Pad1)*
X129000000Y-125000000D03*
G04 #@! TD*
D12*
G04 #@! TO.P,J1,1*
G04 #@! TO.N,GND*
X150000000Y-113460000D03*
D13*
G04 #@! TO.P,J1,2*
G04 #@! TO.N,VCC*
X150000000Y-116000000D03*
G04 #@! TD*
D14*
G04 #@! TO.P,SW1,2*
G04 #@! TO.N,GND*
X135000000Y-110500000D03*
G04 #@! TO.P,SW1,1*
G04 #@! TO.N,/BUTTON_CHANGE*
X135000000Y-106000000D03*
G04 #@! TO.P,SW1,2*
G04 #@! TO.N,GND*
X141500000Y-110500000D03*
G04 #@! TO.P,SW1,1*
G04 #@! TO.N,/BUTTON_CHANGE*
X141500000Y-106000000D03*
G04 #@! TD*
G04 #@! TO.P,SW2,1*
G04 #@! TO.N,/BUTTON_SAVE*
X125500000Y-106000000D03*
G04 #@! TO.P,SW2,2*
G04 #@! TO.N,GND*
X125500000Y-110500000D03*
G04 #@! TO.P,SW2,1*
G04 #@! TO.N,/BUTTON_SAVE*
X119000000Y-106000000D03*
G04 #@! TO.P,SW2,2*
G04 #@! TO.N,GND*
X119000000Y-110500000D03*
G04 #@! TD*
D12*
G04 #@! TO.P,J2,1*
G04 #@! TO.N,+3V3*
X150500000Y-62340000D03*
D13*
G04 #@! TO.P,J2,2*
G04 #@! TO.N,/~RST*
X150500000Y-64880000D03*
G04 #@! TO.P,J2,3*
G04 #@! TO.N,/GPIO0*
X150500000Y-67420000D03*
G04 #@! TO.P,J2,4*
G04 #@! TO.N,/Tx*
X150500000Y-69960000D03*
G04 #@! TO.P,J2,5*
G04 #@! TO.N,/Rx*
X150500000Y-72500000D03*
G04 #@! TO.P,J2,6*
G04 #@! TO.N,GND*
X150500000Y-75040000D03*
G04 #@! TD*
D15*
G04 #@! TO.N,GND*
X115500000Y-70500000D03*
X118000000Y-70500000D03*
X120500000Y-71000000D03*
X121000000Y-100000000D03*
X150000000Y-122500000D03*
X148500000Y-103000000D03*
G04 #@! TO.N,Net-(R8-Pad2)*
X150500000Y-101500000D03*
X134000000Y-76000000D03*
G04 #@! TO.N,/BUTTON_CHANGE*
X132000000Y-97000000D03*
G04 #@! TO.N,/BUTTON_SAVE*
X130000000Y-97000000D03*
G04 #@! TD*
D16*
G04 #@! TO.N,Net-(R8-Pad2)*
X150500000Y-101500000D02*
X146500000Y-97500000D01*
X146500000Y-97500000D02*
X136500000Y-97500000D01*
X136500000Y-97500000D02*
X133000000Y-94000000D01*
X133000000Y-94000000D02*
X133000000Y-77000000D01*
X133000000Y-77000000D02*
X134000000Y-76000000D01*
G04 #@! TO.N,/BUTTON_CHANGE*
X140085787Y-106000000D02*
X135000000Y-106000000D01*
X141500000Y-106000000D02*
X140085787Y-106000000D01*
X135000000Y-100000000D02*
X135000000Y-106000000D01*
X132000000Y-97000000D02*
X135000000Y-100000000D01*
G04 #@! TO.N,/BUTTON_SAVE*
X127500000Y-106000000D02*
X125500000Y-106000000D01*
X130000000Y-97000000D02*
X130000000Y-103500000D01*
X130000000Y-103500000D02*
X127500000Y-106000000D01*
X125500000Y-106000000D02*
X119000000Y-106000000D01*
G04 #@! TD*
D17*
G04 #@! TO.N,GND*
G36*
X154290001Y-139290000D02*
X105710000Y-139290000D01*
X105710000Y-135033352D01*
X107270204Y-135033352D01*
X107389288Y-135798175D01*
X107718246Y-136498832D01*
X108230633Y-137079000D01*
X108885258Y-137492037D01*
X109629496Y-137704742D01*
X110403520Y-137700013D01*
X111145104Y-137478233D01*
X111794634Y-137057228D01*
X112299895Y-136470844D01*
X112620268Y-135766220D01*
X112730000Y-135000000D01*
X112729185Y-134933300D01*
X112600766Y-134169990D01*
X112263273Y-133473403D01*
X111743836Y-132899539D01*
X111084214Y-132494530D01*
X110337432Y-132290934D01*
X109563524Y-132305118D01*
X108824705Y-132535942D01*
X108180366Y-132964851D01*
X107682307Y-133557363D01*
X107370566Y-134265849D01*
X107270204Y-135033352D01*
X105710000Y-135033352D01*
X105710000Y-124100000D01*
X127452560Y-124100000D01*
X127452560Y-125900000D01*
X127501843Y-126147765D01*
X127642191Y-126357809D01*
X127852235Y-126498157D01*
X128100000Y-126547440D01*
X129900000Y-126547440D01*
X130147765Y-126498157D01*
X130357809Y-126357809D01*
X130498157Y-126147765D01*
X130501275Y-126132092D01*
X130670493Y-126301310D01*
X131234670Y-126535000D01*
X131845330Y-126535000D01*
X132409507Y-126301310D01*
X132841310Y-125869507D01*
X133075000Y-125305330D01*
X133075000Y-124694670D01*
X132841310Y-124130493D01*
X132409507Y-123698690D01*
X131845330Y-123465000D01*
X131234670Y-123465000D01*
X130670493Y-123698690D01*
X130501275Y-123867908D01*
X130498157Y-123852235D01*
X130357809Y-123642191D01*
X130147765Y-123501843D01*
X129900000Y-123452560D01*
X128100000Y-123452560D01*
X127852235Y-123501843D01*
X127642191Y-123642191D01*
X127501843Y-123852235D01*
X127452560Y-124100000D01*
X105710000Y-124100000D01*
X105710000Y-116000000D01*
X148485908Y-116000000D01*
X148601161Y-116579418D01*
X148929375Y-117070625D01*
X149420582Y-117398839D01*
X149853744Y-117485000D01*
X150146256Y-117485000D01*
X150579418Y-117398839D01*
X151070625Y-117070625D01*
X151398839Y-116579418D01*
X151514092Y-116000000D01*
X151398839Y-115420582D01*
X151070625Y-114929375D01*
X151048967Y-114914904D01*
X151209698Y-114848327D01*
X151388327Y-114669699D01*
X151485000Y-114436310D01*
X151485000Y-113745750D01*
X151326250Y-113587000D01*
X150127000Y-113587000D01*
X150127000Y-113607000D01*
X149873000Y-113607000D01*
X149873000Y-113587000D01*
X148673750Y-113587000D01*
X148515000Y-113745750D01*
X148515000Y-114436310D01*
X148611673Y-114669699D01*
X148790302Y-114848327D01*
X148951033Y-114914904D01*
X148929375Y-114929375D01*
X148601161Y-115420582D01*
X148485908Y-116000000D01*
X105710000Y-116000000D01*
X105710000Y-112483690D01*
X148515000Y-112483690D01*
X148515000Y-113174250D01*
X148673750Y-113333000D01*
X149873000Y-113333000D01*
X149873000Y-112133750D01*
X150127000Y-112133750D01*
X150127000Y-113333000D01*
X151326250Y-113333000D01*
X151485000Y-113174250D01*
X151485000Y-112483690D01*
X151388327Y-112250301D01*
X151209698Y-112071673D01*
X150976309Y-111975000D01*
X150285750Y-111975000D01*
X150127000Y-112133750D01*
X149873000Y-112133750D01*
X149714250Y-111975000D01*
X149023691Y-111975000D01*
X148790302Y-112071673D01*
X148611673Y-112250301D01*
X148515000Y-112483690D01*
X105710000Y-112483690D01*
X105710000Y-111652532D01*
X118027073Y-111652532D01*
X118125736Y-111919387D01*
X118735461Y-112145908D01*
X119385460Y-112121856D01*
X119874264Y-111919387D01*
X119972927Y-111652532D01*
X124527073Y-111652532D01*
X124625736Y-111919387D01*
X125235461Y-112145908D01*
X125885460Y-112121856D01*
X126374264Y-111919387D01*
X126472927Y-111652532D01*
X134027073Y-111652532D01*
X134125736Y-111919387D01*
X134735461Y-112145908D01*
X135385460Y-112121856D01*
X135874264Y-111919387D01*
X135972927Y-111652532D01*
X140527073Y-111652532D01*
X140625736Y-111919387D01*
X141235461Y-112145908D01*
X141885460Y-112121856D01*
X142374264Y-111919387D01*
X142472927Y-111652532D01*
X141500000Y-110679605D01*
X140527073Y-111652532D01*
X135972927Y-111652532D01*
X135000000Y-110679605D01*
X134027073Y-111652532D01*
X126472927Y-111652532D01*
X125500000Y-110679605D01*
X124527073Y-111652532D01*
X119972927Y-111652532D01*
X119000000Y-110679605D01*
X118027073Y-111652532D01*
X105710000Y-111652532D01*
X105710000Y-110235461D01*
X117354092Y-110235461D01*
X117378144Y-110885460D01*
X117580613Y-111374264D01*
X117847468Y-111472927D01*
X118820395Y-110500000D01*
X119179605Y-110500000D01*
X120152532Y-111472927D01*
X120419387Y-111374264D01*
X120645908Y-110764539D01*
X120626331Y-110235461D01*
X123854092Y-110235461D01*
X123878144Y-110885460D01*
X124080613Y-111374264D01*
X124347468Y-111472927D01*
X125320395Y-110500000D01*
X125679605Y-110500000D01*
X126652532Y-111472927D01*
X126919387Y-111374264D01*
X127145908Y-110764539D01*
X127126331Y-110235461D01*
X133354092Y-110235461D01*
X133378144Y-110885460D01*
X133580613Y-111374264D01*
X133847468Y-111472927D01*
X134820395Y-110500000D01*
X135179605Y-110500000D01*
X136152532Y-111472927D01*
X136419387Y-111374264D01*
X136645908Y-110764539D01*
X136626331Y-110235461D01*
X139854092Y-110235461D01*
X139878144Y-110885460D01*
X140080613Y-111374264D01*
X140347468Y-111472927D01*
X141320395Y-110500000D01*
X141679605Y-110500000D01*
X142652532Y-111472927D01*
X142919387Y-111374264D01*
X143145908Y-110764539D01*
X143121856Y-110114540D01*
X142919387Y-109625736D01*
X142652532Y-109527073D01*
X141679605Y-110500000D01*
X141320395Y-110500000D01*
X140347468Y-109527073D01*
X140080613Y-109625736D01*
X139854092Y-110235461D01*
X136626331Y-110235461D01*
X136621856Y-110114540D01*
X136419387Y-109625736D01*
X136152532Y-109527073D01*
X135179605Y-110500000D01*
X134820395Y-110500000D01*
X133847468Y-109527073D01*
X133580613Y-109625736D01*
X133354092Y-110235461D01*
X127126331Y-110235461D01*
X127121856Y-110114540D01*
X126919387Y-109625736D01*
X126652532Y-109527073D01*
X125679605Y-110500000D01*
X125320395Y-110500000D01*
X124347468Y-109527073D01*
X124080613Y-109625736D01*
X123854092Y-110235461D01*
X120626331Y-110235461D01*
X120621856Y-110114540D01*
X120419387Y-109625736D01*
X120152532Y-109527073D01*
X119179605Y-110500000D01*
X118820395Y-110500000D01*
X117847468Y-109527073D01*
X117580613Y-109625736D01*
X117354092Y-110235461D01*
X105710000Y-110235461D01*
X105710000Y-109347468D01*
X118027073Y-109347468D01*
X119000000Y-110320395D01*
X119972927Y-109347468D01*
X124527073Y-109347468D01*
X125500000Y-110320395D01*
X126472927Y-109347468D01*
X134027073Y-109347468D01*
X135000000Y-110320395D01*
X135972927Y-109347468D01*
X140527073Y-109347468D01*
X141500000Y-110320395D01*
X142472927Y-109347468D01*
X142374264Y-109080613D01*
X141764539Y-108854092D01*
X141114540Y-108878144D01*
X140625736Y-109080613D01*
X140527073Y-109347468D01*
X135972927Y-109347468D01*
X135874264Y-109080613D01*
X135264539Y-108854092D01*
X134614540Y-108878144D01*
X134125736Y-109080613D01*
X134027073Y-109347468D01*
X126472927Y-109347468D01*
X126374264Y-109080613D01*
X125764539Y-108854092D01*
X125114540Y-108878144D01*
X124625736Y-109080613D01*
X124527073Y-109347468D01*
X119972927Y-109347468D01*
X119874264Y-109080613D01*
X119264539Y-108854092D01*
X118614540Y-108878144D01*
X118125736Y-109080613D01*
X118027073Y-109347468D01*
X105710000Y-109347468D01*
X105710000Y-105674778D01*
X117365000Y-105674778D01*
X117365000Y-106325222D01*
X117613914Y-106926153D01*
X118073847Y-107386086D01*
X118674778Y-107635000D01*
X119325222Y-107635000D01*
X119926153Y-107386086D01*
X120386086Y-106926153D01*
X120403132Y-106885000D01*
X124096868Y-106885000D01*
X124113914Y-106926153D01*
X124573847Y-107386086D01*
X125174778Y-107635000D01*
X125825222Y-107635000D01*
X126426153Y-107386086D01*
X126886086Y-106926153D01*
X126903132Y-106885000D01*
X127412839Y-106885000D01*
X127500000Y-106902337D01*
X127587161Y-106885000D01*
X127587165Y-106885000D01*
X127845310Y-106833652D01*
X128138049Y-106638049D01*
X128187425Y-106564153D01*
X130564156Y-104187423D01*
X130638049Y-104138049D01*
X130833652Y-103845310D01*
X130885000Y-103587165D01*
X130885000Y-103587161D01*
X130902337Y-103500000D01*
X130885000Y-103412839D01*
X130885000Y-97568007D01*
X131000000Y-97290372D01*
X131122569Y-97586280D01*
X131413720Y-97877431D01*
X131775853Y-98027431D01*
X134115000Y-100366579D01*
X134115001Y-104596868D01*
X134073847Y-104613914D01*
X133613914Y-105073847D01*
X133365000Y-105674778D01*
X133365000Y-106325222D01*
X133613914Y-106926153D01*
X134073847Y-107386086D01*
X134674778Y-107635000D01*
X135325222Y-107635000D01*
X135926153Y-107386086D01*
X136386086Y-106926153D01*
X136403132Y-106885000D01*
X140096868Y-106885000D01*
X140113914Y-106926153D01*
X140573847Y-107386086D01*
X141174778Y-107635000D01*
X141825222Y-107635000D01*
X142426153Y-107386086D01*
X142886086Y-106926153D01*
X143135000Y-106325222D01*
X143135000Y-105674778D01*
X142886086Y-105073847D01*
X142426153Y-104613914D01*
X141825222Y-104365000D01*
X141174778Y-104365000D01*
X140573847Y-104613914D01*
X140113914Y-105073847D01*
X140096868Y-105115000D01*
X136403132Y-105115000D01*
X136386086Y-105073847D01*
X135926153Y-104613914D01*
X135885000Y-104596868D01*
X135885000Y-100087161D01*
X135902337Y-100000000D01*
X135885000Y-99912839D01*
X135885000Y-99912835D01*
X135833652Y-99654690D01*
X135638049Y-99361951D01*
X135564156Y-99312577D01*
X133027431Y-96775853D01*
X132877431Y-96413720D01*
X132586280Y-96122569D01*
X132205874Y-95965000D01*
X131794126Y-95965000D01*
X131413720Y-96122569D01*
X131122569Y-96413720D01*
X131000000Y-96709628D01*
X130877431Y-96413720D01*
X130586280Y-96122569D01*
X130205874Y-95965000D01*
X129794126Y-95965000D01*
X129413720Y-96122569D01*
X129122569Y-96413720D01*
X128965000Y-96794126D01*
X128965000Y-97205874D01*
X129115000Y-97568007D01*
X129115001Y-103133420D01*
X127133422Y-105115000D01*
X126903132Y-105115000D01*
X126886086Y-105073847D01*
X126426153Y-104613914D01*
X125825222Y-104365000D01*
X125174778Y-104365000D01*
X124573847Y-104613914D01*
X124113914Y-105073847D01*
X124096868Y-105115000D01*
X120403132Y-105115000D01*
X120386086Y-105073847D01*
X119926153Y-104613914D01*
X119325222Y-104365000D01*
X118674778Y-104365000D01*
X118073847Y-104613914D01*
X117613914Y-105073847D01*
X117365000Y-105674778D01*
X105710000Y-105674778D01*
X105710000Y-77000000D01*
X132097663Y-77000000D01*
X132115001Y-77087166D01*
X132115000Y-93912839D01*
X132097663Y-94000000D01*
X132115000Y-94087161D01*
X132115000Y-94087164D01*
X132166348Y-94345309D01*
X132361951Y-94638049D01*
X132435847Y-94687425D01*
X135812577Y-98064156D01*
X135861951Y-98138049D01*
X135935844Y-98187423D01*
X135935845Y-98187424D01*
X136046880Y-98261615D01*
X136154690Y-98333652D01*
X136412835Y-98385000D01*
X136412839Y-98385000D01*
X136499999Y-98402337D01*
X136587159Y-98385000D01*
X146133422Y-98385000D01*
X149472569Y-101724148D01*
X149622569Y-102086280D01*
X149913720Y-102377431D01*
X150294126Y-102535000D01*
X150705874Y-102535000D01*
X151086280Y-102377431D01*
X151377431Y-102086280D01*
X151535000Y-101705874D01*
X151535000Y-101294126D01*
X151377431Y-100913720D01*
X151086280Y-100622569D01*
X150724148Y-100472569D01*
X147187425Y-96935847D01*
X147138049Y-96861951D01*
X146845310Y-96666348D01*
X146587165Y-96615000D01*
X146587161Y-96615000D01*
X146500000Y-96597663D01*
X146412839Y-96615000D01*
X136866579Y-96615000D01*
X136378579Y-96127000D01*
X144000000Y-96127000D01*
X144048601Y-96117333D01*
X144089803Y-96089803D01*
X144117333Y-96048601D01*
X144127000Y-96000000D01*
X144127000Y-77000000D01*
X144117333Y-76951399D01*
X144089803Y-76910197D01*
X144048601Y-76882667D01*
X144000000Y-76873000D01*
X136000000Y-76873000D01*
X135951399Y-76882667D01*
X135910197Y-76910197D01*
X135882667Y-76951399D01*
X135873000Y-77000000D01*
X135873000Y-95621421D01*
X133885000Y-93633422D01*
X133885000Y-77366578D01*
X134224148Y-77027431D01*
X134586280Y-76877431D01*
X134877431Y-76586280D01*
X135035000Y-76205874D01*
X135035000Y-75794126D01*
X134877431Y-75413720D01*
X134860601Y-75396890D01*
X149058524Y-75396890D01*
X149228355Y-75806924D01*
X149618642Y-76235183D01*
X150143108Y-76481486D01*
X150373000Y-76360819D01*
X150373000Y-75167000D01*
X150627000Y-75167000D01*
X150627000Y-76360819D01*
X150856892Y-76481486D01*
X151381358Y-76235183D01*
X151771645Y-75806924D01*
X151941476Y-75396890D01*
X151820155Y-75167000D01*
X150627000Y-75167000D01*
X150373000Y-75167000D01*
X149179845Y-75167000D01*
X149058524Y-75396890D01*
X134860601Y-75396890D01*
X134586280Y-75122569D01*
X134205874Y-74965000D01*
X133794126Y-74965000D01*
X133413720Y-75122569D01*
X133122569Y-75413720D01*
X132972569Y-75775852D01*
X132435845Y-76312577D01*
X132361952Y-76361951D01*
X132312578Y-76435844D01*
X132312576Y-76435846D01*
X132166348Y-76654691D01*
X132097663Y-77000000D01*
X105710000Y-77000000D01*
X105710000Y-64880000D01*
X148985908Y-64880000D01*
X149101161Y-65459418D01*
X149429375Y-65950625D01*
X149727761Y-66150000D01*
X149429375Y-66349375D01*
X149101161Y-66840582D01*
X148985908Y-67420000D01*
X149101161Y-67999418D01*
X149429375Y-68490625D01*
X149727761Y-68690000D01*
X149429375Y-68889375D01*
X149101161Y-69380582D01*
X148985908Y-69960000D01*
X149101161Y-70539418D01*
X149429375Y-71030625D01*
X149727761Y-71230000D01*
X149429375Y-71429375D01*
X149101161Y-71920582D01*
X148985908Y-72500000D01*
X149101161Y-73079418D01*
X149429375Y-73570625D01*
X149748478Y-73783843D01*
X149618642Y-73844817D01*
X149228355Y-74273076D01*
X149058524Y-74683110D01*
X149179845Y-74913000D01*
X150373000Y-74913000D01*
X150373000Y-74893000D01*
X150627000Y-74893000D01*
X150627000Y-74913000D01*
X151820155Y-74913000D01*
X151941476Y-74683110D01*
X151771645Y-74273076D01*
X151381358Y-73844817D01*
X151251522Y-73783843D01*
X151570625Y-73570625D01*
X151898839Y-73079418D01*
X152014092Y-72500000D01*
X151898839Y-71920582D01*
X151570625Y-71429375D01*
X151272239Y-71230000D01*
X151570625Y-71030625D01*
X151898839Y-70539418D01*
X152014092Y-69960000D01*
X151898839Y-69380582D01*
X151570625Y-68889375D01*
X151272239Y-68690000D01*
X151570625Y-68490625D01*
X151898839Y-67999418D01*
X152014092Y-67420000D01*
X151898839Y-66840582D01*
X151570625Y-66349375D01*
X151272239Y-66150000D01*
X151570625Y-65950625D01*
X151898839Y-65459418D01*
X152014092Y-64880000D01*
X151898839Y-64300582D01*
X151570625Y-63809375D01*
X151552381Y-63797184D01*
X151597765Y-63788157D01*
X151807809Y-63647809D01*
X151948157Y-63437765D01*
X151997440Y-63190000D01*
X151997440Y-61490000D01*
X151948157Y-61242235D01*
X151807809Y-61032191D01*
X151597765Y-60891843D01*
X151350000Y-60842560D01*
X149650000Y-60842560D01*
X149402235Y-60891843D01*
X149192191Y-61032191D01*
X149051843Y-61242235D01*
X149002560Y-61490000D01*
X149002560Y-63190000D01*
X149051843Y-63437765D01*
X149192191Y-63647809D01*
X149402235Y-63788157D01*
X149447619Y-63797184D01*
X149429375Y-63809375D01*
X149101161Y-64300582D01*
X148985908Y-64880000D01*
X105710000Y-64880000D01*
X105710000Y-60100000D01*
X115452560Y-60100000D01*
X115452560Y-61900000D01*
X115501843Y-62147765D01*
X115642191Y-62357809D01*
X115852235Y-62498157D01*
X116100000Y-62547440D01*
X117900000Y-62547440D01*
X118147765Y-62498157D01*
X118357809Y-62357809D01*
X118498157Y-62147765D01*
X118501275Y-62132092D01*
X118670493Y-62301310D01*
X119234670Y-62535000D01*
X119845330Y-62535000D01*
X120409507Y-62301310D01*
X120841310Y-61869507D01*
X121075000Y-61305330D01*
X121075000Y-60694670D01*
X120841310Y-60130493D01*
X120810817Y-60100000D01*
X126452560Y-60100000D01*
X126452560Y-61900000D01*
X126501843Y-62147765D01*
X126642191Y-62357809D01*
X126852235Y-62498157D01*
X127100000Y-62547440D01*
X128900000Y-62547440D01*
X129147765Y-62498157D01*
X129357809Y-62357809D01*
X129498157Y-62147765D01*
X129501275Y-62132092D01*
X129670493Y-62301310D01*
X130234670Y-62535000D01*
X130845330Y-62535000D01*
X131409507Y-62301310D01*
X131841310Y-61869507D01*
X132075000Y-61305330D01*
X132075000Y-60694670D01*
X131841310Y-60130493D01*
X131810817Y-60100000D01*
X137452560Y-60100000D01*
X137452560Y-61900000D01*
X137501843Y-62147765D01*
X137642191Y-62357809D01*
X137852235Y-62498157D01*
X138100000Y-62547440D01*
X139900000Y-62547440D01*
X140147765Y-62498157D01*
X140357809Y-62357809D01*
X140498157Y-62147765D01*
X140501275Y-62132092D01*
X140670493Y-62301310D01*
X141234670Y-62535000D01*
X141845330Y-62535000D01*
X142409507Y-62301310D01*
X142841310Y-61869507D01*
X143075000Y-61305330D01*
X143075000Y-60694670D01*
X142841310Y-60130493D01*
X142409507Y-59698690D01*
X141845330Y-59465000D01*
X141234670Y-59465000D01*
X140670493Y-59698690D01*
X140501275Y-59867908D01*
X140498157Y-59852235D01*
X140357809Y-59642191D01*
X140147765Y-59501843D01*
X139900000Y-59452560D01*
X138100000Y-59452560D01*
X137852235Y-59501843D01*
X137642191Y-59642191D01*
X137501843Y-59852235D01*
X137452560Y-60100000D01*
X131810817Y-60100000D01*
X131409507Y-59698690D01*
X130845330Y-59465000D01*
X130234670Y-59465000D01*
X129670493Y-59698690D01*
X129501275Y-59867908D01*
X129498157Y-59852235D01*
X129357809Y-59642191D01*
X129147765Y-59501843D01*
X128900000Y-59452560D01*
X127100000Y-59452560D01*
X126852235Y-59501843D01*
X126642191Y-59642191D01*
X126501843Y-59852235D01*
X126452560Y-60100000D01*
X120810817Y-60100000D01*
X120409507Y-59698690D01*
X119845330Y-59465000D01*
X119234670Y-59465000D01*
X118670493Y-59698690D01*
X118501275Y-59867908D01*
X118498157Y-59852235D01*
X118357809Y-59642191D01*
X118147765Y-59501843D01*
X117900000Y-59452560D01*
X116100000Y-59452560D01*
X115852235Y-59501843D01*
X115642191Y-59642191D01*
X115501843Y-59852235D01*
X115452560Y-60100000D01*
X105710000Y-60100000D01*
X105710000Y-55033352D01*
X107270204Y-55033352D01*
X107389288Y-55798175D01*
X107718246Y-56498832D01*
X108230633Y-57079000D01*
X108885258Y-57492037D01*
X109629496Y-57704742D01*
X110403520Y-57700013D01*
X111145104Y-57478233D01*
X111794634Y-57057228D01*
X112299895Y-56470844D01*
X112620268Y-55766220D01*
X112725223Y-55033352D01*
X147270204Y-55033352D01*
X147389288Y-55798175D01*
X147718246Y-56498832D01*
X148230633Y-57079000D01*
X148885258Y-57492037D01*
X149629496Y-57704742D01*
X150403520Y-57700013D01*
X151145104Y-57478233D01*
X151794634Y-57057228D01*
X152299895Y-56470844D01*
X152620268Y-55766220D01*
X152730000Y-55000000D01*
X152729185Y-54933300D01*
X152600766Y-54169990D01*
X152263273Y-53473403D01*
X151743836Y-52899539D01*
X151084214Y-52494530D01*
X150337432Y-52290934D01*
X149563524Y-52305118D01*
X148824705Y-52535942D01*
X148180366Y-52964851D01*
X147682307Y-53557363D01*
X147370566Y-54265849D01*
X147270204Y-55033352D01*
X112725223Y-55033352D01*
X112730000Y-55000000D01*
X112729185Y-54933300D01*
X112600766Y-54169990D01*
X112263273Y-53473403D01*
X111743836Y-52899539D01*
X111084214Y-52494530D01*
X110337432Y-52290934D01*
X109563524Y-52305118D01*
X108824705Y-52535942D01*
X108180366Y-52964851D01*
X107682307Y-53557363D01*
X107370566Y-54265849D01*
X107270204Y-55033352D01*
X105710000Y-55033352D01*
X105710000Y-50710000D01*
X154290000Y-50710000D01*
X154290001Y-139290000D01*
X154290001Y-139290000D01*
G37*
X154290001Y-139290000D02*
X105710000Y-139290000D01*
X105710000Y-135033352D01*
X107270204Y-135033352D01*
X107389288Y-135798175D01*
X107718246Y-136498832D01*
X108230633Y-137079000D01*
X108885258Y-137492037D01*
X109629496Y-137704742D01*
X110403520Y-137700013D01*
X111145104Y-137478233D01*
X111794634Y-137057228D01*
X112299895Y-136470844D01*
X112620268Y-135766220D01*
X112730000Y-135000000D01*
X112729185Y-134933300D01*
X112600766Y-134169990D01*
X112263273Y-133473403D01*
X111743836Y-132899539D01*
X111084214Y-132494530D01*
X110337432Y-132290934D01*
X109563524Y-132305118D01*
X108824705Y-132535942D01*
X108180366Y-132964851D01*
X107682307Y-133557363D01*
X107370566Y-134265849D01*
X107270204Y-135033352D01*
X105710000Y-135033352D01*
X105710000Y-124100000D01*
X127452560Y-124100000D01*
X127452560Y-125900000D01*
X127501843Y-126147765D01*
X127642191Y-126357809D01*
X127852235Y-126498157D01*
X128100000Y-126547440D01*
X129900000Y-126547440D01*
X130147765Y-126498157D01*
X130357809Y-126357809D01*
X130498157Y-126147765D01*
X130501275Y-126132092D01*
X130670493Y-126301310D01*
X131234670Y-126535000D01*
X131845330Y-126535000D01*
X132409507Y-126301310D01*
X132841310Y-125869507D01*
X133075000Y-125305330D01*
X133075000Y-124694670D01*
X132841310Y-124130493D01*
X132409507Y-123698690D01*
X131845330Y-123465000D01*
X131234670Y-123465000D01*
X130670493Y-123698690D01*
X130501275Y-123867908D01*
X130498157Y-123852235D01*
X130357809Y-123642191D01*
X130147765Y-123501843D01*
X129900000Y-123452560D01*
X128100000Y-123452560D01*
X127852235Y-123501843D01*
X127642191Y-123642191D01*
X127501843Y-123852235D01*
X127452560Y-124100000D01*
X105710000Y-124100000D01*
X105710000Y-116000000D01*
X148485908Y-116000000D01*
X148601161Y-116579418D01*
X148929375Y-117070625D01*
X149420582Y-117398839D01*
X149853744Y-117485000D01*
X150146256Y-117485000D01*
X150579418Y-117398839D01*
X151070625Y-117070625D01*
X151398839Y-116579418D01*
X151514092Y-116000000D01*
X151398839Y-115420582D01*
X151070625Y-114929375D01*
X151048967Y-114914904D01*
X151209698Y-114848327D01*
X151388327Y-114669699D01*
X151485000Y-114436310D01*
X151485000Y-113745750D01*
X151326250Y-113587000D01*
X150127000Y-113587000D01*
X150127000Y-113607000D01*
X149873000Y-113607000D01*
X149873000Y-113587000D01*
X148673750Y-113587000D01*
X148515000Y-113745750D01*
X148515000Y-114436310D01*
X148611673Y-114669699D01*
X148790302Y-114848327D01*
X148951033Y-114914904D01*
X148929375Y-114929375D01*
X148601161Y-115420582D01*
X148485908Y-116000000D01*
X105710000Y-116000000D01*
X105710000Y-112483690D01*
X148515000Y-112483690D01*
X148515000Y-113174250D01*
X148673750Y-113333000D01*
X149873000Y-113333000D01*
X149873000Y-112133750D01*
X150127000Y-112133750D01*
X150127000Y-113333000D01*
X151326250Y-113333000D01*
X151485000Y-113174250D01*
X151485000Y-112483690D01*
X151388327Y-112250301D01*
X151209698Y-112071673D01*
X150976309Y-111975000D01*
X150285750Y-111975000D01*
X150127000Y-112133750D01*
X149873000Y-112133750D01*
X149714250Y-111975000D01*
X149023691Y-111975000D01*
X148790302Y-112071673D01*
X148611673Y-112250301D01*
X148515000Y-112483690D01*
X105710000Y-112483690D01*
X105710000Y-111652532D01*
X118027073Y-111652532D01*
X118125736Y-111919387D01*
X118735461Y-112145908D01*
X119385460Y-112121856D01*
X119874264Y-111919387D01*
X119972927Y-111652532D01*
X124527073Y-111652532D01*
X124625736Y-111919387D01*
X125235461Y-112145908D01*
X125885460Y-112121856D01*
X126374264Y-111919387D01*
X126472927Y-111652532D01*
X134027073Y-111652532D01*
X134125736Y-111919387D01*
X134735461Y-112145908D01*
X135385460Y-112121856D01*
X135874264Y-111919387D01*
X135972927Y-111652532D01*
X140527073Y-111652532D01*
X140625736Y-111919387D01*
X141235461Y-112145908D01*
X141885460Y-112121856D01*
X142374264Y-111919387D01*
X142472927Y-111652532D01*
X141500000Y-110679605D01*
X140527073Y-111652532D01*
X135972927Y-111652532D01*
X135000000Y-110679605D01*
X134027073Y-111652532D01*
X126472927Y-111652532D01*
X125500000Y-110679605D01*
X124527073Y-111652532D01*
X119972927Y-111652532D01*
X119000000Y-110679605D01*
X118027073Y-111652532D01*
X105710000Y-111652532D01*
X105710000Y-110235461D01*
X117354092Y-110235461D01*
X117378144Y-110885460D01*
X117580613Y-111374264D01*
X117847468Y-111472927D01*
X118820395Y-110500000D01*
X119179605Y-110500000D01*
X120152532Y-111472927D01*
X120419387Y-111374264D01*
X120645908Y-110764539D01*
X120626331Y-110235461D01*
X123854092Y-110235461D01*
X123878144Y-110885460D01*
X124080613Y-111374264D01*
X124347468Y-111472927D01*
X125320395Y-110500000D01*
X125679605Y-110500000D01*
X126652532Y-111472927D01*
X126919387Y-111374264D01*
X127145908Y-110764539D01*
X127126331Y-110235461D01*
X133354092Y-110235461D01*
X133378144Y-110885460D01*
X133580613Y-111374264D01*
X133847468Y-111472927D01*
X134820395Y-110500000D01*
X135179605Y-110500000D01*
X136152532Y-111472927D01*
X136419387Y-111374264D01*
X136645908Y-110764539D01*
X136626331Y-110235461D01*
X139854092Y-110235461D01*
X139878144Y-110885460D01*
X140080613Y-111374264D01*
X140347468Y-111472927D01*
X141320395Y-110500000D01*
X141679605Y-110500000D01*
X142652532Y-111472927D01*
X142919387Y-111374264D01*
X143145908Y-110764539D01*
X143121856Y-110114540D01*
X142919387Y-109625736D01*
X142652532Y-109527073D01*
X141679605Y-110500000D01*
X141320395Y-110500000D01*
X140347468Y-109527073D01*
X140080613Y-109625736D01*
X139854092Y-110235461D01*
X136626331Y-110235461D01*
X136621856Y-110114540D01*
X136419387Y-109625736D01*
X136152532Y-109527073D01*
X135179605Y-110500000D01*
X134820395Y-110500000D01*
X133847468Y-109527073D01*
X133580613Y-109625736D01*
X133354092Y-110235461D01*
X127126331Y-110235461D01*
X127121856Y-110114540D01*
X126919387Y-109625736D01*
X126652532Y-109527073D01*
X125679605Y-110500000D01*
X125320395Y-110500000D01*
X124347468Y-109527073D01*
X124080613Y-109625736D01*
X123854092Y-110235461D01*
X120626331Y-110235461D01*
X120621856Y-110114540D01*
X120419387Y-109625736D01*
X120152532Y-109527073D01*
X119179605Y-110500000D01*
X118820395Y-110500000D01*
X117847468Y-109527073D01*
X117580613Y-109625736D01*
X117354092Y-110235461D01*
X105710000Y-110235461D01*
X105710000Y-109347468D01*
X118027073Y-109347468D01*
X119000000Y-110320395D01*
X119972927Y-109347468D01*
X124527073Y-109347468D01*
X125500000Y-110320395D01*
X126472927Y-109347468D01*
X134027073Y-109347468D01*
X135000000Y-110320395D01*
X135972927Y-109347468D01*
X140527073Y-109347468D01*
X141500000Y-110320395D01*
X142472927Y-109347468D01*
X142374264Y-109080613D01*
X141764539Y-108854092D01*
X141114540Y-108878144D01*
X140625736Y-109080613D01*
X140527073Y-109347468D01*
X135972927Y-109347468D01*
X135874264Y-109080613D01*
X135264539Y-108854092D01*
X134614540Y-108878144D01*
X134125736Y-109080613D01*
X134027073Y-109347468D01*
X126472927Y-109347468D01*
X126374264Y-109080613D01*
X125764539Y-108854092D01*
X125114540Y-108878144D01*
X124625736Y-109080613D01*
X124527073Y-109347468D01*
X119972927Y-109347468D01*
X119874264Y-109080613D01*
X119264539Y-108854092D01*
X118614540Y-108878144D01*
X118125736Y-109080613D01*
X118027073Y-109347468D01*
X105710000Y-109347468D01*
X105710000Y-105674778D01*
X117365000Y-105674778D01*
X117365000Y-106325222D01*
X117613914Y-106926153D01*
X118073847Y-107386086D01*
X118674778Y-107635000D01*
X119325222Y-107635000D01*
X119926153Y-107386086D01*
X120386086Y-106926153D01*
X120403132Y-106885000D01*
X124096868Y-106885000D01*
X124113914Y-106926153D01*
X124573847Y-107386086D01*
X125174778Y-107635000D01*
X125825222Y-107635000D01*
X126426153Y-107386086D01*
X126886086Y-106926153D01*
X126903132Y-106885000D01*
X127412839Y-106885000D01*
X127500000Y-106902337D01*
X127587161Y-106885000D01*
X127587165Y-106885000D01*
X127845310Y-106833652D01*
X128138049Y-106638049D01*
X128187425Y-106564153D01*
X130564156Y-104187423D01*
X130638049Y-104138049D01*
X130833652Y-103845310D01*
X130885000Y-103587165D01*
X130885000Y-103587161D01*
X130902337Y-103500000D01*
X130885000Y-103412839D01*
X130885000Y-97568007D01*
X131000000Y-97290372D01*
X131122569Y-97586280D01*
X131413720Y-97877431D01*
X131775853Y-98027431D01*
X134115000Y-100366579D01*
X134115001Y-104596868D01*
X134073847Y-104613914D01*
X133613914Y-105073847D01*
X133365000Y-105674778D01*
X133365000Y-106325222D01*
X133613914Y-106926153D01*
X134073847Y-107386086D01*
X134674778Y-107635000D01*
X135325222Y-107635000D01*
X135926153Y-107386086D01*
X136386086Y-106926153D01*
X136403132Y-106885000D01*
X140096868Y-106885000D01*
X140113914Y-106926153D01*
X140573847Y-107386086D01*
X141174778Y-107635000D01*
X141825222Y-107635000D01*
X142426153Y-107386086D01*
X142886086Y-106926153D01*
X143135000Y-106325222D01*
X143135000Y-105674778D01*
X142886086Y-105073847D01*
X142426153Y-104613914D01*
X141825222Y-104365000D01*
X141174778Y-104365000D01*
X140573847Y-104613914D01*
X140113914Y-105073847D01*
X140096868Y-105115000D01*
X136403132Y-105115000D01*
X136386086Y-105073847D01*
X135926153Y-104613914D01*
X135885000Y-104596868D01*
X135885000Y-100087161D01*
X135902337Y-100000000D01*
X135885000Y-99912839D01*
X135885000Y-99912835D01*
X135833652Y-99654690D01*
X135638049Y-99361951D01*
X135564156Y-99312577D01*
X133027431Y-96775853D01*
X132877431Y-96413720D01*
X132586280Y-96122569D01*
X132205874Y-95965000D01*
X131794126Y-95965000D01*
X131413720Y-96122569D01*
X131122569Y-96413720D01*
X131000000Y-96709628D01*
X130877431Y-96413720D01*
X130586280Y-96122569D01*
X130205874Y-95965000D01*
X129794126Y-95965000D01*
X129413720Y-96122569D01*
X129122569Y-96413720D01*
X128965000Y-96794126D01*
X128965000Y-97205874D01*
X129115000Y-97568007D01*
X129115001Y-103133420D01*
X127133422Y-105115000D01*
X126903132Y-105115000D01*
X126886086Y-105073847D01*
X126426153Y-104613914D01*
X125825222Y-104365000D01*
X125174778Y-104365000D01*
X124573847Y-104613914D01*
X124113914Y-105073847D01*
X124096868Y-105115000D01*
X120403132Y-105115000D01*
X120386086Y-105073847D01*
X119926153Y-104613914D01*
X119325222Y-104365000D01*
X118674778Y-104365000D01*
X118073847Y-104613914D01*
X117613914Y-105073847D01*
X117365000Y-105674778D01*
X105710000Y-105674778D01*
X105710000Y-77000000D01*
X132097663Y-77000000D01*
X132115001Y-77087166D01*
X132115000Y-93912839D01*
X132097663Y-94000000D01*
X132115000Y-94087161D01*
X132115000Y-94087164D01*
X132166348Y-94345309D01*
X132361951Y-94638049D01*
X132435847Y-94687425D01*
X135812577Y-98064156D01*
X135861951Y-98138049D01*
X135935844Y-98187423D01*
X135935845Y-98187424D01*
X136046880Y-98261615D01*
X136154690Y-98333652D01*
X136412835Y-98385000D01*
X136412839Y-98385000D01*
X136499999Y-98402337D01*
X136587159Y-98385000D01*
X146133422Y-98385000D01*
X149472569Y-101724148D01*
X149622569Y-102086280D01*
X149913720Y-102377431D01*
X150294126Y-102535000D01*
X150705874Y-102535000D01*
X151086280Y-102377431D01*
X151377431Y-102086280D01*
X151535000Y-101705874D01*
X151535000Y-101294126D01*
X151377431Y-100913720D01*
X151086280Y-100622569D01*
X150724148Y-100472569D01*
X147187425Y-96935847D01*
X147138049Y-96861951D01*
X146845310Y-96666348D01*
X146587165Y-96615000D01*
X146587161Y-96615000D01*
X146500000Y-96597663D01*
X146412839Y-96615000D01*
X136866579Y-96615000D01*
X136378579Y-96127000D01*
X144000000Y-96127000D01*
X144048601Y-96117333D01*
X144089803Y-96089803D01*
X144117333Y-96048601D01*
X144127000Y-96000000D01*
X144127000Y-77000000D01*
X144117333Y-76951399D01*
X144089803Y-76910197D01*
X144048601Y-76882667D01*
X144000000Y-76873000D01*
X136000000Y-76873000D01*
X135951399Y-76882667D01*
X135910197Y-76910197D01*
X135882667Y-76951399D01*
X135873000Y-77000000D01*
X135873000Y-95621421D01*
X133885000Y-93633422D01*
X133885000Y-77366578D01*
X134224148Y-77027431D01*
X134586280Y-76877431D01*
X134877431Y-76586280D01*
X135035000Y-76205874D01*
X135035000Y-75794126D01*
X134877431Y-75413720D01*
X134860601Y-75396890D01*
X149058524Y-75396890D01*
X149228355Y-75806924D01*
X149618642Y-76235183D01*
X150143108Y-76481486D01*
X150373000Y-76360819D01*
X150373000Y-75167000D01*
X150627000Y-75167000D01*
X150627000Y-76360819D01*
X150856892Y-76481486D01*
X151381358Y-76235183D01*
X151771645Y-75806924D01*
X151941476Y-75396890D01*
X151820155Y-75167000D01*
X150627000Y-75167000D01*
X150373000Y-75167000D01*
X149179845Y-75167000D01*
X149058524Y-75396890D01*
X134860601Y-75396890D01*
X134586280Y-75122569D01*
X134205874Y-74965000D01*
X133794126Y-74965000D01*
X133413720Y-75122569D01*
X133122569Y-75413720D01*
X132972569Y-75775852D01*
X132435845Y-76312577D01*
X132361952Y-76361951D01*
X132312578Y-76435844D01*
X132312576Y-76435846D01*
X132166348Y-76654691D01*
X132097663Y-77000000D01*
X105710000Y-77000000D01*
X105710000Y-64880000D01*
X148985908Y-64880000D01*
X149101161Y-65459418D01*
X149429375Y-65950625D01*
X149727761Y-66150000D01*
X149429375Y-66349375D01*
X149101161Y-66840582D01*
X148985908Y-67420000D01*
X149101161Y-67999418D01*
X149429375Y-68490625D01*
X149727761Y-68690000D01*
X149429375Y-68889375D01*
X149101161Y-69380582D01*
X148985908Y-69960000D01*
X149101161Y-70539418D01*
X149429375Y-71030625D01*
X149727761Y-71230000D01*
X149429375Y-71429375D01*
X149101161Y-71920582D01*
X148985908Y-72500000D01*
X149101161Y-73079418D01*
X149429375Y-73570625D01*
X149748478Y-73783843D01*
X149618642Y-73844817D01*
X149228355Y-74273076D01*
X149058524Y-74683110D01*
X149179845Y-74913000D01*
X150373000Y-74913000D01*
X150373000Y-74893000D01*
X150627000Y-74893000D01*
X150627000Y-74913000D01*
X151820155Y-74913000D01*
X151941476Y-74683110D01*
X151771645Y-74273076D01*
X151381358Y-73844817D01*
X151251522Y-73783843D01*
X151570625Y-73570625D01*
X151898839Y-73079418D01*
X152014092Y-72500000D01*
X151898839Y-71920582D01*
X151570625Y-71429375D01*
X151272239Y-71230000D01*
X151570625Y-71030625D01*
X151898839Y-70539418D01*
X152014092Y-69960000D01*
X151898839Y-69380582D01*
X151570625Y-68889375D01*
X151272239Y-68690000D01*
X151570625Y-68490625D01*
X151898839Y-67999418D01*
X152014092Y-67420000D01*
X151898839Y-66840582D01*
X151570625Y-66349375D01*
X151272239Y-66150000D01*
X151570625Y-65950625D01*
X151898839Y-65459418D01*
X152014092Y-64880000D01*
X151898839Y-64300582D01*
X151570625Y-63809375D01*
X151552381Y-63797184D01*
X151597765Y-63788157D01*
X151807809Y-63647809D01*
X151948157Y-63437765D01*
X151997440Y-63190000D01*
X151997440Y-61490000D01*
X151948157Y-61242235D01*
X151807809Y-61032191D01*
X151597765Y-60891843D01*
X151350000Y-60842560D01*
X149650000Y-60842560D01*
X149402235Y-60891843D01*
X149192191Y-61032191D01*
X149051843Y-61242235D01*
X149002560Y-61490000D01*
X149002560Y-63190000D01*
X149051843Y-63437765D01*
X149192191Y-63647809D01*
X149402235Y-63788157D01*
X149447619Y-63797184D01*
X149429375Y-63809375D01*
X149101161Y-64300582D01*
X148985908Y-64880000D01*
X105710000Y-64880000D01*
X105710000Y-60100000D01*
X115452560Y-60100000D01*
X115452560Y-61900000D01*
X115501843Y-62147765D01*
X115642191Y-62357809D01*
X115852235Y-62498157D01*
X116100000Y-62547440D01*
X117900000Y-62547440D01*
X118147765Y-62498157D01*
X118357809Y-62357809D01*
X118498157Y-62147765D01*
X118501275Y-62132092D01*
X118670493Y-62301310D01*
X119234670Y-62535000D01*
X119845330Y-62535000D01*
X120409507Y-62301310D01*
X120841310Y-61869507D01*
X121075000Y-61305330D01*
X121075000Y-60694670D01*
X120841310Y-60130493D01*
X120810817Y-60100000D01*
X126452560Y-60100000D01*
X126452560Y-61900000D01*
X126501843Y-62147765D01*
X126642191Y-62357809D01*
X126852235Y-62498157D01*
X127100000Y-62547440D01*
X128900000Y-62547440D01*
X129147765Y-62498157D01*
X129357809Y-62357809D01*
X129498157Y-62147765D01*
X129501275Y-62132092D01*
X129670493Y-62301310D01*
X130234670Y-62535000D01*
X130845330Y-62535000D01*
X131409507Y-62301310D01*
X131841310Y-61869507D01*
X132075000Y-61305330D01*
X132075000Y-60694670D01*
X131841310Y-60130493D01*
X131810817Y-60100000D01*
X137452560Y-60100000D01*
X137452560Y-61900000D01*
X137501843Y-62147765D01*
X137642191Y-62357809D01*
X137852235Y-62498157D01*
X138100000Y-62547440D01*
X139900000Y-62547440D01*
X140147765Y-62498157D01*
X140357809Y-62357809D01*
X140498157Y-62147765D01*
X140501275Y-62132092D01*
X140670493Y-62301310D01*
X141234670Y-62535000D01*
X141845330Y-62535000D01*
X142409507Y-62301310D01*
X142841310Y-61869507D01*
X143075000Y-61305330D01*
X143075000Y-60694670D01*
X142841310Y-60130493D01*
X142409507Y-59698690D01*
X141845330Y-59465000D01*
X141234670Y-59465000D01*
X140670493Y-59698690D01*
X140501275Y-59867908D01*
X140498157Y-59852235D01*
X140357809Y-59642191D01*
X140147765Y-59501843D01*
X139900000Y-59452560D01*
X138100000Y-59452560D01*
X137852235Y-59501843D01*
X137642191Y-59642191D01*
X137501843Y-59852235D01*
X137452560Y-60100000D01*
X131810817Y-60100000D01*
X131409507Y-59698690D01*
X130845330Y-59465000D01*
X130234670Y-59465000D01*
X129670493Y-59698690D01*
X129501275Y-59867908D01*
X129498157Y-59852235D01*
X129357809Y-59642191D01*
X129147765Y-59501843D01*
X128900000Y-59452560D01*
X127100000Y-59452560D01*
X126852235Y-59501843D01*
X126642191Y-59642191D01*
X126501843Y-59852235D01*
X126452560Y-60100000D01*
X120810817Y-60100000D01*
X120409507Y-59698690D01*
X119845330Y-59465000D01*
X119234670Y-59465000D01*
X118670493Y-59698690D01*
X118501275Y-59867908D01*
X118498157Y-59852235D01*
X118357809Y-59642191D01*
X118147765Y-59501843D01*
X117900000Y-59452560D01*
X116100000Y-59452560D01*
X115852235Y-59501843D01*
X115642191Y-59642191D01*
X115501843Y-59852235D01*
X115452560Y-60100000D01*
X105710000Y-60100000D01*
X105710000Y-55033352D01*
X107270204Y-55033352D01*
X107389288Y-55798175D01*
X107718246Y-56498832D01*
X108230633Y-57079000D01*
X108885258Y-57492037D01*
X109629496Y-57704742D01*
X110403520Y-57700013D01*
X111145104Y-57478233D01*
X111794634Y-57057228D01*
X112299895Y-56470844D01*
X112620268Y-55766220D01*
X112725223Y-55033352D01*
X147270204Y-55033352D01*
X147389288Y-55798175D01*
X147718246Y-56498832D01*
X148230633Y-57079000D01*
X148885258Y-57492037D01*
X149629496Y-57704742D01*
X150403520Y-57700013D01*
X151145104Y-57478233D01*
X151794634Y-57057228D01*
X152299895Y-56470844D01*
X152620268Y-55766220D01*
X152730000Y-55000000D01*
X152729185Y-54933300D01*
X152600766Y-54169990D01*
X152263273Y-53473403D01*
X151743836Y-52899539D01*
X151084214Y-52494530D01*
X150337432Y-52290934D01*
X149563524Y-52305118D01*
X148824705Y-52535942D01*
X148180366Y-52964851D01*
X147682307Y-53557363D01*
X147370566Y-54265849D01*
X147270204Y-55033352D01*
X112725223Y-55033352D01*
X112730000Y-55000000D01*
X112729185Y-54933300D01*
X112600766Y-54169990D01*
X112263273Y-53473403D01*
X111743836Y-52899539D01*
X111084214Y-52494530D01*
X110337432Y-52290934D01*
X109563524Y-52305118D01*
X108824705Y-52535942D01*
X108180366Y-52964851D01*
X107682307Y-53557363D01*
X107370566Y-54265849D01*
X107270204Y-55033352D01*
X105710000Y-55033352D01*
X105710000Y-50710000D01*
X154290000Y-50710000D01*
X154290001Y-139290000D01*
G04 #@! TD*
M02*
