G04 #@! TF.GenerationSoftware,KiCad,Pcbnew,(5.0.0)*
G04 #@! TF.CreationDate,2020-08-07T11:04:04-05:00*
G04 #@! TF.ProjectId,Church Controller,43687572636820436F6E74726F6C6C65,rev?*
G04 #@! TF.SameCoordinates,Original*
G04 #@! TF.FileFunction,Copper,L1,Top,Signal*
G04 #@! TF.FilePolarity,Positive*
%FSLAX46Y46*%
G04 Gerber Fmt 4.6, Leading zero omitted, Abs format (unit mm)*
G04 Created by KiCad (PCBNEW (5.0.0)) date 08/07/20 11:04:04*
%MOMM*%
%LPD*%
G01*
G04 APERTURE LIST*
G04 #@! TA.AperFunction,Conductor*
%ADD10C,0.100000*%
G04 #@! TD*
G04 #@! TA.AperFunction,SMDPad,CuDef*
%ADD11C,0.950000*%
G04 #@! TD*
G04 #@! TA.AperFunction,ComponentPad*
%ADD12R,1.800000X1.800000*%
G04 #@! TD*
G04 #@! TA.AperFunction,ComponentPad*
%ADD13C,1.800000*%
G04 #@! TD*
G04 #@! TA.AperFunction,ComponentPad*
%ADD14R,1.700000X1.700000*%
G04 #@! TD*
G04 #@! TA.AperFunction,ComponentPad*
%ADD15O,1.700000X1.700000*%
G04 #@! TD*
G04 #@! TA.AperFunction,SMDPad,CuDef*
%ADD16C,1.150000*%
G04 #@! TD*
G04 #@! TA.AperFunction,ComponentPad*
%ADD17C,2.000000*%
G04 #@! TD*
G04 #@! TA.AperFunction,SMDPad,CuDef*
%ADD18R,3.800000X2.000000*%
G04 #@! TD*
G04 #@! TA.AperFunction,SMDPad,CuDef*
%ADD19R,1.500000X2.000000*%
G04 #@! TD*
G04 #@! TA.AperFunction,SMDPad,CuDef*
%ADD20R,1.000000X2.500000*%
G04 #@! TD*
G04 #@! TA.AperFunction,SMDPad,CuDef*
%ADD21R,1.800000X1.000000*%
G04 #@! TD*
G04 #@! TA.AperFunction,ViaPad*
%ADD22C,0.800000*%
G04 #@! TD*
G04 #@! TA.AperFunction,Conductor*
%ADD23C,1.000000*%
G04 #@! TD*
G04 #@! TA.AperFunction,Conductor*
%ADD24C,0.500000*%
G04 #@! TD*
G04 #@! TA.AperFunction,Conductor*
%ADD25C,0.254000*%
G04 #@! TD*
G04 APERTURE END LIST*
D10*
G04 #@! TO.N,VCC*
G04 #@! TO.C,C1*
G36*
X144310779Y-118526144D02*
X144333834Y-118529563D01*
X144356443Y-118535227D01*
X144378387Y-118543079D01*
X144399457Y-118553044D01*
X144419448Y-118565026D01*
X144438168Y-118578910D01*
X144455438Y-118594562D01*
X144471090Y-118611832D01*
X144484974Y-118630552D01*
X144496956Y-118650543D01*
X144506921Y-118671613D01*
X144514773Y-118693557D01*
X144520437Y-118716166D01*
X144523856Y-118739221D01*
X144525000Y-118762500D01*
X144525000Y-119237500D01*
X144523856Y-119260779D01*
X144520437Y-119283834D01*
X144514773Y-119306443D01*
X144506921Y-119328387D01*
X144496956Y-119349457D01*
X144484974Y-119369448D01*
X144471090Y-119388168D01*
X144455438Y-119405438D01*
X144438168Y-119421090D01*
X144419448Y-119434974D01*
X144399457Y-119446956D01*
X144378387Y-119456921D01*
X144356443Y-119464773D01*
X144333834Y-119470437D01*
X144310779Y-119473856D01*
X144287500Y-119475000D01*
X143712500Y-119475000D01*
X143689221Y-119473856D01*
X143666166Y-119470437D01*
X143643557Y-119464773D01*
X143621613Y-119456921D01*
X143600543Y-119446956D01*
X143580552Y-119434974D01*
X143561832Y-119421090D01*
X143544562Y-119405438D01*
X143528910Y-119388168D01*
X143515026Y-119369448D01*
X143503044Y-119349457D01*
X143493079Y-119328387D01*
X143485227Y-119306443D01*
X143479563Y-119283834D01*
X143476144Y-119260779D01*
X143475000Y-119237500D01*
X143475000Y-118762500D01*
X143476144Y-118739221D01*
X143479563Y-118716166D01*
X143485227Y-118693557D01*
X143493079Y-118671613D01*
X143503044Y-118650543D01*
X143515026Y-118630552D01*
X143528910Y-118611832D01*
X143544562Y-118594562D01*
X143561832Y-118578910D01*
X143580552Y-118565026D01*
X143600543Y-118553044D01*
X143621613Y-118543079D01*
X143643557Y-118535227D01*
X143666166Y-118529563D01*
X143689221Y-118526144D01*
X143712500Y-118525000D01*
X144287500Y-118525000D01*
X144310779Y-118526144D01*
X144310779Y-118526144D01*
G37*
D11*
G04 #@! TD*
G04 #@! TO.P,C1,2*
G04 #@! TO.N,VCC*
X144000000Y-119000000D03*
D10*
G04 #@! TO.N,GND*
G04 #@! TO.C,C1*
G36*
X146060779Y-118526144D02*
X146083834Y-118529563D01*
X146106443Y-118535227D01*
X146128387Y-118543079D01*
X146149457Y-118553044D01*
X146169448Y-118565026D01*
X146188168Y-118578910D01*
X146205438Y-118594562D01*
X146221090Y-118611832D01*
X146234974Y-118630552D01*
X146246956Y-118650543D01*
X146256921Y-118671613D01*
X146264773Y-118693557D01*
X146270437Y-118716166D01*
X146273856Y-118739221D01*
X146275000Y-118762500D01*
X146275000Y-119237500D01*
X146273856Y-119260779D01*
X146270437Y-119283834D01*
X146264773Y-119306443D01*
X146256921Y-119328387D01*
X146246956Y-119349457D01*
X146234974Y-119369448D01*
X146221090Y-119388168D01*
X146205438Y-119405438D01*
X146188168Y-119421090D01*
X146169448Y-119434974D01*
X146149457Y-119446956D01*
X146128387Y-119456921D01*
X146106443Y-119464773D01*
X146083834Y-119470437D01*
X146060779Y-119473856D01*
X146037500Y-119475000D01*
X145462500Y-119475000D01*
X145439221Y-119473856D01*
X145416166Y-119470437D01*
X145393557Y-119464773D01*
X145371613Y-119456921D01*
X145350543Y-119446956D01*
X145330552Y-119434974D01*
X145311832Y-119421090D01*
X145294562Y-119405438D01*
X145278910Y-119388168D01*
X145265026Y-119369448D01*
X145253044Y-119349457D01*
X145243079Y-119328387D01*
X145235227Y-119306443D01*
X145229563Y-119283834D01*
X145226144Y-119260779D01*
X145225000Y-119237500D01*
X145225000Y-118762500D01*
X145226144Y-118739221D01*
X145229563Y-118716166D01*
X145235227Y-118693557D01*
X145243079Y-118671613D01*
X145253044Y-118650543D01*
X145265026Y-118630552D01*
X145278910Y-118611832D01*
X145294562Y-118594562D01*
X145311832Y-118578910D01*
X145330552Y-118565026D01*
X145350543Y-118553044D01*
X145371613Y-118543079D01*
X145393557Y-118535227D01*
X145416166Y-118529563D01*
X145439221Y-118526144D01*
X145462500Y-118525000D01*
X146037500Y-118525000D01*
X146060779Y-118526144D01*
X146060779Y-118526144D01*
G37*
D11*
G04 #@! TD*
G04 #@! TO.P,C1,1*
G04 #@! TO.N,GND*
X145750000Y-119000000D03*
D10*
G04 #@! TO.N,GND*
G04 #@! TO.C,C2*
G36*
X151260779Y-124726144D02*
X151283834Y-124729563D01*
X151306443Y-124735227D01*
X151328387Y-124743079D01*
X151349457Y-124753044D01*
X151369448Y-124765026D01*
X151388168Y-124778910D01*
X151405438Y-124794562D01*
X151421090Y-124811832D01*
X151434974Y-124830552D01*
X151446956Y-124850543D01*
X151456921Y-124871613D01*
X151464773Y-124893557D01*
X151470437Y-124916166D01*
X151473856Y-124939221D01*
X151475000Y-124962500D01*
X151475000Y-125537500D01*
X151473856Y-125560779D01*
X151470437Y-125583834D01*
X151464773Y-125606443D01*
X151456921Y-125628387D01*
X151446956Y-125649457D01*
X151434974Y-125669448D01*
X151421090Y-125688168D01*
X151405438Y-125705438D01*
X151388168Y-125721090D01*
X151369448Y-125734974D01*
X151349457Y-125746956D01*
X151328387Y-125756921D01*
X151306443Y-125764773D01*
X151283834Y-125770437D01*
X151260779Y-125773856D01*
X151237500Y-125775000D01*
X150762500Y-125775000D01*
X150739221Y-125773856D01*
X150716166Y-125770437D01*
X150693557Y-125764773D01*
X150671613Y-125756921D01*
X150650543Y-125746956D01*
X150630552Y-125734974D01*
X150611832Y-125721090D01*
X150594562Y-125705438D01*
X150578910Y-125688168D01*
X150565026Y-125669448D01*
X150553044Y-125649457D01*
X150543079Y-125628387D01*
X150535227Y-125606443D01*
X150529563Y-125583834D01*
X150526144Y-125560779D01*
X150525000Y-125537500D01*
X150525000Y-124962500D01*
X150526144Y-124939221D01*
X150529563Y-124916166D01*
X150535227Y-124893557D01*
X150543079Y-124871613D01*
X150553044Y-124850543D01*
X150565026Y-124830552D01*
X150578910Y-124811832D01*
X150594562Y-124794562D01*
X150611832Y-124778910D01*
X150630552Y-124765026D01*
X150650543Y-124753044D01*
X150671613Y-124743079D01*
X150693557Y-124735227D01*
X150716166Y-124729563D01*
X150739221Y-124726144D01*
X150762500Y-124725000D01*
X151237500Y-124725000D01*
X151260779Y-124726144D01*
X151260779Y-124726144D01*
G37*
D11*
G04 #@! TD*
G04 #@! TO.P,C2,1*
G04 #@! TO.N,GND*
X151000000Y-125250000D03*
D10*
G04 #@! TO.N,+3V3*
G04 #@! TO.C,C2*
G36*
X151260779Y-126476144D02*
X151283834Y-126479563D01*
X151306443Y-126485227D01*
X151328387Y-126493079D01*
X151349457Y-126503044D01*
X151369448Y-126515026D01*
X151388168Y-126528910D01*
X151405438Y-126544562D01*
X151421090Y-126561832D01*
X151434974Y-126580552D01*
X151446956Y-126600543D01*
X151456921Y-126621613D01*
X151464773Y-126643557D01*
X151470437Y-126666166D01*
X151473856Y-126689221D01*
X151475000Y-126712500D01*
X151475000Y-127287500D01*
X151473856Y-127310779D01*
X151470437Y-127333834D01*
X151464773Y-127356443D01*
X151456921Y-127378387D01*
X151446956Y-127399457D01*
X151434974Y-127419448D01*
X151421090Y-127438168D01*
X151405438Y-127455438D01*
X151388168Y-127471090D01*
X151369448Y-127484974D01*
X151349457Y-127496956D01*
X151328387Y-127506921D01*
X151306443Y-127514773D01*
X151283834Y-127520437D01*
X151260779Y-127523856D01*
X151237500Y-127525000D01*
X150762500Y-127525000D01*
X150739221Y-127523856D01*
X150716166Y-127520437D01*
X150693557Y-127514773D01*
X150671613Y-127506921D01*
X150650543Y-127496956D01*
X150630552Y-127484974D01*
X150611832Y-127471090D01*
X150594562Y-127455438D01*
X150578910Y-127438168D01*
X150565026Y-127419448D01*
X150553044Y-127399457D01*
X150543079Y-127378387D01*
X150535227Y-127356443D01*
X150529563Y-127333834D01*
X150526144Y-127310779D01*
X150525000Y-127287500D01*
X150525000Y-126712500D01*
X150526144Y-126689221D01*
X150529563Y-126666166D01*
X150535227Y-126643557D01*
X150543079Y-126621613D01*
X150553044Y-126600543D01*
X150565026Y-126580552D01*
X150578910Y-126561832D01*
X150594562Y-126544562D01*
X150611832Y-126528910D01*
X150630552Y-126515026D01*
X150650543Y-126503044D01*
X150671613Y-126493079D01*
X150693557Y-126485227D01*
X150716166Y-126479563D01*
X150739221Y-126476144D01*
X150762500Y-126475000D01*
X151237500Y-126475000D01*
X151260779Y-126476144D01*
X151260779Y-126476144D01*
G37*
D11*
G04 #@! TD*
G04 #@! TO.P,C2,2*
G04 #@! TO.N,+3V3*
X151000000Y-127000000D03*
D10*
G04 #@! TO.N,GND*
G04 #@! TO.C,C3*
G36*
X120760779Y-71976144D02*
X120783834Y-71979563D01*
X120806443Y-71985227D01*
X120828387Y-71993079D01*
X120849457Y-72003044D01*
X120869448Y-72015026D01*
X120888168Y-72028910D01*
X120905438Y-72044562D01*
X120921090Y-72061832D01*
X120934974Y-72080552D01*
X120946956Y-72100543D01*
X120956921Y-72121613D01*
X120964773Y-72143557D01*
X120970437Y-72166166D01*
X120973856Y-72189221D01*
X120975000Y-72212500D01*
X120975000Y-72787500D01*
X120973856Y-72810779D01*
X120970437Y-72833834D01*
X120964773Y-72856443D01*
X120956921Y-72878387D01*
X120946956Y-72899457D01*
X120934974Y-72919448D01*
X120921090Y-72938168D01*
X120905438Y-72955438D01*
X120888168Y-72971090D01*
X120869448Y-72984974D01*
X120849457Y-72996956D01*
X120828387Y-73006921D01*
X120806443Y-73014773D01*
X120783834Y-73020437D01*
X120760779Y-73023856D01*
X120737500Y-73025000D01*
X120262500Y-73025000D01*
X120239221Y-73023856D01*
X120216166Y-73020437D01*
X120193557Y-73014773D01*
X120171613Y-73006921D01*
X120150543Y-72996956D01*
X120130552Y-72984974D01*
X120111832Y-72971090D01*
X120094562Y-72955438D01*
X120078910Y-72938168D01*
X120065026Y-72919448D01*
X120053044Y-72899457D01*
X120043079Y-72878387D01*
X120035227Y-72856443D01*
X120029563Y-72833834D01*
X120026144Y-72810779D01*
X120025000Y-72787500D01*
X120025000Y-72212500D01*
X120026144Y-72189221D01*
X120029563Y-72166166D01*
X120035227Y-72143557D01*
X120043079Y-72121613D01*
X120053044Y-72100543D01*
X120065026Y-72080552D01*
X120078910Y-72061832D01*
X120094562Y-72044562D01*
X120111832Y-72028910D01*
X120130552Y-72015026D01*
X120150543Y-72003044D01*
X120171613Y-71993079D01*
X120193557Y-71985227D01*
X120216166Y-71979563D01*
X120239221Y-71976144D01*
X120262500Y-71975000D01*
X120737500Y-71975000D01*
X120760779Y-71976144D01*
X120760779Y-71976144D01*
G37*
D11*
G04 #@! TD*
G04 #@! TO.P,C3,1*
G04 #@! TO.N,GND*
X120500000Y-72500000D03*
D10*
G04 #@! TO.N,+3V3*
G04 #@! TO.C,C3*
G36*
X120760779Y-73726144D02*
X120783834Y-73729563D01*
X120806443Y-73735227D01*
X120828387Y-73743079D01*
X120849457Y-73753044D01*
X120869448Y-73765026D01*
X120888168Y-73778910D01*
X120905438Y-73794562D01*
X120921090Y-73811832D01*
X120934974Y-73830552D01*
X120946956Y-73850543D01*
X120956921Y-73871613D01*
X120964773Y-73893557D01*
X120970437Y-73916166D01*
X120973856Y-73939221D01*
X120975000Y-73962500D01*
X120975000Y-74537500D01*
X120973856Y-74560779D01*
X120970437Y-74583834D01*
X120964773Y-74606443D01*
X120956921Y-74628387D01*
X120946956Y-74649457D01*
X120934974Y-74669448D01*
X120921090Y-74688168D01*
X120905438Y-74705438D01*
X120888168Y-74721090D01*
X120869448Y-74734974D01*
X120849457Y-74746956D01*
X120828387Y-74756921D01*
X120806443Y-74764773D01*
X120783834Y-74770437D01*
X120760779Y-74773856D01*
X120737500Y-74775000D01*
X120262500Y-74775000D01*
X120239221Y-74773856D01*
X120216166Y-74770437D01*
X120193557Y-74764773D01*
X120171613Y-74756921D01*
X120150543Y-74746956D01*
X120130552Y-74734974D01*
X120111832Y-74721090D01*
X120094562Y-74705438D01*
X120078910Y-74688168D01*
X120065026Y-74669448D01*
X120053044Y-74649457D01*
X120043079Y-74628387D01*
X120035227Y-74606443D01*
X120029563Y-74583834D01*
X120026144Y-74560779D01*
X120025000Y-74537500D01*
X120025000Y-73962500D01*
X120026144Y-73939221D01*
X120029563Y-73916166D01*
X120035227Y-73893557D01*
X120043079Y-73871613D01*
X120053044Y-73850543D01*
X120065026Y-73830552D01*
X120078910Y-73811832D01*
X120094562Y-73794562D01*
X120111832Y-73778910D01*
X120130552Y-73765026D01*
X120150543Y-73753044D01*
X120171613Y-73743079D01*
X120193557Y-73735227D01*
X120216166Y-73729563D01*
X120239221Y-73726144D01*
X120262500Y-73725000D01*
X120737500Y-73725000D01*
X120760779Y-73726144D01*
X120760779Y-73726144D01*
G37*
D11*
G04 #@! TD*
G04 #@! TO.P,C3,2*
G04 #@! TO.N,+3V3*
X120500000Y-74250000D03*
D10*
G04 #@! TO.N,+3V3*
G04 #@! TO.C,C4*
G36*
X118260779Y-73726144D02*
X118283834Y-73729563D01*
X118306443Y-73735227D01*
X118328387Y-73743079D01*
X118349457Y-73753044D01*
X118369448Y-73765026D01*
X118388168Y-73778910D01*
X118405438Y-73794562D01*
X118421090Y-73811832D01*
X118434974Y-73830552D01*
X118446956Y-73850543D01*
X118456921Y-73871613D01*
X118464773Y-73893557D01*
X118470437Y-73916166D01*
X118473856Y-73939221D01*
X118475000Y-73962500D01*
X118475000Y-74537500D01*
X118473856Y-74560779D01*
X118470437Y-74583834D01*
X118464773Y-74606443D01*
X118456921Y-74628387D01*
X118446956Y-74649457D01*
X118434974Y-74669448D01*
X118421090Y-74688168D01*
X118405438Y-74705438D01*
X118388168Y-74721090D01*
X118369448Y-74734974D01*
X118349457Y-74746956D01*
X118328387Y-74756921D01*
X118306443Y-74764773D01*
X118283834Y-74770437D01*
X118260779Y-74773856D01*
X118237500Y-74775000D01*
X117762500Y-74775000D01*
X117739221Y-74773856D01*
X117716166Y-74770437D01*
X117693557Y-74764773D01*
X117671613Y-74756921D01*
X117650543Y-74746956D01*
X117630552Y-74734974D01*
X117611832Y-74721090D01*
X117594562Y-74705438D01*
X117578910Y-74688168D01*
X117565026Y-74669448D01*
X117553044Y-74649457D01*
X117543079Y-74628387D01*
X117535227Y-74606443D01*
X117529563Y-74583834D01*
X117526144Y-74560779D01*
X117525000Y-74537500D01*
X117525000Y-73962500D01*
X117526144Y-73939221D01*
X117529563Y-73916166D01*
X117535227Y-73893557D01*
X117543079Y-73871613D01*
X117553044Y-73850543D01*
X117565026Y-73830552D01*
X117578910Y-73811832D01*
X117594562Y-73794562D01*
X117611832Y-73778910D01*
X117630552Y-73765026D01*
X117650543Y-73753044D01*
X117671613Y-73743079D01*
X117693557Y-73735227D01*
X117716166Y-73729563D01*
X117739221Y-73726144D01*
X117762500Y-73725000D01*
X118237500Y-73725000D01*
X118260779Y-73726144D01*
X118260779Y-73726144D01*
G37*
D11*
G04 #@! TD*
G04 #@! TO.P,C4,2*
G04 #@! TO.N,+3V3*
X118000000Y-74250000D03*
D10*
G04 #@! TO.N,GND*
G04 #@! TO.C,C4*
G36*
X118260779Y-71976144D02*
X118283834Y-71979563D01*
X118306443Y-71985227D01*
X118328387Y-71993079D01*
X118349457Y-72003044D01*
X118369448Y-72015026D01*
X118388168Y-72028910D01*
X118405438Y-72044562D01*
X118421090Y-72061832D01*
X118434974Y-72080552D01*
X118446956Y-72100543D01*
X118456921Y-72121613D01*
X118464773Y-72143557D01*
X118470437Y-72166166D01*
X118473856Y-72189221D01*
X118475000Y-72212500D01*
X118475000Y-72787500D01*
X118473856Y-72810779D01*
X118470437Y-72833834D01*
X118464773Y-72856443D01*
X118456921Y-72878387D01*
X118446956Y-72899457D01*
X118434974Y-72919448D01*
X118421090Y-72938168D01*
X118405438Y-72955438D01*
X118388168Y-72971090D01*
X118369448Y-72984974D01*
X118349457Y-72996956D01*
X118328387Y-73006921D01*
X118306443Y-73014773D01*
X118283834Y-73020437D01*
X118260779Y-73023856D01*
X118237500Y-73025000D01*
X117762500Y-73025000D01*
X117739221Y-73023856D01*
X117716166Y-73020437D01*
X117693557Y-73014773D01*
X117671613Y-73006921D01*
X117650543Y-72996956D01*
X117630552Y-72984974D01*
X117611832Y-72971090D01*
X117594562Y-72955438D01*
X117578910Y-72938168D01*
X117565026Y-72919448D01*
X117553044Y-72899457D01*
X117543079Y-72878387D01*
X117535227Y-72856443D01*
X117529563Y-72833834D01*
X117526144Y-72810779D01*
X117525000Y-72787500D01*
X117525000Y-72212500D01*
X117526144Y-72189221D01*
X117529563Y-72166166D01*
X117535227Y-72143557D01*
X117543079Y-72121613D01*
X117553044Y-72100543D01*
X117565026Y-72080552D01*
X117578910Y-72061832D01*
X117594562Y-72044562D01*
X117611832Y-72028910D01*
X117630552Y-72015026D01*
X117650543Y-72003044D01*
X117671613Y-71993079D01*
X117693557Y-71985227D01*
X117716166Y-71979563D01*
X117739221Y-71976144D01*
X117762500Y-71975000D01*
X118237500Y-71975000D01*
X118260779Y-71976144D01*
X118260779Y-71976144D01*
G37*
D11*
G04 #@! TD*
G04 #@! TO.P,C4,1*
G04 #@! TO.N,GND*
X118000000Y-72500000D03*
D10*
G04 #@! TO.N,GND*
G04 #@! TO.C,C5*
G36*
X115760779Y-71973979D02*
X115783834Y-71977398D01*
X115806443Y-71983062D01*
X115828387Y-71990914D01*
X115849457Y-72000879D01*
X115869448Y-72012861D01*
X115888168Y-72026745D01*
X115905438Y-72042397D01*
X115921090Y-72059667D01*
X115934974Y-72078387D01*
X115946956Y-72098378D01*
X115956921Y-72119448D01*
X115964773Y-72141392D01*
X115970437Y-72164001D01*
X115973856Y-72187056D01*
X115975000Y-72210335D01*
X115975000Y-72785335D01*
X115973856Y-72808614D01*
X115970437Y-72831669D01*
X115964773Y-72854278D01*
X115956921Y-72876222D01*
X115946956Y-72897292D01*
X115934974Y-72917283D01*
X115921090Y-72936003D01*
X115905438Y-72953273D01*
X115888168Y-72968925D01*
X115869448Y-72982809D01*
X115849457Y-72994791D01*
X115828387Y-73004756D01*
X115806443Y-73012608D01*
X115783834Y-73018272D01*
X115760779Y-73021691D01*
X115737500Y-73022835D01*
X115262500Y-73022835D01*
X115239221Y-73021691D01*
X115216166Y-73018272D01*
X115193557Y-73012608D01*
X115171613Y-73004756D01*
X115150543Y-72994791D01*
X115130552Y-72982809D01*
X115111832Y-72968925D01*
X115094562Y-72953273D01*
X115078910Y-72936003D01*
X115065026Y-72917283D01*
X115053044Y-72897292D01*
X115043079Y-72876222D01*
X115035227Y-72854278D01*
X115029563Y-72831669D01*
X115026144Y-72808614D01*
X115025000Y-72785335D01*
X115025000Y-72210335D01*
X115026144Y-72187056D01*
X115029563Y-72164001D01*
X115035227Y-72141392D01*
X115043079Y-72119448D01*
X115053044Y-72098378D01*
X115065026Y-72078387D01*
X115078910Y-72059667D01*
X115094562Y-72042397D01*
X115111832Y-72026745D01*
X115130552Y-72012861D01*
X115150543Y-72000879D01*
X115171613Y-71990914D01*
X115193557Y-71983062D01*
X115216166Y-71977398D01*
X115239221Y-71973979D01*
X115262500Y-71972835D01*
X115737500Y-71972835D01*
X115760779Y-71973979D01*
X115760779Y-71973979D01*
G37*
D11*
G04 #@! TD*
G04 #@! TO.P,C5,1*
G04 #@! TO.N,GND*
X115500000Y-72497835D03*
D10*
G04 #@! TO.N,+3V3*
G04 #@! TO.C,C5*
G36*
X115760779Y-73723979D02*
X115783834Y-73727398D01*
X115806443Y-73733062D01*
X115828387Y-73740914D01*
X115849457Y-73750879D01*
X115869448Y-73762861D01*
X115888168Y-73776745D01*
X115905438Y-73792397D01*
X115921090Y-73809667D01*
X115934974Y-73828387D01*
X115946956Y-73848378D01*
X115956921Y-73869448D01*
X115964773Y-73891392D01*
X115970437Y-73914001D01*
X115973856Y-73937056D01*
X115975000Y-73960335D01*
X115975000Y-74535335D01*
X115973856Y-74558614D01*
X115970437Y-74581669D01*
X115964773Y-74604278D01*
X115956921Y-74626222D01*
X115946956Y-74647292D01*
X115934974Y-74667283D01*
X115921090Y-74686003D01*
X115905438Y-74703273D01*
X115888168Y-74718925D01*
X115869448Y-74732809D01*
X115849457Y-74744791D01*
X115828387Y-74754756D01*
X115806443Y-74762608D01*
X115783834Y-74768272D01*
X115760779Y-74771691D01*
X115737500Y-74772835D01*
X115262500Y-74772835D01*
X115239221Y-74771691D01*
X115216166Y-74768272D01*
X115193557Y-74762608D01*
X115171613Y-74754756D01*
X115150543Y-74744791D01*
X115130552Y-74732809D01*
X115111832Y-74718925D01*
X115094562Y-74703273D01*
X115078910Y-74686003D01*
X115065026Y-74667283D01*
X115053044Y-74647292D01*
X115043079Y-74626222D01*
X115035227Y-74604278D01*
X115029563Y-74581669D01*
X115026144Y-74558614D01*
X115025000Y-74535335D01*
X115025000Y-73960335D01*
X115026144Y-73937056D01*
X115029563Y-73914001D01*
X115035227Y-73891392D01*
X115043079Y-73869448D01*
X115053044Y-73848378D01*
X115065026Y-73828387D01*
X115078910Y-73809667D01*
X115094562Y-73792397D01*
X115111832Y-73776745D01*
X115130552Y-73762861D01*
X115150543Y-73750879D01*
X115171613Y-73740914D01*
X115193557Y-73733062D01*
X115216166Y-73727398D01*
X115239221Y-73723979D01*
X115262500Y-73722835D01*
X115737500Y-73722835D01*
X115760779Y-73723979D01*
X115760779Y-73723979D01*
G37*
D11*
G04 #@! TD*
G04 #@! TO.P,C5,2*
G04 #@! TO.N,+3V3*
X115500000Y-74247835D03*
D12*
G04 #@! TO.P,D1,1*
G04 #@! TO.N,Net-(D1-Pad1)*
X117000000Y-61000000D03*
D13*
G04 #@! TO.P,D1,2*
G04 #@! TO.N,+3V3*
X119540000Y-61000000D03*
G04 #@! TD*
D12*
G04 #@! TO.P,D2,1*
G04 #@! TO.N,Net-(D2-Pad1)*
X128000000Y-61000000D03*
D13*
G04 #@! TO.P,D2,2*
G04 #@! TO.N,+3V3*
X130540000Y-61000000D03*
G04 #@! TD*
G04 #@! TO.P,D3,2*
G04 #@! TO.N,+3V3*
X141540000Y-61000000D03*
D12*
G04 #@! TO.P,D3,1*
G04 #@! TO.N,Net-(D3-Pad1)*
X139000000Y-61000000D03*
G04 #@! TD*
D13*
G04 #@! TO.P,D4,2*
G04 #@! TO.N,+3V3*
X131540000Y-125000000D03*
D12*
G04 #@! TO.P,D4,1*
G04 #@! TO.N,Net-(D4-Pad1)*
X129000000Y-125000000D03*
G04 #@! TD*
D14*
G04 #@! TO.P,J1,1*
G04 #@! TO.N,GND*
X150000000Y-113460000D03*
D15*
G04 #@! TO.P,J1,2*
G04 #@! TO.N,VCC*
X150000000Y-116000000D03*
G04 #@! TD*
D10*
G04 #@! TO.N,Net-(R1-Pad2)*
G04 #@! TO.C,R1*
G36*
X139324505Y-73551204D02*
X139348773Y-73554804D01*
X139372572Y-73560765D01*
X139395671Y-73569030D01*
X139417850Y-73579520D01*
X139438893Y-73592132D01*
X139458599Y-73606747D01*
X139476777Y-73623223D01*
X139493253Y-73641401D01*
X139507868Y-73661107D01*
X139520480Y-73682150D01*
X139530970Y-73704329D01*
X139539235Y-73727428D01*
X139545196Y-73751227D01*
X139548796Y-73775495D01*
X139550000Y-73799999D01*
X139550000Y-74700001D01*
X139548796Y-74724505D01*
X139545196Y-74748773D01*
X139539235Y-74772572D01*
X139530970Y-74795671D01*
X139520480Y-74817850D01*
X139507868Y-74838893D01*
X139493253Y-74858599D01*
X139476777Y-74876777D01*
X139458599Y-74893253D01*
X139438893Y-74907868D01*
X139417850Y-74920480D01*
X139395671Y-74930970D01*
X139372572Y-74939235D01*
X139348773Y-74945196D01*
X139324505Y-74948796D01*
X139300001Y-74950000D01*
X138649999Y-74950000D01*
X138625495Y-74948796D01*
X138601227Y-74945196D01*
X138577428Y-74939235D01*
X138554329Y-74930970D01*
X138532150Y-74920480D01*
X138511107Y-74907868D01*
X138491401Y-74893253D01*
X138473223Y-74876777D01*
X138456747Y-74858599D01*
X138442132Y-74838893D01*
X138429520Y-74817850D01*
X138419030Y-74795671D01*
X138410765Y-74772572D01*
X138404804Y-74748773D01*
X138401204Y-74724505D01*
X138400000Y-74700001D01*
X138400000Y-73799999D01*
X138401204Y-73775495D01*
X138404804Y-73751227D01*
X138410765Y-73727428D01*
X138419030Y-73704329D01*
X138429520Y-73682150D01*
X138442132Y-73661107D01*
X138456747Y-73641401D01*
X138473223Y-73623223D01*
X138491401Y-73606747D01*
X138511107Y-73592132D01*
X138532150Y-73579520D01*
X138554329Y-73569030D01*
X138577428Y-73560765D01*
X138601227Y-73554804D01*
X138625495Y-73551204D01*
X138649999Y-73550000D01*
X139300001Y-73550000D01*
X139324505Y-73551204D01*
X139324505Y-73551204D01*
G37*
D16*
G04 #@! TD*
G04 #@! TO.P,R1,2*
G04 #@! TO.N,Net-(R1-Pad2)*
X138975000Y-74250000D03*
D10*
G04 #@! TO.N,+3V3*
G04 #@! TO.C,R1*
G36*
X141374505Y-73551204D02*
X141398773Y-73554804D01*
X141422572Y-73560765D01*
X141445671Y-73569030D01*
X141467850Y-73579520D01*
X141488893Y-73592132D01*
X141508599Y-73606747D01*
X141526777Y-73623223D01*
X141543253Y-73641401D01*
X141557868Y-73661107D01*
X141570480Y-73682150D01*
X141580970Y-73704329D01*
X141589235Y-73727428D01*
X141595196Y-73751227D01*
X141598796Y-73775495D01*
X141600000Y-73799999D01*
X141600000Y-74700001D01*
X141598796Y-74724505D01*
X141595196Y-74748773D01*
X141589235Y-74772572D01*
X141580970Y-74795671D01*
X141570480Y-74817850D01*
X141557868Y-74838893D01*
X141543253Y-74858599D01*
X141526777Y-74876777D01*
X141508599Y-74893253D01*
X141488893Y-74907868D01*
X141467850Y-74920480D01*
X141445671Y-74930970D01*
X141422572Y-74939235D01*
X141398773Y-74945196D01*
X141374505Y-74948796D01*
X141350001Y-74950000D01*
X140699999Y-74950000D01*
X140675495Y-74948796D01*
X140651227Y-74945196D01*
X140627428Y-74939235D01*
X140604329Y-74930970D01*
X140582150Y-74920480D01*
X140561107Y-74907868D01*
X140541401Y-74893253D01*
X140523223Y-74876777D01*
X140506747Y-74858599D01*
X140492132Y-74838893D01*
X140479520Y-74817850D01*
X140469030Y-74795671D01*
X140460765Y-74772572D01*
X140454804Y-74748773D01*
X140451204Y-74724505D01*
X140450000Y-74700001D01*
X140450000Y-73799999D01*
X140451204Y-73775495D01*
X140454804Y-73751227D01*
X140460765Y-73727428D01*
X140469030Y-73704329D01*
X140479520Y-73682150D01*
X140492132Y-73661107D01*
X140506747Y-73641401D01*
X140523223Y-73623223D01*
X140541401Y-73606747D01*
X140561107Y-73592132D01*
X140582150Y-73579520D01*
X140604329Y-73569030D01*
X140627428Y-73560765D01*
X140651227Y-73554804D01*
X140675495Y-73551204D01*
X140699999Y-73550000D01*
X141350001Y-73550000D01*
X141374505Y-73551204D01*
X141374505Y-73551204D01*
G37*
D16*
G04 #@! TD*
G04 #@! TO.P,R1,1*
G04 #@! TO.N,+3V3*
X141025000Y-74250000D03*
D10*
G04 #@! TO.N,Net-(R3-Pad1)*
G04 #@! TO.C,R3*
G36*
X123474505Y-97426204D02*
X123498773Y-97429804D01*
X123522572Y-97435765D01*
X123545671Y-97444030D01*
X123567850Y-97454520D01*
X123588893Y-97467132D01*
X123608599Y-97481747D01*
X123626777Y-97498223D01*
X123643253Y-97516401D01*
X123657868Y-97536107D01*
X123670480Y-97557150D01*
X123680970Y-97579329D01*
X123689235Y-97602428D01*
X123695196Y-97626227D01*
X123698796Y-97650495D01*
X123700000Y-97674999D01*
X123700000Y-98325001D01*
X123698796Y-98349505D01*
X123695196Y-98373773D01*
X123689235Y-98397572D01*
X123680970Y-98420671D01*
X123670480Y-98442850D01*
X123657868Y-98463893D01*
X123643253Y-98483599D01*
X123626777Y-98501777D01*
X123608599Y-98518253D01*
X123588893Y-98532868D01*
X123567850Y-98545480D01*
X123545671Y-98555970D01*
X123522572Y-98564235D01*
X123498773Y-98570196D01*
X123474505Y-98573796D01*
X123450001Y-98575000D01*
X122549999Y-98575000D01*
X122525495Y-98573796D01*
X122501227Y-98570196D01*
X122477428Y-98564235D01*
X122454329Y-98555970D01*
X122432150Y-98545480D01*
X122411107Y-98532868D01*
X122391401Y-98518253D01*
X122373223Y-98501777D01*
X122356747Y-98483599D01*
X122342132Y-98463893D01*
X122329520Y-98442850D01*
X122319030Y-98420671D01*
X122310765Y-98397572D01*
X122304804Y-98373773D01*
X122301204Y-98349505D01*
X122300000Y-98325001D01*
X122300000Y-97674999D01*
X122301204Y-97650495D01*
X122304804Y-97626227D01*
X122310765Y-97602428D01*
X122319030Y-97579329D01*
X122329520Y-97557150D01*
X122342132Y-97536107D01*
X122356747Y-97516401D01*
X122373223Y-97498223D01*
X122391401Y-97481747D01*
X122411107Y-97467132D01*
X122432150Y-97454520D01*
X122454329Y-97444030D01*
X122477428Y-97435765D01*
X122501227Y-97429804D01*
X122525495Y-97426204D01*
X122549999Y-97425000D01*
X123450001Y-97425000D01*
X123474505Y-97426204D01*
X123474505Y-97426204D01*
G37*
D16*
G04 #@! TD*
G04 #@! TO.P,R3,1*
G04 #@! TO.N,Net-(R3-Pad1)*
X123000000Y-98000000D03*
D10*
G04 #@! TO.N,GND*
G04 #@! TO.C,R3*
G36*
X123474505Y-99476204D02*
X123498773Y-99479804D01*
X123522572Y-99485765D01*
X123545671Y-99494030D01*
X123567850Y-99504520D01*
X123588893Y-99517132D01*
X123608599Y-99531747D01*
X123626777Y-99548223D01*
X123643253Y-99566401D01*
X123657868Y-99586107D01*
X123670480Y-99607150D01*
X123680970Y-99629329D01*
X123689235Y-99652428D01*
X123695196Y-99676227D01*
X123698796Y-99700495D01*
X123700000Y-99724999D01*
X123700000Y-100375001D01*
X123698796Y-100399505D01*
X123695196Y-100423773D01*
X123689235Y-100447572D01*
X123680970Y-100470671D01*
X123670480Y-100492850D01*
X123657868Y-100513893D01*
X123643253Y-100533599D01*
X123626777Y-100551777D01*
X123608599Y-100568253D01*
X123588893Y-100582868D01*
X123567850Y-100595480D01*
X123545671Y-100605970D01*
X123522572Y-100614235D01*
X123498773Y-100620196D01*
X123474505Y-100623796D01*
X123450001Y-100625000D01*
X122549999Y-100625000D01*
X122525495Y-100623796D01*
X122501227Y-100620196D01*
X122477428Y-100614235D01*
X122454329Y-100605970D01*
X122432150Y-100595480D01*
X122411107Y-100582868D01*
X122391401Y-100568253D01*
X122373223Y-100551777D01*
X122356747Y-100533599D01*
X122342132Y-100513893D01*
X122329520Y-100492850D01*
X122319030Y-100470671D01*
X122310765Y-100447572D01*
X122304804Y-100423773D01*
X122301204Y-100399505D01*
X122300000Y-100375001D01*
X122300000Y-99724999D01*
X122301204Y-99700495D01*
X122304804Y-99676227D01*
X122310765Y-99652428D01*
X122319030Y-99629329D01*
X122329520Y-99607150D01*
X122342132Y-99586107D01*
X122356747Y-99566401D01*
X122373223Y-99548223D01*
X122391401Y-99531747D01*
X122411107Y-99517132D01*
X122432150Y-99504520D01*
X122454329Y-99494030D01*
X122477428Y-99485765D01*
X122501227Y-99479804D01*
X122525495Y-99476204D01*
X122549999Y-99475000D01*
X123450001Y-99475000D01*
X123474505Y-99476204D01*
X123474505Y-99476204D01*
G37*
D16*
G04 #@! TD*
G04 #@! TO.P,R3,2*
G04 #@! TO.N,GND*
X123000000Y-100050000D03*
D10*
G04 #@! TO.N,+3V3*
G04 #@! TO.C,R4*
G36*
X126474505Y-99426204D02*
X126498773Y-99429804D01*
X126522572Y-99435765D01*
X126545671Y-99444030D01*
X126567850Y-99454520D01*
X126588893Y-99467132D01*
X126608599Y-99481747D01*
X126626777Y-99498223D01*
X126643253Y-99516401D01*
X126657868Y-99536107D01*
X126670480Y-99557150D01*
X126680970Y-99579329D01*
X126689235Y-99602428D01*
X126695196Y-99626227D01*
X126698796Y-99650495D01*
X126700000Y-99674999D01*
X126700000Y-100325001D01*
X126698796Y-100349505D01*
X126695196Y-100373773D01*
X126689235Y-100397572D01*
X126680970Y-100420671D01*
X126670480Y-100442850D01*
X126657868Y-100463893D01*
X126643253Y-100483599D01*
X126626777Y-100501777D01*
X126608599Y-100518253D01*
X126588893Y-100532868D01*
X126567850Y-100545480D01*
X126545671Y-100555970D01*
X126522572Y-100564235D01*
X126498773Y-100570196D01*
X126474505Y-100573796D01*
X126450001Y-100575000D01*
X125549999Y-100575000D01*
X125525495Y-100573796D01*
X125501227Y-100570196D01*
X125477428Y-100564235D01*
X125454329Y-100555970D01*
X125432150Y-100545480D01*
X125411107Y-100532868D01*
X125391401Y-100518253D01*
X125373223Y-100501777D01*
X125356747Y-100483599D01*
X125342132Y-100463893D01*
X125329520Y-100442850D01*
X125319030Y-100420671D01*
X125310765Y-100397572D01*
X125304804Y-100373773D01*
X125301204Y-100349505D01*
X125300000Y-100325001D01*
X125300000Y-99674999D01*
X125301204Y-99650495D01*
X125304804Y-99626227D01*
X125310765Y-99602428D01*
X125319030Y-99579329D01*
X125329520Y-99557150D01*
X125342132Y-99536107D01*
X125356747Y-99516401D01*
X125373223Y-99498223D01*
X125391401Y-99481747D01*
X125411107Y-99467132D01*
X125432150Y-99454520D01*
X125454329Y-99444030D01*
X125477428Y-99435765D01*
X125501227Y-99429804D01*
X125525495Y-99426204D01*
X125549999Y-99425000D01*
X126450001Y-99425000D01*
X126474505Y-99426204D01*
X126474505Y-99426204D01*
G37*
D16*
G04 #@! TD*
G04 #@! TO.P,R4,1*
G04 #@! TO.N,+3V3*
X126000000Y-100000000D03*
D10*
G04 #@! TO.N,Net-(R4-Pad2)*
G04 #@! TO.C,R4*
G36*
X126474505Y-97376204D02*
X126498773Y-97379804D01*
X126522572Y-97385765D01*
X126545671Y-97394030D01*
X126567850Y-97404520D01*
X126588893Y-97417132D01*
X126608599Y-97431747D01*
X126626777Y-97448223D01*
X126643253Y-97466401D01*
X126657868Y-97486107D01*
X126670480Y-97507150D01*
X126680970Y-97529329D01*
X126689235Y-97552428D01*
X126695196Y-97576227D01*
X126698796Y-97600495D01*
X126700000Y-97624999D01*
X126700000Y-98275001D01*
X126698796Y-98299505D01*
X126695196Y-98323773D01*
X126689235Y-98347572D01*
X126680970Y-98370671D01*
X126670480Y-98392850D01*
X126657868Y-98413893D01*
X126643253Y-98433599D01*
X126626777Y-98451777D01*
X126608599Y-98468253D01*
X126588893Y-98482868D01*
X126567850Y-98495480D01*
X126545671Y-98505970D01*
X126522572Y-98514235D01*
X126498773Y-98520196D01*
X126474505Y-98523796D01*
X126450001Y-98525000D01*
X125549999Y-98525000D01*
X125525495Y-98523796D01*
X125501227Y-98520196D01*
X125477428Y-98514235D01*
X125454329Y-98505970D01*
X125432150Y-98495480D01*
X125411107Y-98482868D01*
X125391401Y-98468253D01*
X125373223Y-98451777D01*
X125356747Y-98433599D01*
X125342132Y-98413893D01*
X125329520Y-98392850D01*
X125319030Y-98370671D01*
X125310765Y-98347572D01*
X125304804Y-98323773D01*
X125301204Y-98299505D01*
X125300000Y-98275001D01*
X125300000Y-97624999D01*
X125301204Y-97600495D01*
X125304804Y-97576227D01*
X125310765Y-97552428D01*
X125319030Y-97529329D01*
X125329520Y-97507150D01*
X125342132Y-97486107D01*
X125356747Y-97466401D01*
X125373223Y-97448223D01*
X125391401Y-97431747D01*
X125411107Y-97417132D01*
X125432150Y-97404520D01*
X125454329Y-97394030D01*
X125477428Y-97385765D01*
X125501227Y-97379804D01*
X125525495Y-97376204D01*
X125549999Y-97375000D01*
X126450001Y-97375000D01*
X126474505Y-97376204D01*
X126474505Y-97376204D01*
G37*
D16*
G04 #@! TD*
G04 #@! TO.P,R4,2*
G04 #@! TO.N,Net-(R4-Pad2)*
X126000000Y-97950000D03*
D10*
G04 #@! TO.N,Net-(D1-Pad1)*
G04 #@! TO.C,R5*
G36*
X117299505Y-66301204D02*
X117323773Y-66304804D01*
X117347572Y-66310765D01*
X117370671Y-66319030D01*
X117392850Y-66329520D01*
X117413893Y-66342132D01*
X117433599Y-66356747D01*
X117451777Y-66373223D01*
X117468253Y-66391401D01*
X117482868Y-66411107D01*
X117495480Y-66432150D01*
X117505970Y-66454329D01*
X117514235Y-66477428D01*
X117520196Y-66501227D01*
X117523796Y-66525495D01*
X117525000Y-66549999D01*
X117525000Y-67450001D01*
X117523796Y-67474505D01*
X117520196Y-67498773D01*
X117514235Y-67522572D01*
X117505970Y-67545671D01*
X117495480Y-67567850D01*
X117482868Y-67588893D01*
X117468253Y-67608599D01*
X117451777Y-67626777D01*
X117433599Y-67643253D01*
X117413893Y-67657868D01*
X117392850Y-67670480D01*
X117370671Y-67680970D01*
X117347572Y-67689235D01*
X117323773Y-67695196D01*
X117299505Y-67698796D01*
X117275001Y-67700000D01*
X116624999Y-67700000D01*
X116600495Y-67698796D01*
X116576227Y-67695196D01*
X116552428Y-67689235D01*
X116529329Y-67680970D01*
X116507150Y-67670480D01*
X116486107Y-67657868D01*
X116466401Y-67643253D01*
X116448223Y-67626777D01*
X116431747Y-67608599D01*
X116417132Y-67588893D01*
X116404520Y-67567850D01*
X116394030Y-67545671D01*
X116385765Y-67522572D01*
X116379804Y-67498773D01*
X116376204Y-67474505D01*
X116375000Y-67450001D01*
X116375000Y-66549999D01*
X116376204Y-66525495D01*
X116379804Y-66501227D01*
X116385765Y-66477428D01*
X116394030Y-66454329D01*
X116404520Y-66432150D01*
X116417132Y-66411107D01*
X116431747Y-66391401D01*
X116448223Y-66373223D01*
X116466401Y-66356747D01*
X116486107Y-66342132D01*
X116507150Y-66329520D01*
X116529329Y-66319030D01*
X116552428Y-66310765D01*
X116576227Y-66304804D01*
X116600495Y-66301204D01*
X116624999Y-66300000D01*
X117275001Y-66300000D01*
X117299505Y-66301204D01*
X117299505Y-66301204D01*
G37*
D16*
G04 #@! TD*
G04 #@! TO.P,R5,1*
G04 #@! TO.N,Net-(D1-Pad1)*
X116950000Y-67000000D03*
D10*
G04 #@! TO.N,/LED_GREEN*
G04 #@! TO.C,R5*
G36*
X119349505Y-66301204D02*
X119373773Y-66304804D01*
X119397572Y-66310765D01*
X119420671Y-66319030D01*
X119442850Y-66329520D01*
X119463893Y-66342132D01*
X119483599Y-66356747D01*
X119501777Y-66373223D01*
X119518253Y-66391401D01*
X119532868Y-66411107D01*
X119545480Y-66432150D01*
X119555970Y-66454329D01*
X119564235Y-66477428D01*
X119570196Y-66501227D01*
X119573796Y-66525495D01*
X119575000Y-66549999D01*
X119575000Y-67450001D01*
X119573796Y-67474505D01*
X119570196Y-67498773D01*
X119564235Y-67522572D01*
X119555970Y-67545671D01*
X119545480Y-67567850D01*
X119532868Y-67588893D01*
X119518253Y-67608599D01*
X119501777Y-67626777D01*
X119483599Y-67643253D01*
X119463893Y-67657868D01*
X119442850Y-67670480D01*
X119420671Y-67680970D01*
X119397572Y-67689235D01*
X119373773Y-67695196D01*
X119349505Y-67698796D01*
X119325001Y-67700000D01*
X118674999Y-67700000D01*
X118650495Y-67698796D01*
X118626227Y-67695196D01*
X118602428Y-67689235D01*
X118579329Y-67680970D01*
X118557150Y-67670480D01*
X118536107Y-67657868D01*
X118516401Y-67643253D01*
X118498223Y-67626777D01*
X118481747Y-67608599D01*
X118467132Y-67588893D01*
X118454520Y-67567850D01*
X118444030Y-67545671D01*
X118435765Y-67522572D01*
X118429804Y-67498773D01*
X118426204Y-67474505D01*
X118425000Y-67450001D01*
X118425000Y-66549999D01*
X118426204Y-66525495D01*
X118429804Y-66501227D01*
X118435765Y-66477428D01*
X118444030Y-66454329D01*
X118454520Y-66432150D01*
X118467132Y-66411107D01*
X118481747Y-66391401D01*
X118498223Y-66373223D01*
X118516401Y-66356747D01*
X118536107Y-66342132D01*
X118557150Y-66329520D01*
X118579329Y-66319030D01*
X118602428Y-66310765D01*
X118626227Y-66304804D01*
X118650495Y-66301204D01*
X118674999Y-66300000D01*
X119325001Y-66300000D01*
X119349505Y-66301204D01*
X119349505Y-66301204D01*
G37*
D16*
G04 #@! TD*
G04 #@! TO.P,R5,2*
G04 #@! TO.N,/LED_GREEN*
X119000000Y-67000000D03*
D10*
G04 #@! TO.N,/LED_YELLOW*
G04 #@! TO.C,R6*
G36*
X130399505Y-66301204D02*
X130423773Y-66304804D01*
X130447572Y-66310765D01*
X130470671Y-66319030D01*
X130492850Y-66329520D01*
X130513893Y-66342132D01*
X130533599Y-66356747D01*
X130551777Y-66373223D01*
X130568253Y-66391401D01*
X130582868Y-66411107D01*
X130595480Y-66432150D01*
X130605970Y-66454329D01*
X130614235Y-66477428D01*
X130620196Y-66501227D01*
X130623796Y-66525495D01*
X130625000Y-66549999D01*
X130625000Y-67450001D01*
X130623796Y-67474505D01*
X130620196Y-67498773D01*
X130614235Y-67522572D01*
X130605970Y-67545671D01*
X130595480Y-67567850D01*
X130582868Y-67588893D01*
X130568253Y-67608599D01*
X130551777Y-67626777D01*
X130533599Y-67643253D01*
X130513893Y-67657868D01*
X130492850Y-67670480D01*
X130470671Y-67680970D01*
X130447572Y-67689235D01*
X130423773Y-67695196D01*
X130399505Y-67698796D01*
X130375001Y-67700000D01*
X129724999Y-67700000D01*
X129700495Y-67698796D01*
X129676227Y-67695196D01*
X129652428Y-67689235D01*
X129629329Y-67680970D01*
X129607150Y-67670480D01*
X129586107Y-67657868D01*
X129566401Y-67643253D01*
X129548223Y-67626777D01*
X129531747Y-67608599D01*
X129517132Y-67588893D01*
X129504520Y-67567850D01*
X129494030Y-67545671D01*
X129485765Y-67522572D01*
X129479804Y-67498773D01*
X129476204Y-67474505D01*
X129475000Y-67450001D01*
X129475000Y-66549999D01*
X129476204Y-66525495D01*
X129479804Y-66501227D01*
X129485765Y-66477428D01*
X129494030Y-66454329D01*
X129504520Y-66432150D01*
X129517132Y-66411107D01*
X129531747Y-66391401D01*
X129548223Y-66373223D01*
X129566401Y-66356747D01*
X129586107Y-66342132D01*
X129607150Y-66329520D01*
X129629329Y-66319030D01*
X129652428Y-66310765D01*
X129676227Y-66304804D01*
X129700495Y-66301204D01*
X129724999Y-66300000D01*
X130375001Y-66300000D01*
X130399505Y-66301204D01*
X130399505Y-66301204D01*
G37*
D16*
G04 #@! TD*
G04 #@! TO.P,R6,2*
G04 #@! TO.N,/LED_YELLOW*
X130050000Y-67000000D03*
D10*
G04 #@! TO.N,Net-(D2-Pad1)*
G04 #@! TO.C,R6*
G36*
X128349505Y-66301204D02*
X128373773Y-66304804D01*
X128397572Y-66310765D01*
X128420671Y-66319030D01*
X128442850Y-66329520D01*
X128463893Y-66342132D01*
X128483599Y-66356747D01*
X128501777Y-66373223D01*
X128518253Y-66391401D01*
X128532868Y-66411107D01*
X128545480Y-66432150D01*
X128555970Y-66454329D01*
X128564235Y-66477428D01*
X128570196Y-66501227D01*
X128573796Y-66525495D01*
X128575000Y-66549999D01*
X128575000Y-67450001D01*
X128573796Y-67474505D01*
X128570196Y-67498773D01*
X128564235Y-67522572D01*
X128555970Y-67545671D01*
X128545480Y-67567850D01*
X128532868Y-67588893D01*
X128518253Y-67608599D01*
X128501777Y-67626777D01*
X128483599Y-67643253D01*
X128463893Y-67657868D01*
X128442850Y-67670480D01*
X128420671Y-67680970D01*
X128397572Y-67689235D01*
X128373773Y-67695196D01*
X128349505Y-67698796D01*
X128325001Y-67700000D01*
X127674999Y-67700000D01*
X127650495Y-67698796D01*
X127626227Y-67695196D01*
X127602428Y-67689235D01*
X127579329Y-67680970D01*
X127557150Y-67670480D01*
X127536107Y-67657868D01*
X127516401Y-67643253D01*
X127498223Y-67626777D01*
X127481747Y-67608599D01*
X127467132Y-67588893D01*
X127454520Y-67567850D01*
X127444030Y-67545671D01*
X127435765Y-67522572D01*
X127429804Y-67498773D01*
X127426204Y-67474505D01*
X127425000Y-67450001D01*
X127425000Y-66549999D01*
X127426204Y-66525495D01*
X127429804Y-66501227D01*
X127435765Y-66477428D01*
X127444030Y-66454329D01*
X127454520Y-66432150D01*
X127467132Y-66411107D01*
X127481747Y-66391401D01*
X127498223Y-66373223D01*
X127516401Y-66356747D01*
X127536107Y-66342132D01*
X127557150Y-66329520D01*
X127579329Y-66319030D01*
X127602428Y-66310765D01*
X127626227Y-66304804D01*
X127650495Y-66301204D01*
X127674999Y-66300000D01*
X128325001Y-66300000D01*
X128349505Y-66301204D01*
X128349505Y-66301204D01*
G37*
D16*
G04 #@! TD*
G04 #@! TO.P,R6,1*
G04 #@! TO.N,Net-(D2-Pad1)*
X128000000Y-67000000D03*
D10*
G04 #@! TO.N,Net-(D3-Pad1)*
G04 #@! TO.C,R7*
G36*
X139299505Y-66301204D02*
X139323773Y-66304804D01*
X139347572Y-66310765D01*
X139370671Y-66319030D01*
X139392850Y-66329520D01*
X139413893Y-66342132D01*
X139433599Y-66356747D01*
X139451777Y-66373223D01*
X139468253Y-66391401D01*
X139482868Y-66411107D01*
X139495480Y-66432150D01*
X139505970Y-66454329D01*
X139514235Y-66477428D01*
X139520196Y-66501227D01*
X139523796Y-66525495D01*
X139525000Y-66549999D01*
X139525000Y-67450001D01*
X139523796Y-67474505D01*
X139520196Y-67498773D01*
X139514235Y-67522572D01*
X139505970Y-67545671D01*
X139495480Y-67567850D01*
X139482868Y-67588893D01*
X139468253Y-67608599D01*
X139451777Y-67626777D01*
X139433599Y-67643253D01*
X139413893Y-67657868D01*
X139392850Y-67670480D01*
X139370671Y-67680970D01*
X139347572Y-67689235D01*
X139323773Y-67695196D01*
X139299505Y-67698796D01*
X139275001Y-67700000D01*
X138624999Y-67700000D01*
X138600495Y-67698796D01*
X138576227Y-67695196D01*
X138552428Y-67689235D01*
X138529329Y-67680970D01*
X138507150Y-67670480D01*
X138486107Y-67657868D01*
X138466401Y-67643253D01*
X138448223Y-67626777D01*
X138431747Y-67608599D01*
X138417132Y-67588893D01*
X138404520Y-67567850D01*
X138394030Y-67545671D01*
X138385765Y-67522572D01*
X138379804Y-67498773D01*
X138376204Y-67474505D01*
X138375000Y-67450001D01*
X138375000Y-66549999D01*
X138376204Y-66525495D01*
X138379804Y-66501227D01*
X138385765Y-66477428D01*
X138394030Y-66454329D01*
X138404520Y-66432150D01*
X138417132Y-66411107D01*
X138431747Y-66391401D01*
X138448223Y-66373223D01*
X138466401Y-66356747D01*
X138486107Y-66342132D01*
X138507150Y-66329520D01*
X138529329Y-66319030D01*
X138552428Y-66310765D01*
X138576227Y-66304804D01*
X138600495Y-66301204D01*
X138624999Y-66300000D01*
X139275001Y-66300000D01*
X139299505Y-66301204D01*
X139299505Y-66301204D01*
G37*
D16*
G04 #@! TD*
G04 #@! TO.P,R7,1*
G04 #@! TO.N,Net-(D3-Pad1)*
X138950000Y-67000000D03*
D10*
G04 #@! TO.N,/LED_RED*
G04 #@! TO.C,R7*
G36*
X141349505Y-66301204D02*
X141373773Y-66304804D01*
X141397572Y-66310765D01*
X141420671Y-66319030D01*
X141442850Y-66329520D01*
X141463893Y-66342132D01*
X141483599Y-66356747D01*
X141501777Y-66373223D01*
X141518253Y-66391401D01*
X141532868Y-66411107D01*
X141545480Y-66432150D01*
X141555970Y-66454329D01*
X141564235Y-66477428D01*
X141570196Y-66501227D01*
X141573796Y-66525495D01*
X141575000Y-66549999D01*
X141575000Y-67450001D01*
X141573796Y-67474505D01*
X141570196Y-67498773D01*
X141564235Y-67522572D01*
X141555970Y-67545671D01*
X141545480Y-67567850D01*
X141532868Y-67588893D01*
X141518253Y-67608599D01*
X141501777Y-67626777D01*
X141483599Y-67643253D01*
X141463893Y-67657868D01*
X141442850Y-67670480D01*
X141420671Y-67680970D01*
X141397572Y-67689235D01*
X141373773Y-67695196D01*
X141349505Y-67698796D01*
X141325001Y-67700000D01*
X140674999Y-67700000D01*
X140650495Y-67698796D01*
X140626227Y-67695196D01*
X140602428Y-67689235D01*
X140579329Y-67680970D01*
X140557150Y-67670480D01*
X140536107Y-67657868D01*
X140516401Y-67643253D01*
X140498223Y-67626777D01*
X140481747Y-67608599D01*
X140467132Y-67588893D01*
X140454520Y-67567850D01*
X140444030Y-67545671D01*
X140435765Y-67522572D01*
X140429804Y-67498773D01*
X140426204Y-67474505D01*
X140425000Y-67450001D01*
X140425000Y-66549999D01*
X140426204Y-66525495D01*
X140429804Y-66501227D01*
X140435765Y-66477428D01*
X140444030Y-66454329D01*
X140454520Y-66432150D01*
X140467132Y-66411107D01*
X140481747Y-66391401D01*
X140498223Y-66373223D01*
X140516401Y-66356747D01*
X140536107Y-66342132D01*
X140557150Y-66329520D01*
X140579329Y-66319030D01*
X140602428Y-66310765D01*
X140626227Y-66304804D01*
X140650495Y-66301204D01*
X140674999Y-66300000D01*
X141325001Y-66300000D01*
X141349505Y-66301204D01*
X141349505Y-66301204D01*
G37*
D16*
G04 #@! TD*
G04 #@! TO.P,R7,2*
G04 #@! TO.N,/LED_RED*
X141000000Y-67000000D03*
D10*
G04 #@! TO.N,VCC*
G04 #@! TO.C,R8*
G36*
X148853096Y-107431745D02*
X148877364Y-107435345D01*
X148901163Y-107441306D01*
X148924262Y-107449571D01*
X148946441Y-107460061D01*
X148967484Y-107472673D01*
X148987190Y-107487288D01*
X149005368Y-107503764D01*
X149021844Y-107521942D01*
X149036459Y-107541648D01*
X149049071Y-107562691D01*
X149059561Y-107584870D01*
X149067826Y-107607969D01*
X149073787Y-107631768D01*
X149077387Y-107656036D01*
X149078591Y-107680540D01*
X149078591Y-108580542D01*
X149077387Y-108605046D01*
X149073787Y-108629314D01*
X149067826Y-108653113D01*
X149059561Y-108676212D01*
X149049071Y-108698391D01*
X149036459Y-108719434D01*
X149021844Y-108739140D01*
X149005368Y-108757318D01*
X148987190Y-108773794D01*
X148967484Y-108788409D01*
X148946441Y-108801021D01*
X148924262Y-108811511D01*
X148901163Y-108819776D01*
X148877364Y-108825737D01*
X148853096Y-108829337D01*
X148828592Y-108830541D01*
X148178590Y-108830541D01*
X148154086Y-108829337D01*
X148129818Y-108825737D01*
X148106019Y-108819776D01*
X148082920Y-108811511D01*
X148060741Y-108801021D01*
X148039698Y-108788409D01*
X148019992Y-108773794D01*
X148001814Y-108757318D01*
X147985338Y-108739140D01*
X147970723Y-108719434D01*
X147958111Y-108698391D01*
X147947621Y-108676212D01*
X147939356Y-108653113D01*
X147933395Y-108629314D01*
X147929795Y-108605046D01*
X147928591Y-108580542D01*
X147928591Y-107680540D01*
X147929795Y-107656036D01*
X147933395Y-107631768D01*
X147939356Y-107607969D01*
X147947621Y-107584870D01*
X147958111Y-107562691D01*
X147970723Y-107541648D01*
X147985338Y-107521942D01*
X148001814Y-107503764D01*
X148019992Y-107487288D01*
X148039698Y-107472673D01*
X148060741Y-107460061D01*
X148082920Y-107449571D01*
X148106019Y-107441306D01*
X148129818Y-107435345D01*
X148154086Y-107431745D01*
X148178590Y-107430541D01*
X148828592Y-107430541D01*
X148853096Y-107431745D01*
X148853096Y-107431745D01*
G37*
D16*
G04 #@! TD*
G04 #@! TO.P,R8,1*
G04 #@! TO.N,VCC*
X148503591Y-108130541D03*
D10*
G04 #@! TO.N,Net-(R8-Pad2)*
G04 #@! TO.C,R8*
G36*
X150903096Y-107431745D02*
X150927364Y-107435345D01*
X150951163Y-107441306D01*
X150974262Y-107449571D01*
X150996441Y-107460061D01*
X151017484Y-107472673D01*
X151037190Y-107487288D01*
X151055368Y-107503764D01*
X151071844Y-107521942D01*
X151086459Y-107541648D01*
X151099071Y-107562691D01*
X151109561Y-107584870D01*
X151117826Y-107607969D01*
X151123787Y-107631768D01*
X151127387Y-107656036D01*
X151128591Y-107680540D01*
X151128591Y-108580542D01*
X151127387Y-108605046D01*
X151123787Y-108629314D01*
X151117826Y-108653113D01*
X151109561Y-108676212D01*
X151099071Y-108698391D01*
X151086459Y-108719434D01*
X151071844Y-108739140D01*
X151055368Y-108757318D01*
X151037190Y-108773794D01*
X151017484Y-108788409D01*
X150996441Y-108801021D01*
X150974262Y-108811511D01*
X150951163Y-108819776D01*
X150927364Y-108825737D01*
X150903096Y-108829337D01*
X150878592Y-108830541D01*
X150228590Y-108830541D01*
X150204086Y-108829337D01*
X150179818Y-108825737D01*
X150156019Y-108819776D01*
X150132920Y-108811511D01*
X150110741Y-108801021D01*
X150089698Y-108788409D01*
X150069992Y-108773794D01*
X150051814Y-108757318D01*
X150035338Y-108739140D01*
X150020723Y-108719434D01*
X150008111Y-108698391D01*
X149997621Y-108676212D01*
X149989356Y-108653113D01*
X149983395Y-108629314D01*
X149979795Y-108605046D01*
X149978591Y-108580542D01*
X149978591Y-107680540D01*
X149979795Y-107656036D01*
X149983395Y-107631768D01*
X149989356Y-107607969D01*
X149997621Y-107584870D01*
X150008111Y-107562691D01*
X150020723Y-107541648D01*
X150035338Y-107521942D01*
X150051814Y-107503764D01*
X150069992Y-107487288D01*
X150089698Y-107472673D01*
X150110741Y-107460061D01*
X150132920Y-107449571D01*
X150156019Y-107441306D01*
X150179818Y-107435345D01*
X150204086Y-107431745D01*
X150228590Y-107430541D01*
X150878592Y-107430541D01*
X150903096Y-107431745D01*
X150903096Y-107431745D01*
G37*
D16*
G04 #@! TD*
G04 #@! TO.P,R8,2*
G04 #@! TO.N,Net-(R8-Pad2)*
X150553591Y-108130541D03*
D10*
G04 #@! TO.N,GND*
G04 #@! TO.C,R9*
G36*
X148853096Y-104431745D02*
X148877364Y-104435345D01*
X148901163Y-104441306D01*
X148924262Y-104449571D01*
X148946441Y-104460061D01*
X148967484Y-104472673D01*
X148987190Y-104487288D01*
X149005368Y-104503764D01*
X149021844Y-104521942D01*
X149036459Y-104541648D01*
X149049071Y-104562691D01*
X149059561Y-104584870D01*
X149067826Y-104607969D01*
X149073787Y-104631768D01*
X149077387Y-104656036D01*
X149078591Y-104680540D01*
X149078591Y-105580542D01*
X149077387Y-105605046D01*
X149073787Y-105629314D01*
X149067826Y-105653113D01*
X149059561Y-105676212D01*
X149049071Y-105698391D01*
X149036459Y-105719434D01*
X149021844Y-105739140D01*
X149005368Y-105757318D01*
X148987190Y-105773794D01*
X148967484Y-105788409D01*
X148946441Y-105801021D01*
X148924262Y-105811511D01*
X148901163Y-105819776D01*
X148877364Y-105825737D01*
X148853096Y-105829337D01*
X148828592Y-105830541D01*
X148178590Y-105830541D01*
X148154086Y-105829337D01*
X148129818Y-105825737D01*
X148106019Y-105819776D01*
X148082920Y-105811511D01*
X148060741Y-105801021D01*
X148039698Y-105788409D01*
X148019992Y-105773794D01*
X148001814Y-105757318D01*
X147985338Y-105739140D01*
X147970723Y-105719434D01*
X147958111Y-105698391D01*
X147947621Y-105676212D01*
X147939356Y-105653113D01*
X147933395Y-105629314D01*
X147929795Y-105605046D01*
X147928591Y-105580542D01*
X147928591Y-104680540D01*
X147929795Y-104656036D01*
X147933395Y-104631768D01*
X147939356Y-104607969D01*
X147947621Y-104584870D01*
X147958111Y-104562691D01*
X147970723Y-104541648D01*
X147985338Y-104521942D01*
X148001814Y-104503764D01*
X148019992Y-104487288D01*
X148039698Y-104472673D01*
X148060741Y-104460061D01*
X148082920Y-104449571D01*
X148106019Y-104441306D01*
X148129818Y-104435345D01*
X148154086Y-104431745D01*
X148178590Y-104430541D01*
X148828592Y-104430541D01*
X148853096Y-104431745D01*
X148853096Y-104431745D01*
G37*
D16*
G04 #@! TD*
G04 #@! TO.P,R9,2*
G04 #@! TO.N,GND*
X148503591Y-105130541D03*
D10*
G04 #@! TO.N,Net-(R8-Pad2)*
G04 #@! TO.C,R9*
G36*
X150903096Y-104431745D02*
X150927364Y-104435345D01*
X150951163Y-104441306D01*
X150974262Y-104449571D01*
X150996441Y-104460061D01*
X151017484Y-104472673D01*
X151037190Y-104487288D01*
X151055368Y-104503764D01*
X151071844Y-104521942D01*
X151086459Y-104541648D01*
X151099071Y-104562691D01*
X151109561Y-104584870D01*
X151117826Y-104607969D01*
X151123787Y-104631768D01*
X151127387Y-104656036D01*
X151128591Y-104680540D01*
X151128591Y-105580542D01*
X151127387Y-105605046D01*
X151123787Y-105629314D01*
X151117826Y-105653113D01*
X151109561Y-105676212D01*
X151099071Y-105698391D01*
X151086459Y-105719434D01*
X151071844Y-105739140D01*
X151055368Y-105757318D01*
X151037190Y-105773794D01*
X151017484Y-105788409D01*
X150996441Y-105801021D01*
X150974262Y-105811511D01*
X150951163Y-105819776D01*
X150927364Y-105825737D01*
X150903096Y-105829337D01*
X150878592Y-105830541D01*
X150228590Y-105830541D01*
X150204086Y-105829337D01*
X150179818Y-105825737D01*
X150156019Y-105819776D01*
X150132920Y-105811511D01*
X150110741Y-105801021D01*
X150089698Y-105788409D01*
X150069992Y-105773794D01*
X150051814Y-105757318D01*
X150035338Y-105739140D01*
X150020723Y-105719434D01*
X150008111Y-105698391D01*
X149997621Y-105676212D01*
X149989356Y-105653113D01*
X149983395Y-105629314D01*
X149979795Y-105605046D01*
X149978591Y-105580542D01*
X149978591Y-104680540D01*
X149979795Y-104656036D01*
X149983395Y-104631768D01*
X149989356Y-104607969D01*
X149997621Y-104584870D01*
X150008111Y-104562691D01*
X150020723Y-104541648D01*
X150035338Y-104521942D01*
X150051814Y-104503764D01*
X150069992Y-104487288D01*
X150089698Y-104472673D01*
X150110741Y-104460061D01*
X150132920Y-104449571D01*
X150156019Y-104441306D01*
X150179818Y-104435345D01*
X150204086Y-104431745D01*
X150228590Y-104430541D01*
X150878592Y-104430541D01*
X150903096Y-104431745D01*
X150903096Y-104431745D01*
G37*
D16*
G04 #@! TD*
G04 #@! TO.P,R9,1*
G04 #@! TO.N,Net-(R8-Pad2)*
X150553591Y-105130541D03*
D10*
G04 #@! TO.N,/LED_BATT*
G04 #@! TO.C,R10*
G36*
X123724505Y-122426204D02*
X123748773Y-122429804D01*
X123772572Y-122435765D01*
X123795671Y-122444030D01*
X123817850Y-122454520D01*
X123838893Y-122467132D01*
X123858599Y-122481747D01*
X123876777Y-122498223D01*
X123893253Y-122516401D01*
X123907868Y-122536107D01*
X123920480Y-122557150D01*
X123930970Y-122579329D01*
X123939235Y-122602428D01*
X123945196Y-122626227D01*
X123948796Y-122650495D01*
X123950000Y-122674999D01*
X123950000Y-123325001D01*
X123948796Y-123349505D01*
X123945196Y-123373773D01*
X123939235Y-123397572D01*
X123930970Y-123420671D01*
X123920480Y-123442850D01*
X123907868Y-123463893D01*
X123893253Y-123483599D01*
X123876777Y-123501777D01*
X123858599Y-123518253D01*
X123838893Y-123532868D01*
X123817850Y-123545480D01*
X123795671Y-123555970D01*
X123772572Y-123564235D01*
X123748773Y-123570196D01*
X123724505Y-123573796D01*
X123700001Y-123575000D01*
X122799999Y-123575000D01*
X122775495Y-123573796D01*
X122751227Y-123570196D01*
X122727428Y-123564235D01*
X122704329Y-123555970D01*
X122682150Y-123545480D01*
X122661107Y-123532868D01*
X122641401Y-123518253D01*
X122623223Y-123501777D01*
X122606747Y-123483599D01*
X122592132Y-123463893D01*
X122579520Y-123442850D01*
X122569030Y-123420671D01*
X122560765Y-123397572D01*
X122554804Y-123373773D01*
X122551204Y-123349505D01*
X122550000Y-123325001D01*
X122550000Y-122674999D01*
X122551204Y-122650495D01*
X122554804Y-122626227D01*
X122560765Y-122602428D01*
X122569030Y-122579329D01*
X122579520Y-122557150D01*
X122592132Y-122536107D01*
X122606747Y-122516401D01*
X122623223Y-122498223D01*
X122641401Y-122481747D01*
X122661107Y-122467132D01*
X122682150Y-122454520D01*
X122704329Y-122444030D01*
X122727428Y-122435765D01*
X122751227Y-122429804D01*
X122775495Y-122426204D01*
X122799999Y-122425000D01*
X123700001Y-122425000D01*
X123724505Y-122426204D01*
X123724505Y-122426204D01*
G37*
D16*
G04 #@! TD*
G04 #@! TO.P,R10,2*
G04 #@! TO.N,/LED_BATT*
X123250000Y-123000000D03*
D10*
G04 #@! TO.N,Net-(D4-Pad1)*
G04 #@! TO.C,R10*
G36*
X123724505Y-124476204D02*
X123748773Y-124479804D01*
X123772572Y-124485765D01*
X123795671Y-124494030D01*
X123817850Y-124504520D01*
X123838893Y-124517132D01*
X123858599Y-124531747D01*
X123876777Y-124548223D01*
X123893253Y-124566401D01*
X123907868Y-124586107D01*
X123920480Y-124607150D01*
X123930970Y-124629329D01*
X123939235Y-124652428D01*
X123945196Y-124676227D01*
X123948796Y-124700495D01*
X123950000Y-124724999D01*
X123950000Y-125375001D01*
X123948796Y-125399505D01*
X123945196Y-125423773D01*
X123939235Y-125447572D01*
X123930970Y-125470671D01*
X123920480Y-125492850D01*
X123907868Y-125513893D01*
X123893253Y-125533599D01*
X123876777Y-125551777D01*
X123858599Y-125568253D01*
X123838893Y-125582868D01*
X123817850Y-125595480D01*
X123795671Y-125605970D01*
X123772572Y-125614235D01*
X123748773Y-125620196D01*
X123724505Y-125623796D01*
X123700001Y-125625000D01*
X122799999Y-125625000D01*
X122775495Y-125623796D01*
X122751227Y-125620196D01*
X122727428Y-125614235D01*
X122704329Y-125605970D01*
X122682150Y-125595480D01*
X122661107Y-125582868D01*
X122641401Y-125568253D01*
X122623223Y-125551777D01*
X122606747Y-125533599D01*
X122592132Y-125513893D01*
X122579520Y-125492850D01*
X122569030Y-125470671D01*
X122560765Y-125447572D01*
X122554804Y-125423773D01*
X122551204Y-125399505D01*
X122550000Y-125375001D01*
X122550000Y-124724999D01*
X122551204Y-124700495D01*
X122554804Y-124676227D01*
X122560765Y-124652428D01*
X122569030Y-124629329D01*
X122579520Y-124607150D01*
X122592132Y-124586107D01*
X122606747Y-124566401D01*
X122623223Y-124548223D01*
X122641401Y-124531747D01*
X122661107Y-124517132D01*
X122682150Y-124504520D01*
X122704329Y-124494030D01*
X122727428Y-124485765D01*
X122751227Y-124479804D01*
X122775495Y-124476204D01*
X122799999Y-124475000D01*
X123700001Y-124475000D01*
X123724505Y-124476204D01*
X123724505Y-124476204D01*
G37*
D16*
G04 #@! TD*
G04 #@! TO.P,R10,1*
G04 #@! TO.N,Net-(D4-Pad1)*
X123250000Y-125050000D03*
D17*
G04 #@! TO.P,SW1,2*
G04 #@! TO.N,GND*
X135000000Y-110500000D03*
G04 #@! TO.P,SW1,1*
G04 #@! TO.N,/BUTTON_CHANGE*
X135000000Y-106000000D03*
G04 #@! TO.P,SW1,2*
G04 #@! TO.N,GND*
X141500000Y-110500000D03*
G04 #@! TO.P,SW1,1*
G04 #@! TO.N,/BUTTON_CHANGE*
X141500000Y-106000000D03*
G04 #@! TD*
G04 #@! TO.P,SW2,1*
G04 #@! TO.N,/BUTTON_SAVE*
X125500000Y-106000000D03*
G04 #@! TO.P,SW2,2*
G04 #@! TO.N,GND*
X125500000Y-110500000D03*
G04 #@! TO.P,SW2,1*
G04 #@! TO.N,/BUTTON_SAVE*
X119000000Y-106000000D03*
G04 #@! TO.P,SW2,2*
G04 #@! TO.N,GND*
X119000000Y-110500000D03*
G04 #@! TD*
D18*
G04 #@! TO.P,U1,2*
G04 #@! TO.N,+3V3*
X145000000Y-129000000D03*
D19*
X145000000Y-122700000D03*
G04 #@! TO.P,U1,3*
G04 #@! TO.N,VCC*
X142700000Y-122700000D03*
G04 #@! TO.P,U1,1*
G04 #@! TO.N,GND*
X147300000Y-122700000D03*
G04 #@! TD*
D20*
G04 #@! TO.P,U2,1*
G04 #@! TO.N,/~RST*
X135000000Y-78900000D03*
G04 #@! TO.P,U2,2*
G04 #@! TO.N,Net-(R8-Pad2)*
X133000000Y-78900000D03*
G04 #@! TO.P,U2,3*
G04 #@! TO.N,Net-(R1-Pad2)*
X131000000Y-78900000D03*
G04 #@! TO.P,U2,4*
G04 #@! TO.N,/LED_RED*
X129000000Y-78900000D03*
G04 #@! TO.P,U2,5*
G04 #@! TO.N,/LED_YELLOW*
X127000000Y-78900000D03*
G04 #@! TO.P,U2,6*
G04 #@! TO.N,/LED_GREEN*
X125000000Y-78900000D03*
G04 #@! TO.P,U2,7*
G04 #@! TO.N,N/C*
X123000000Y-78900000D03*
G04 #@! TO.P,U2,8*
G04 #@! TO.N,+3V3*
X121000000Y-78900000D03*
D21*
G04 #@! TO.P,U2,9*
G04 #@! TO.N,N/C*
X119500000Y-81500000D03*
G04 #@! TO.P,U2,10*
X119500000Y-83500000D03*
G04 #@! TO.P,U2,11*
G04 #@! TO.N,/LED_BATT*
X119500000Y-85500000D03*
G04 #@! TO.P,U2,12*
G04 #@! TO.N,N/C*
X119500000Y-87500000D03*
G04 #@! TO.P,U2,13*
X119500000Y-89500000D03*
G04 #@! TO.P,U2,14*
X119500000Y-91500000D03*
D20*
G04 #@! TO.P,U2,15*
G04 #@! TO.N,GND*
X121000000Y-94100000D03*
G04 #@! TO.P,U2,16*
G04 #@! TO.N,Net-(R3-Pad1)*
X123000000Y-94100000D03*
G04 #@! TO.P,U2,17*
G04 #@! TO.N,Net-(R4-Pad2)*
X125000000Y-94100000D03*
G04 #@! TO.P,U2,18*
G04 #@! TO.N,/GPIO0*
X127000000Y-94100000D03*
G04 #@! TO.P,U2,19*
G04 #@! TO.N,/BUTTON_SAVE*
X129000000Y-94100000D03*
G04 #@! TO.P,U2,20*
G04 #@! TO.N,/BUTTON_CHANGE*
X131000000Y-94100000D03*
G04 #@! TO.P,U2,21*
G04 #@! TO.N,/Rx*
X133000000Y-94100000D03*
G04 #@! TO.P,U2,22*
G04 #@! TO.N,/Tx*
X135000000Y-94100000D03*
G04 #@! TD*
D14*
G04 #@! TO.P,J2,1*
G04 #@! TO.N,+3V3*
X150500000Y-62340000D03*
D15*
G04 #@! TO.P,J2,2*
G04 #@! TO.N,/~RST*
X150500000Y-64880000D03*
G04 #@! TO.P,J2,3*
G04 #@! TO.N,/GPIO0*
X150500000Y-67420000D03*
G04 #@! TO.P,J2,4*
G04 #@! TO.N,/Tx*
X150500000Y-69960000D03*
G04 #@! TO.P,J2,5*
G04 #@! TO.N,/Rx*
X150500000Y-72500000D03*
G04 #@! TO.P,J2,6*
G04 #@! TO.N,GND*
X150500000Y-75040000D03*
G04 #@! TD*
D22*
G04 #@! TO.N,GND*
X115500000Y-70500000D03*
X118000000Y-70500000D03*
X120500000Y-71000000D03*
X121000000Y-100000000D03*
X150000000Y-122500000D03*
X148500000Y-103000000D03*
G04 #@! TO.N,Net-(R8-Pad2)*
X150500000Y-101500000D03*
X134000000Y-76000000D03*
G04 #@! TO.N,/BUTTON_CHANGE*
X132000000Y-97000000D03*
G04 #@! TO.N,/BUTTON_SAVE*
X130000000Y-97000000D03*
G04 #@! TD*
D23*
G04 #@! TO.N,VCC*
X142700000Y-120300000D02*
X144000000Y-119000000D01*
X142700000Y-122700000D02*
X142700000Y-120300000D01*
X144000000Y-119000000D02*
X144000000Y-118000000D01*
X146000000Y-116000000D02*
X150000000Y-116000000D01*
X144000000Y-118000000D02*
X146000000Y-116000000D01*
X146000000Y-110634132D02*
X148503591Y-108130541D01*
X146000000Y-116000000D02*
X146000000Y-110634132D01*
D24*
G04 #@! TO.N,GND*
X115502165Y-72500000D02*
X115500000Y-72497835D01*
X120500000Y-72500000D02*
X115502165Y-72500000D01*
X115500000Y-72497835D02*
X115500000Y-70500000D01*
X118000000Y-72500000D02*
X118000000Y-70500000D01*
X120500000Y-72500000D02*
X120500000Y-71000000D01*
X123000000Y-100050000D02*
X121050000Y-100050000D01*
X121050000Y-100050000D02*
X121000000Y-100000000D01*
X121000000Y-100000000D02*
X121000000Y-94100000D01*
X147300000Y-120550000D02*
X147300000Y-122700000D01*
X145750000Y-119000000D02*
X147300000Y-120550000D01*
X149850000Y-125250000D02*
X147300000Y-122700000D01*
X151000000Y-125250000D02*
X149850000Y-125250000D01*
X147300000Y-122700000D02*
X149800000Y-122700000D01*
X149800000Y-122700000D02*
X150000000Y-122500000D01*
X148503591Y-105130541D02*
X148503591Y-103003591D01*
X148503591Y-103003591D02*
X148500000Y-103000000D01*
G04 #@! TO.N,Net-(D1-Pad1)*
X117000000Y-66950000D02*
X116950000Y-67000000D01*
X117000000Y-61000000D02*
X117000000Y-66950000D01*
G04 #@! TO.N,Net-(D2-Pad1)*
X128000000Y-62400000D02*
X128000000Y-67000000D01*
X128000000Y-61000000D02*
X128000000Y-62400000D01*
G04 #@! TO.N,Net-(D3-Pad1)*
X139000000Y-66950000D02*
X138950000Y-67000000D01*
X139000000Y-61000000D02*
X139000000Y-66950000D01*
G04 #@! TO.N,Net-(D4-Pad1)*
X128950000Y-125050000D02*
X129000000Y-125000000D01*
X123250000Y-125050000D02*
X128950000Y-125050000D01*
G04 #@! TO.N,/Tx*
X135000000Y-96000000D02*
X135000000Y-94100000D01*
X150500000Y-69960000D02*
X149297919Y-69960000D01*
X148000000Y-71257919D02*
X148000000Y-96000000D01*
X148000000Y-96000000D02*
X147000000Y-97000000D01*
X149297919Y-69960000D02*
X148000000Y-71257919D01*
X147000000Y-97000000D02*
X136000000Y-97000000D01*
X136000000Y-97000000D02*
X135000000Y-96000000D01*
G04 #@! TO.N,/Rx*
X133000000Y-95850000D02*
X135150000Y-98000000D01*
X133000000Y-94100000D02*
X133000000Y-95850000D01*
X135150000Y-98000000D02*
X147500000Y-98000000D01*
X149650001Y-73349999D02*
X150500000Y-72500000D01*
X149199999Y-73800001D02*
X149650001Y-73349999D01*
X149199999Y-96300001D02*
X149199999Y-73800001D01*
X147500000Y-98000000D02*
X149199999Y-96300001D01*
G04 #@! TO.N,Net-(R1-Pad2)*
X131000000Y-77000000D02*
X131000000Y-78900000D01*
X138975000Y-74250000D02*
X133750000Y-74250000D01*
X133750000Y-74250000D02*
X131000000Y-77000000D01*
G04 #@! TO.N,Net-(R3-Pad1)*
X123000000Y-94100000D02*
X123000000Y-98000000D01*
G04 #@! TO.N,Net-(R4-Pad2)*
X125000000Y-96950000D02*
X126000000Y-97950000D01*
X125000000Y-94100000D02*
X125000000Y-96950000D01*
G04 #@! TO.N,/LED_GREEN*
X125000000Y-77150000D02*
X125000000Y-78900000D01*
X125000000Y-73800000D02*
X125000000Y-77150000D01*
X119000000Y-67800000D02*
X125000000Y-73800000D01*
X119000000Y-67000000D02*
X119000000Y-67800000D01*
G04 #@! TO.N,/LED_YELLOW*
X127000000Y-70050000D02*
X127000000Y-78900000D01*
X130050000Y-67000000D02*
X127000000Y-70050000D01*
G04 #@! TO.N,/LED_RED*
X141000000Y-67000000D02*
X141000000Y-67800000D01*
X141000000Y-67800000D02*
X139300000Y-69500000D01*
X139300000Y-69500000D02*
X133500000Y-69500000D01*
X129000000Y-74000000D02*
X129000000Y-78900000D01*
X133500000Y-69500000D02*
X129000000Y-74000000D01*
G04 #@! TO.N,Net-(R8-Pad2)*
X150553591Y-108130541D02*
X150553591Y-105130541D01*
X150553591Y-105130541D02*
X150553591Y-101553591D01*
X150553591Y-101553591D02*
X150500000Y-101500000D01*
X134000000Y-76000000D02*
X133000000Y-77000000D01*
X133000000Y-77000000D02*
X133000000Y-78900000D01*
G04 #@! TO.N,/LED_BATT*
X118100000Y-85500000D02*
X115000000Y-88600000D01*
X119500000Y-85500000D02*
X118100000Y-85500000D01*
X115000000Y-88600000D02*
X115000000Y-116500000D01*
X121500000Y-123000000D02*
X123250000Y-123000000D01*
X115000000Y-116500000D02*
X121500000Y-123000000D01*
G04 #@! TO.N,/BUTTON_CHANGE*
X131000000Y-94100000D02*
X131000000Y-96000000D01*
X131000000Y-96000000D02*
X132000000Y-97000000D01*
G04 #@! TO.N,/BUTTON_SAVE*
X129000000Y-94100000D02*
X129000000Y-96000000D01*
X129000000Y-96000000D02*
X130000000Y-97000000D01*
G04 #@! TO.N,/~RST*
X135000000Y-77150000D02*
X135650000Y-76500000D01*
X135000000Y-78900000D02*
X135000000Y-77150000D01*
X135650000Y-76500000D02*
X142500000Y-76500000D01*
X142500000Y-76500000D02*
X143000000Y-76000000D01*
X143000000Y-76000000D02*
X143000000Y-74500000D01*
X143000000Y-74500000D02*
X148500000Y-69000000D01*
X148500000Y-66880000D02*
X150500000Y-64880000D01*
X148500000Y-69000000D02*
X148500000Y-66880000D01*
G04 #@! TO.N,/GPIO0*
X150500000Y-67420000D02*
X152420000Y-67420000D01*
X152420000Y-67420000D02*
X153500000Y-68500000D01*
X153500000Y-68500000D02*
X153500000Y-93500000D01*
X153500000Y-93500000D02*
X148000000Y-99000000D01*
X148000000Y-99000000D02*
X130000000Y-99000000D01*
X127000000Y-96000000D02*
X127000000Y-94100000D01*
X130000000Y-99000000D02*
X127000000Y-96000000D01*
G04 #@! TD*
D25*
G04 #@! TO.N,+3V3*
G36*
X154290000Y-68089361D02*
X154138049Y-67861951D01*
X154064156Y-67812577D01*
X153107425Y-66855847D01*
X153058049Y-66781951D01*
X152765310Y-66586348D01*
X152507165Y-66535000D01*
X152507161Y-66535000D01*
X152420000Y-66517663D01*
X152332839Y-66535000D01*
X151694656Y-66535000D01*
X151570625Y-66349375D01*
X151272239Y-66150000D01*
X151570625Y-65950625D01*
X151898839Y-65459418D01*
X152014092Y-64880000D01*
X151898839Y-64300582D01*
X151570625Y-63809375D01*
X151548967Y-63794904D01*
X151709698Y-63728327D01*
X151888327Y-63549699D01*
X151985000Y-63316310D01*
X151985000Y-62625750D01*
X151826250Y-62467000D01*
X150627000Y-62467000D01*
X150627000Y-62487000D01*
X150373000Y-62487000D01*
X150373000Y-62467000D01*
X149173750Y-62467000D01*
X149015000Y-62625750D01*
X149015000Y-63316310D01*
X149111673Y-63549699D01*
X149290302Y-63728327D01*
X149451033Y-63794904D01*
X149429375Y-63809375D01*
X149101161Y-64300582D01*
X148985908Y-64880000D01*
X149029462Y-65098960D01*
X147935845Y-66192577D01*
X147861952Y-66241951D01*
X147812578Y-66315844D01*
X147812576Y-66315846D01*
X147666348Y-66534691D01*
X147597663Y-66880000D01*
X147615001Y-66967165D01*
X147615000Y-68633421D01*
X142435845Y-73812577D01*
X142361952Y-73861951D01*
X142312578Y-73935844D01*
X142312576Y-73935846D01*
X142187525Y-74122998D01*
X142076252Y-74122998D01*
X142235000Y-73964250D01*
X142235000Y-73423690D01*
X142138327Y-73190301D01*
X141959698Y-73011673D01*
X141726309Y-72915000D01*
X141310750Y-72915000D01*
X141152000Y-73073750D01*
X141152000Y-74123000D01*
X141172000Y-74123000D01*
X141172000Y-74377000D01*
X141152000Y-74377000D01*
X141152000Y-75426250D01*
X141310750Y-75585000D01*
X141726309Y-75585000D01*
X141959698Y-75488327D01*
X142115000Y-75333025D01*
X142115000Y-75615000D01*
X135737161Y-75615000D01*
X135650000Y-75597663D01*
X135562839Y-75615000D01*
X135562835Y-75615000D01*
X135304690Y-75666348D01*
X135085845Y-75812576D01*
X135085844Y-75812577D01*
X135035000Y-75846550D01*
X135035000Y-75794126D01*
X134877431Y-75413720D01*
X134598711Y-75135000D01*
X137882054Y-75135000D01*
X138015414Y-75334586D01*
X138306564Y-75529127D01*
X138649999Y-75597440D01*
X139300001Y-75597440D01*
X139643436Y-75529127D01*
X139934586Y-75334586D01*
X139935377Y-75333403D01*
X140090302Y-75488327D01*
X140323691Y-75585000D01*
X140739250Y-75585000D01*
X140898000Y-75426250D01*
X140898000Y-74377000D01*
X140878000Y-74377000D01*
X140878000Y-74123000D01*
X140898000Y-74123000D01*
X140898000Y-73073750D01*
X140739250Y-72915000D01*
X140323691Y-72915000D01*
X140090302Y-73011673D01*
X139935377Y-73166597D01*
X139934586Y-73165414D01*
X139643436Y-72970873D01*
X139300001Y-72902560D01*
X138649999Y-72902560D01*
X138306564Y-72970873D01*
X138015414Y-73165414D01*
X137882054Y-73365000D01*
X133837159Y-73365000D01*
X133749999Y-73347663D01*
X133662839Y-73365000D01*
X133662835Y-73365000D01*
X133404690Y-73416348D01*
X133344503Y-73456564D01*
X133185845Y-73562576D01*
X133185844Y-73562577D01*
X133111951Y-73611951D01*
X133062577Y-73685844D01*
X130435847Y-76312575D01*
X130361951Y-76361951D01*
X130166348Y-76654691D01*
X130115000Y-76912836D01*
X130115000Y-76912839D01*
X130097663Y-77000000D01*
X130115000Y-77087161D01*
X130115000Y-77143541D01*
X130042191Y-77192191D01*
X130000000Y-77255334D01*
X129957809Y-77192191D01*
X129885000Y-77143541D01*
X129885000Y-74366578D01*
X133866579Y-70385000D01*
X139212839Y-70385000D01*
X139300000Y-70402337D01*
X139387161Y-70385000D01*
X139387165Y-70385000D01*
X139645310Y-70333652D01*
X139938049Y-70138049D01*
X139987425Y-70064153D01*
X141564156Y-68487423D01*
X141638049Y-68438049D01*
X141687425Y-68364154D01*
X141744238Y-68279127D01*
X141805378Y-68187625D01*
X141959586Y-68084586D01*
X142154127Y-67793436D01*
X142222440Y-67450001D01*
X142222440Y-66549999D01*
X142154127Y-66206564D01*
X141959586Y-65915414D01*
X141668436Y-65720873D01*
X141325001Y-65652560D01*
X140674999Y-65652560D01*
X140331564Y-65720873D01*
X140040414Y-65915414D01*
X139975000Y-66013313D01*
X139909586Y-65915414D01*
X139885000Y-65898986D01*
X139885000Y-62547440D01*
X139900000Y-62547440D01*
X140147765Y-62498157D01*
X140357809Y-62357809D01*
X140490058Y-62159886D01*
X140524890Y-62194718D01*
X140639447Y-62080161D01*
X140725852Y-62336643D01*
X141299336Y-62546458D01*
X141909460Y-62520839D01*
X142354148Y-62336643D01*
X142440554Y-62080159D01*
X141540000Y-61179605D01*
X141525858Y-61193748D01*
X141346253Y-61014143D01*
X141360395Y-61000000D01*
X141719605Y-61000000D01*
X142620159Y-61900554D01*
X142876643Y-61814148D01*
X143041447Y-61363690D01*
X149015000Y-61363690D01*
X149015000Y-62054250D01*
X149173750Y-62213000D01*
X150373000Y-62213000D01*
X150373000Y-61013750D01*
X150627000Y-61013750D01*
X150627000Y-62213000D01*
X151826250Y-62213000D01*
X151985000Y-62054250D01*
X151985000Y-61363690D01*
X151888327Y-61130301D01*
X151709698Y-60951673D01*
X151476309Y-60855000D01*
X150785750Y-60855000D01*
X150627000Y-61013750D01*
X150373000Y-61013750D01*
X150214250Y-60855000D01*
X149523691Y-60855000D01*
X149290302Y-60951673D01*
X149111673Y-61130301D01*
X149015000Y-61363690D01*
X143041447Y-61363690D01*
X143086458Y-61240664D01*
X143060839Y-60630540D01*
X142876643Y-60185852D01*
X142620159Y-60099446D01*
X141719605Y-61000000D01*
X141360395Y-61000000D01*
X141346253Y-60985858D01*
X141525858Y-60806253D01*
X141540000Y-60820395D01*
X142440554Y-59919841D01*
X142354148Y-59663357D01*
X141780664Y-59453542D01*
X141170540Y-59479161D01*
X140725852Y-59663357D01*
X140639447Y-59919839D01*
X140524890Y-59805282D01*
X140490058Y-59840114D01*
X140357809Y-59642191D01*
X140147765Y-59501843D01*
X139900000Y-59452560D01*
X138100000Y-59452560D01*
X137852235Y-59501843D01*
X137642191Y-59642191D01*
X137501843Y-59852235D01*
X137452560Y-60100000D01*
X137452560Y-61900000D01*
X137501843Y-62147765D01*
X137642191Y-62357809D01*
X137852235Y-62498157D01*
X138100000Y-62547440D01*
X138115000Y-62547440D01*
X138115001Y-65832167D01*
X137990414Y-65915414D01*
X137795873Y-66206564D01*
X137727560Y-66549999D01*
X137727560Y-67450001D01*
X137795873Y-67793436D01*
X137990414Y-68084586D01*
X138281564Y-68279127D01*
X138624999Y-68347440D01*
X139200982Y-68347440D01*
X138933422Y-68615000D01*
X133587160Y-68615000D01*
X133499999Y-68597663D01*
X133412838Y-68615000D01*
X133412835Y-68615000D01*
X133154690Y-68666348D01*
X132935845Y-68812576D01*
X132935844Y-68812577D01*
X132861951Y-68861951D01*
X132812577Y-68935844D01*
X128435847Y-73312575D01*
X128361951Y-73361951D01*
X128166348Y-73654691D01*
X128115000Y-73912836D01*
X128115000Y-73912839D01*
X128097663Y-74000000D01*
X128115000Y-74087161D01*
X128115001Y-77143541D01*
X128042191Y-77192191D01*
X128000000Y-77255334D01*
X127957809Y-77192191D01*
X127885000Y-77143541D01*
X127885000Y-70416578D01*
X129954139Y-68347440D01*
X130375001Y-68347440D01*
X130718436Y-68279127D01*
X131009586Y-68084586D01*
X131204127Y-67793436D01*
X131272440Y-67450001D01*
X131272440Y-66549999D01*
X131204127Y-66206564D01*
X131009586Y-65915414D01*
X130718436Y-65720873D01*
X130375001Y-65652560D01*
X129724999Y-65652560D01*
X129381564Y-65720873D01*
X129090414Y-65915414D01*
X129025000Y-66013313D01*
X128959586Y-65915414D01*
X128885000Y-65865577D01*
X128885000Y-62547440D01*
X128900000Y-62547440D01*
X129147765Y-62498157D01*
X129357809Y-62357809D01*
X129490058Y-62159886D01*
X129524890Y-62194718D01*
X129639447Y-62080161D01*
X129725852Y-62336643D01*
X130299336Y-62546458D01*
X130909460Y-62520839D01*
X131354148Y-62336643D01*
X131440554Y-62080159D01*
X130540000Y-61179605D01*
X130525858Y-61193748D01*
X130346253Y-61014143D01*
X130360395Y-61000000D01*
X130719605Y-61000000D01*
X131620159Y-61900554D01*
X131876643Y-61814148D01*
X132086458Y-61240664D01*
X132060839Y-60630540D01*
X131876643Y-60185852D01*
X131620159Y-60099446D01*
X130719605Y-61000000D01*
X130360395Y-61000000D01*
X130346253Y-60985858D01*
X130525858Y-60806253D01*
X130540000Y-60820395D01*
X131440554Y-59919841D01*
X131354148Y-59663357D01*
X130780664Y-59453542D01*
X130170540Y-59479161D01*
X129725852Y-59663357D01*
X129639447Y-59919839D01*
X129524890Y-59805282D01*
X129490058Y-59840114D01*
X129357809Y-59642191D01*
X129147765Y-59501843D01*
X128900000Y-59452560D01*
X127100000Y-59452560D01*
X126852235Y-59501843D01*
X126642191Y-59642191D01*
X126501843Y-59852235D01*
X126452560Y-60100000D01*
X126452560Y-61900000D01*
X126501843Y-62147765D01*
X126642191Y-62357809D01*
X126852235Y-62498157D01*
X127100000Y-62547440D01*
X127115000Y-62547440D01*
X127115001Y-65865577D01*
X127040414Y-65915414D01*
X126845873Y-66206564D01*
X126777560Y-66549999D01*
X126777560Y-67450001D01*
X126845873Y-67793436D01*
X127040414Y-68084586D01*
X127331564Y-68279127D01*
X127488148Y-68310273D01*
X126435847Y-69362575D01*
X126361951Y-69411951D01*
X126166348Y-69704691D01*
X126115000Y-69962836D01*
X126115000Y-69962839D01*
X126097663Y-70050000D01*
X126115000Y-70137161D01*
X126115001Y-77143541D01*
X126042191Y-77192191D01*
X126000000Y-77255334D01*
X125957809Y-77192191D01*
X125885000Y-77143541D01*
X125885000Y-73887159D01*
X125902337Y-73799999D01*
X125885000Y-73712839D01*
X125885000Y-73712835D01*
X125833652Y-73454690D01*
X125638049Y-73161951D01*
X125564156Y-73112577D01*
X120169206Y-67717628D01*
X120222440Y-67450001D01*
X120222440Y-66549999D01*
X120154127Y-66206564D01*
X119959586Y-65915414D01*
X119668436Y-65720873D01*
X119325001Y-65652560D01*
X118674999Y-65652560D01*
X118331564Y-65720873D01*
X118040414Y-65915414D01*
X117975000Y-66013313D01*
X117909586Y-65915414D01*
X117885000Y-65898986D01*
X117885000Y-62547440D01*
X117900000Y-62547440D01*
X118147765Y-62498157D01*
X118357809Y-62357809D01*
X118490058Y-62159886D01*
X118524890Y-62194718D01*
X118639447Y-62080161D01*
X118725852Y-62336643D01*
X119299336Y-62546458D01*
X119909460Y-62520839D01*
X120354148Y-62336643D01*
X120440554Y-62080159D01*
X119540000Y-61179605D01*
X119525858Y-61193748D01*
X119346253Y-61014143D01*
X119360395Y-61000000D01*
X119719605Y-61000000D01*
X120620159Y-61900554D01*
X120876643Y-61814148D01*
X121086458Y-61240664D01*
X121060839Y-60630540D01*
X120876643Y-60185852D01*
X120620159Y-60099446D01*
X119719605Y-61000000D01*
X119360395Y-61000000D01*
X119346253Y-60985858D01*
X119525858Y-60806253D01*
X119540000Y-60820395D01*
X120440554Y-59919841D01*
X120354148Y-59663357D01*
X119780664Y-59453542D01*
X119170540Y-59479161D01*
X118725852Y-59663357D01*
X118639447Y-59919839D01*
X118524890Y-59805282D01*
X118490058Y-59840114D01*
X118357809Y-59642191D01*
X118147765Y-59501843D01*
X117900000Y-59452560D01*
X116100000Y-59452560D01*
X115852235Y-59501843D01*
X115642191Y-59642191D01*
X115501843Y-59852235D01*
X115452560Y-60100000D01*
X115452560Y-61900000D01*
X115501843Y-62147765D01*
X115642191Y-62357809D01*
X115852235Y-62498157D01*
X116100000Y-62547440D01*
X116115000Y-62547440D01*
X116115001Y-65832167D01*
X115990414Y-65915414D01*
X115795873Y-66206564D01*
X115727560Y-66549999D01*
X115727560Y-67450001D01*
X115795873Y-67793436D01*
X115990414Y-68084586D01*
X116281564Y-68279127D01*
X116624999Y-68347440D01*
X117275001Y-68347440D01*
X117618436Y-68279127D01*
X117909586Y-68084586D01*
X117975000Y-67986687D01*
X118040414Y-68084586D01*
X118194623Y-68187626D01*
X118312576Y-68364154D01*
X118312577Y-68364155D01*
X118361952Y-68438049D01*
X118435845Y-68487423D01*
X120024927Y-70076506D01*
X119913720Y-70122569D01*
X119622569Y-70413720D01*
X119465000Y-70794126D01*
X119465000Y-71205874D01*
X119615001Y-71568008D01*
X119615001Y-71615000D01*
X118885000Y-71615000D01*
X118885000Y-71068007D01*
X119035000Y-70705874D01*
X119035000Y-70294126D01*
X118877431Y-69913720D01*
X118586280Y-69622569D01*
X118205874Y-69465000D01*
X117794126Y-69465000D01*
X117413720Y-69622569D01*
X117122569Y-69913720D01*
X116965000Y-70294126D01*
X116965000Y-70705874D01*
X117115001Y-71068008D01*
X117115000Y-71615000D01*
X116385000Y-71615000D01*
X116385000Y-71068007D01*
X116535000Y-70705874D01*
X116535000Y-70294126D01*
X116377431Y-69913720D01*
X116086280Y-69622569D01*
X115705874Y-69465000D01*
X115294126Y-69465000D01*
X114913720Y-69622569D01*
X114622569Y-69913720D01*
X114465000Y-70294126D01*
X114465000Y-70705874D01*
X114615001Y-71068008D01*
X114615000Y-71617143D01*
X114444922Y-71871683D01*
X114377560Y-72210335D01*
X114377560Y-72785335D01*
X114444922Y-73123987D01*
X114557435Y-73292375D01*
X114486673Y-73363137D01*
X114390000Y-73596526D01*
X114390000Y-73962085D01*
X114548750Y-74120835D01*
X115373000Y-74120835D01*
X115373000Y-74100835D01*
X115627000Y-74100835D01*
X115627000Y-74120835D01*
X116451250Y-74120835D01*
X116610000Y-73962085D01*
X116610000Y-73596526D01*
X116522383Y-73385000D01*
X116978514Y-73385000D01*
X116890000Y-73598691D01*
X116890000Y-73964250D01*
X117048750Y-74123000D01*
X117873000Y-74123000D01*
X117873000Y-74103000D01*
X118127000Y-74103000D01*
X118127000Y-74123000D01*
X118951250Y-74123000D01*
X119110000Y-73964250D01*
X119110000Y-73598691D01*
X119021486Y-73385000D01*
X119478514Y-73385000D01*
X119390000Y-73598691D01*
X119390000Y-73964250D01*
X119548750Y-74123000D01*
X120373000Y-74123000D01*
X120373000Y-74103000D01*
X120627000Y-74103000D01*
X120627000Y-74123000D01*
X121451250Y-74123000D01*
X121610000Y-73964250D01*
X121610000Y-73598691D01*
X121513327Y-73365302D01*
X121442565Y-73294540D01*
X121555078Y-73126152D01*
X121622440Y-72787500D01*
X121622440Y-72212500D01*
X121555078Y-71873848D01*
X121385000Y-71619309D01*
X121385000Y-71568007D01*
X121423494Y-71475073D01*
X124115000Y-74166579D01*
X124115001Y-77062831D01*
X124115000Y-77062836D01*
X124115000Y-77143541D01*
X124042191Y-77192191D01*
X124000000Y-77255334D01*
X123957809Y-77192191D01*
X123747765Y-77051843D01*
X123500000Y-77002560D01*
X122500000Y-77002560D01*
X122252235Y-77051843D01*
X122042191Y-77192191D01*
X122001345Y-77253320D01*
X121859699Y-77111673D01*
X121626310Y-77015000D01*
X121285750Y-77015000D01*
X121127000Y-77173750D01*
X121127000Y-78773000D01*
X121147000Y-78773000D01*
X121147000Y-79027000D01*
X121127000Y-79027000D01*
X121127000Y-79047000D01*
X120873000Y-79047000D01*
X120873000Y-79027000D01*
X120023750Y-79027000D01*
X119865000Y-79185750D01*
X119865000Y-80276309D01*
X119896584Y-80352560D01*
X118600000Y-80352560D01*
X118352235Y-80401843D01*
X118142191Y-80542191D01*
X118001843Y-80752235D01*
X117952560Y-81000000D01*
X117952560Y-82000000D01*
X118001843Y-82247765D01*
X118142191Y-82457809D01*
X118205334Y-82500000D01*
X118142191Y-82542191D01*
X118001843Y-82752235D01*
X117952560Y-83000000D01*
X117952560Y-84000000D01*
X118001843Y-84247765D01*
X118142191Y-84457809D01*
X118205334Y-84500000D01*
X118142191Y-84542191D01*
X118104524Y-84598563D01*
X118099999Y-84597663D01*
X118012840Y-84615000D01*
X118012835Y-84615000D01*
X117754690Y-84666348D01*
X117626152Y-84752235D01*
X117535845Y-84812576D01*
X117535844Y-84812577D01*
X117461951Y-84861951D01*
X117412577Y-84935844D01*
X114435847Y-87912575D01*
X114361951Y-87961951D01*
X114166348Y-88254691D01*
X114115000Y-88512836D01*
X114115000Y-88512839D01*
X114097663Y-88600000D01*
X114115000Y-88687161D01*
X114115001Y-116412834D01*
X114097663Y-116500000D01*
X114166348Y-116845309D01*
X114312576Y-117064154D01*
X114312578Y-117064156D01*
X114361952Y-117138049D01*
X114435845Y-117187423D01*
X120812577Y-123564156D01*
X120861951Y-123638049D01*
X120935844Y-123687423D01*
X120935845Y-123687424D01*
X121046880Y-123761615D01*
X121154690Y-123833652D01*
X121412835Y-123885000D01*
X121412839Y-123885000D01*
X121499999Y-123902337D01*
X121587159Y-123885000D01*
X122115577Y-123885000D01*
X122165414Y-123959586D01*
X122263313Y-124025000D01*
X122165414Y-124090414D01*
X121970873Y-124381564D01*
X121902560Y-124724999D01*
X121902560Y-125375001D01*
X121970873Y-125718436D01*
X122165414Y-126009586D01*
X122456564Y-126204127D01*
X122799999Y-126272440D01*
X123700001Y-126272440D01*
X124043436Y-126204127D01*
X124334586Y-126009586D01*
X124384423Y-125935000D01*
X127459522Y-125935000D01*
X127501843Y-126147765D01*
X127642191Y-126357809D01*
X127852235Y-126498157D01*
X128100000Y-126547440D01*
X129900000Y-126547440D01*
X130147765Y-126498157D01*
X130357809Y-126357809D01*
X130490058Y-126159886D01*
X130524890Y-126194718D01*
X130639447Y-126080161D01*
X130725852Y-126336643D01*
X131299336Y-126546458D01*
X131909460Y-126520839D01*
X132354148Y-126336643D01*
X132440554Y-126080159D01*
X131540000Y-125179605D01*
X131525858Y-125193748D01*
X131346253Y-125014143D01*
X131360395Y-125000000D01*
X131719605Y-125000000D01*
X132620159Y-125900554D01*
X132876643Y-125814148D01*
X133086458Y-125240664D01*
X133060839Y-124630540D01*
X132876643Y-124185852D01*
X132620159Y-124099446D01*
X131719605Y-125000000D01*
X131360395Y-125000000D01*
X131346253Y-124985858D01*
X131525858Y-124806253D01*
X131540000Y-124820395D01*
X132440554Y-123919841D01*
X132354148Y-123663357D01*
X131780664Y-123453542D01*
X131170540Y-123479161D01*
X130725852Y-123663357D01*
X130639447Y-123919839D01*
X130524890Y-123805282D01*
X130490058Y-123840114D01*
X130357809Y-123642191D01*
X130147765Y-123501843D01*
X129900000Y-123452560D01*
X128100000Y-123452560D01*
X127852235Y-123501843D01*
X127642191Y-123642191D01*
X127501843Y-123852235D01*
X127452560Y-124100000D01*
X127452560Y-124165000D01*
X124384423Y-124165000D01*
X124334586Y-124090414D01*
X124236687Y-124025000D01*
X124334586Y-123959586D01*
X124529127Y-123668436D01*
X124597440Y-123325001D01*
X124597440Y-122674999D01*
X124529127Y-122331564D01*
X124334586Y-122040414D01*
X124043436Y-121845873D01*
X123700001Y-121777560D01*
X122799999Y-121777560D01*
X122456564Y-121845873D01*
X122165414Y-122040414D01*
X122115577Y-122115000D01*
X121866579Y-122115000D01*
X121451579Y-121700000D01*
X141302560Y-121700000D01*
X141302560Y-123700000D01*
X141351843Y-123947765D01*
X141492191Y-124157809D01*
X141702235Y-124298157D01*
X141950000Y-124347440D01*
X143450000Y-124347440D01*
X143697765Y-124298157D01*
X143849047Y-124197073D01*
X143890301Y-124238327D01*
X144123690Y-124335000D01*
X144714250Y-124335000D01*
X144873000Y-124176250D01*
X144873000Y-122827000D01*
X144853000Y-122827000D01*
X144853000Y-122573000D01*
X144873000Y-122573000D01*
X144873000Y-121223750D01*
X144714250Y-121065000D01*
X144123690Y-121065000D01*
X143890301Y-121161673D01*
X143849047Y-121202927D01*
X143835000Y-121193541D01*
X143835000Y-120770131D01*
X144531158Y-120073973D01*
X144626152Y-120055078D01*
X144875000Y-119888803D01*
X145123848Y-120055078D01*
X145462500Y-120122440D01*
X145620862Y-120122440D01*
X146415000Y-120916579D01*
X146415000Y-121079413D01*
X146302235Y-121101843D01*
X146150953Y-121202927D01*
X146109699Y-121161673D01*
X145876310Y-121065000D01*
X145285750Y-121065000D01*
X145127000Y-121223750D01*
X145127000Y-122573000D01*
X145147000Y-122573000D01*
X145147000Y-122827000D01*
X145127000Y-122827000D01*
X145127000Y-124176250D01*
X145285750Y-124335000D01*
X145876310Y-124335000D01*
X146109699Y-124238327D01*
X146150953Y-124197073D01*
X146302235Y-124298157D01*
X146550000Y-124347440D01*
X147695862Y-124347440D01*
X149162577Y-125814156D01*
X149211951Y-125888049D01*
X149285844Y-125937423D01*
X149285845Y-125937424D01*
X149308164Y-125952337D01*
X149504690Y-126083652D01*
X149762835Y-126135000D01*
X149762839Y-126135000D01*
X149850000Y-126152337D01*
X149937161Y-126135000D01*
X149978514Y-126135000D01*
X149890000Y-126348691D01*
X149890000Y-126714250D01*
X150048750Y-126873000D01*
X150873000Y-126873000D01*
X150873000Y-126853000D01*
X151127000Y-126853000D01*
X151127000Y-126873000D01*
X151951250Y-126873000D01*
X152110000Y-126714250D01*
X152110000Y-126348691D01*
X152013327Y-126115302D01*
X151942565Y-126044540D01*
X152055078Y-125876152D01*
X152122440Y-125537500D01*
X152122440Y-124962500D01*
X152055078Y-124623848D01*
X151863247Y-124336753D01*
X151576152Y-124144922D01*
X151237500Y-124077560D01*
X150762500Y-124077560D01*
X150423848Y-124144922D01*
X150167672Y-124316093D01*
X149436579Y-123585000D01*
X149712839Y-123585000D01*
X149800000Y-123602337D01*
X149887161Y-123585000D01*
X149887165Y-123585000D01*
X150138533Y-123535000D01*
X150205874Y-123535000D01*
X150586280Y-123377431D01*
X150877431Y-123086280D01*
X151035000Y-122705874D01*
X151035000Y-122294126D01*
X150877431Y-121913720D01*
X150586280Y-121622569D01*
X150205874Y-121465000D01*
X149794126Y-121465000D01*
X149413720Y-121622569D01*
X149221289Y-121815000D01*
X148697440Y-121815000D01*
X148697440Y-121700000D01*
X148648157Y-121452235D01*
X148507809Y-121242191D01*
X148297765Y-121101843D01*
X148185000Y-121079413D01*
X148185000Y-120637160D01*
X148202337Y-120549999D01*
X148185000Y-120462836D01*
X148185000Y-120462835D01*
X148133652Y-120204690D01*
X147938049Y-119911951D01*
X147864156Y-119862577D01*
X146922440Y-118920862D01*
X146922440Y-118762500D01*
X146855078Y-118423848D01*
X146663247Y-118136753D01*
X146376152Y-117944922D01*
X146037500Y-117877560D01*
X145727571Y-117877560D01*
X146470132Y-117135000D01*
X149025719Y-117135000D01*
X149420582Y-117398839D01*
X149853744Y-117485000D01*
X150146256Y-117485000D01*
X150579418Y-117398839D01*
X151070625Y-117070625D01*
X151398839Y-116579418D01*
X151514092Y-116000000D01*
X151398839Y-115420582D01*
X151070625Y-114929375D01*
X151052381Y-114917184D01*
X151097765Y-114908157D01*
X151307809Y-114767809D01*
X151448157Y-114557765D01*
X151497440Y-114310000D01*
X151497440Y-112610000D01*
X151448157Y-112362235D01*
X151307809Y-112152191D01*
X151097765Y-112011843D01*
X150850000Y-111962560D01*
X149150000Y-111962560D01*
X148902235Y-112011843D01*
X148692191Y-112152191D01*
X148551843Y-112362235D01*
X148502560Y-112610000D01*
X148502560Y-114310000D01*
X148551843Y-114557765D01*
X148692191Y-114767809D01*
X148837646Y-114865000D01*
X147135000Y-114865000D01*
X147135000Y-111104263D01*
X148761283Y-109477981D01*
X148828592Y-109477981D01*
X149172027Y-109409668D01*
X149463177Y-109215127D01*
X149528591Y-109117228D01*
X149594005Y-109215127D01*
X149885155Y-109409668D01*
X150228590Y-109477981D01*
X150878592Y-109477981D01*
X151222027Y-109409668D01*
X151513177Y-109215127D01*
X151707718Y-108923977D01*
X151776031Y-108580542D01*
X151776031Y-107680540D01*
X151707718Y-107337105D01*
X151513177Y-107045955D01*
X151438591Y-106996118D01*
X151438591Y-106264964D01*
X151513177Y-106215127D01*
X151707718Y-105923977D01*
X151776031Y-105580542D01*
X151776031Y-104680540D01*
X151707718Y-104337105D01*
X151513177Y-104045955D01*
X151438591Y-103996118D01*
X151438591Y-101938626D01*
X151535000Y-101705874D01*
X151535000Y-101294126D01*
X151377431Y-100913720D01*
X151086280Y-100622569D01*
X150705874Y-100465000D01*
X150294126Y-100465000D01*
X149913720Y-100622569D01*
X149622569Y-100913720D01*
X149465000Y-101294126D01*
X149465000Y-101705874D01*
X149622569Y-102086280D01*
X149668592Y-102132303D01*
X149668591Y-103996118D01*
X149594005Y-104045955D01*
X149528591Y-104143854D01*
X149463177Y-104045955D01*
X149388591Y-103996118D01*
X149388591Y-103559337D01*
X149535000Y-103205874D01*
X149535000Y-102794126D01*
X149377431Y-102413720D01*
X149086280Y-102122569D01*
X148705874Y-101965000D01*
X148294126Y-101965000D01*
X147913720Y-102122569D01*
X147622569Y-102413720D01*
X147465000Y-102794126D01*
X147465000Y-103205874D01*
X147618592Y-103576678D01*
X147618592Y-103996118D01*
X147544005Y-104045955D01*
X147349464Y-104337105D01*
X147281151Y-104680540D01*
X147281151Y-105580542D01*
X147349464Y-105923977D01*
X147544005Y-106215127D01*
X147835155Y-106409668D01*
X148178590Y-106477981D01*
X148828592Y-106477981D01*
X149172027Y-106409668D01*
X149463177Y-106215127D01*
X149528591Y-106117228D01*
X149594005Y-106215127D01*
X149668592Y-106264964D01*
X149668591Y-106996118D01*
X149594005Y-107045955D01*
X149528591Y-107143854D01*
X149463177Y-107045955D01*
X149172027Y-106851414D01*
X148828592Y-106783101D01*
X148178590Y-106783101D01*
X147835155Y-106851414D01*
X147544005Y-107045955D01*
X147349464Y-107337105D01*
X147281151Y-107680540D01*
X147281151Y-107747849D01*
X145276480Y-109752521D01*
X145181712Y-109815843D01*
X144996085Y-110093654D01*
X144930854Y-110191278D01*
X144842765Y-110634132D01*
X144865001Y-110745920D01*
X144865000Y-115529868D01*
X143276480Y-117118389D01*
X143181712Y-117181711D01*
X142930854Y-117557145D01*
X142930854Y-117557146D01*
X142842765Y-118000000D01*
X142865000Y-118111783D01*
X142865000Y-118529868D01*
X141976480Y-119418389D01*
X141881712Y-119481711D01*
X141770827Y-119647662D01*
X141630854Y-119857146D01*
X141542765Y-120300000D01*
X141565001Y-120411788D01*
X141565001Y-121193541D01*
X141492191Y-121242191D01*
X141351843Y-121452235D01*
X141302560Y-121700000D01*
X121451579Y-121700000D01*
X115885000Y-116133422D01*
X115885000Y-110174778D01*
X117365000Y-110174778D01*
X117365000Y-110825222D01*
X117613914Y-111426153D01*
X118073847Y-111886086D01*
X118674778Y-112135000D01*
X119325222Y-112135000D01*
X119926153Y-111886086D01*
X120386086Y-111426153D01*
X120635000Y-110825222D01*
X120635000Y-110174778D01*
X123865000Y-110174778D01*
X123865000Y-110825222D01*
X124113914Y-111426153D01*
X124573847Y-111886086D01*
X125174778Y-112135000D01*
X125825222Y-112135000D01*
X126426153Y-111886086D01*
X126886086Y-111426153D01*
X127135000Y-110825222D01*
X127135000Y-110174778D01*
X133365000Y-110174778D01*
X133365000Y-110825222D01*
X133613914Y-111426153D01*
X134073847Y-111886086D01*
X134674778Y-112135000D01*
X135325222Y-112135000D01*
X135926153Y-111886086D01*
X136386086Y-111426153D01*
X136635000Y-110825222D01*
X136635000Y-110174778D01*
X139865000Y-110174778D01*
X139865000Y-110825222D01*
X140113914Y-111426153D01*
X140573847Y-111886086D01*
X141174778Y-112135000D01*
X141825222Y-112135000D01*
X142426153Y-111886086D01*
X142886086Y-111426153D01*
X143135000Y-110825222D01*
X143135000Y-110174778D01*
X142886086Y-109573847D01*
X142426153Y-109113914D01*
X141825222Y-108865000D01*
X141174778Y-108865000D01*
X140573847Y-109113914D01*
X140113914Y-109573847D01*
X139865000Y-110174778D01*
X136635000Y-110174778D01*
X136386086Y-109573847D01*
X135926153Y-109113914D01*
X135325222Y-108865000D01*
X134674778Y-108865000D01*
X134073847Y-109113914D01*
X133613914Y-109573847D01*
X133365000Y-110174778D01*
X127135000Y-110174778D01*
X126886086Y-109573847D01*
X126426153Y-109113914D01*
X125825222Y-108865000D01*
X125174778Y-108865000D01*
X124573847Y-109113914D01*
X124113914Y-109573847D01*
X123865000Y-110174778D01*
X120635000Y-110174778D01*
X120386086Y-109573847D01*
X119926153Y-109113914D01*
X119325222Y-108865000D01*
X118674778Y-108865000D01*
X118073847Y-109113914D01*
X117613914Y-109573847D01*
X117365000Y-110174778D01*
X115885000Y-110174778D01*
X115885000Y-105674778D01*
X117365000Y-105674778D01*
X117365000Y-106325222D01*
X117613914Y-106926153D01*
X118073847Y-107386086D01*
X118674778Y-107635000D01*
X119325222Y-107635000D01*
X119926153Y-107386086D01*
X120386086Y-106926153D01*
X120635000Y-106325222D01*
X120635000Y-105674778D01*
X123865000Y-105674778D01*
X123865000Y-106325222D01*
X124113914Y-106926153D01*
X124573847Y-107386086D01*
X125174778Y-107635000D01*
X125825222Y-107635000D01*
X126426153Y-107386086D01*
X126886086Y-106926153D01*
X127135000Y-106325222D01*
X127135000Y-105674778D01*
X133365000Y-105674778D01*
X133365000Y-106325222D01*
X133613914Y-106926153D01*
X134073847Y-107386086D01*
X134674778Y-107635000D01*
X135325222Y-107635000D01*
X135926153Y-107386086D01*
X136386086Y-106926153D01*
X136635000Y-106325222D01*
X136635000Y-105674778D01*
X139865000Y-105674778D01*
X139865000Y-106325222D01*
X140113914Y-106926153D01*
X140573847Y-107386086D01*
X141174778Y-107635000D01*
X141825222Y-107635000D01*
X142426153Y-107386086D01*
X142886086Y-106926153D01*
X143135000Y-106325222D01*
X143135000Y-105674778D01*
X142886086Y-105073847D01*
X142426153Y-104613914D01*
X141825222Y-104365000D01*
X141174778Y-104365000D01*
X140573847Y-104613914D01*
X140113914Y-105073847D01*
X139865000Y-105674778D01*
X136635000Y-105674778D01*
X136386086Y-105073847D01*
X135926153Y-104613914D01*
X135325222Y-104365000D01*
X134674778Y-104365000D01*
X134073847Y-104613914D01*
X133613914Y-105073847D01*
X133365000Y-105674778D01*
X127135000Y-105674778D01*
X126886086Y-105073847D01*
X126426153Y-104613914D01*
X125825222Y-104365000D01*
X125174778Y-104365000D01*
X124573847Y-104613914D01*
X124113914Y-105073847D01*
X123865000Y-105674778D01*
X120635000Y-105674778D01*
X120386086Y-105073847D01*
X119926153Y-104613914D01*
X119325222Y-104365000D01*
X118674778Y-104365000D01*
X118073847Y-104613914D01*
X117613914Y-105073847D01*
X117365000Y-105674778D01*
X115885000Y-105674778D01*
X115885000Y-88966578D01*
X117977634Y-86873945D01*
X117952560Y-87000000D01*
X117952560Y-88000000D01*
X118001843Y-88247765D01*
X118142191Y-88457809D01*
X118205334Y-88500000D01*
X118142191Y-88542191D01*
X118001843Y-88752235D01*
X117952560Y-89000000D01*
X117952560Y-90000000D01*
X118001843Y-90247765D01*
X118142191Y-90457809D01*
X118205334Y-90500000D01*
X118142191Y-90542191D01*
X118001843Y-90752235D01*
X117952560Y-91000000D01*
X117952560Y-92000000D01*
X118001843Y-92247765D01*
X118142191Y-92457809D01*
X118352235Y-92598157D01*
X118600000Y-92647440D01*
X119892851Y-92647440D01*
X119852560Y-92850000D01*
X119852560Y-95350000D01*
X119901843Y-95597765D01*
X120042191Y-95807809D01*
X120115001Y-95856459D01*
X120115000Y-99431993D01*
X119965000Y-99794126D01*
X119965000Y-100205874D01*
X120122569Y-100586280D01*
X120413720Y-100877431D01*
X120794126Y-101035000D01*
X121205874Y-101035000D01*
X121447296Y-100935000D01*
X121865577Y-100935000D01*
X121915414Y-101009586D01*
X122206564Y-101204127D01*
X122549999Y-101272440D01*
X123450001Y-101272440D01*
X123793436Y-101204127D01*
X124084586Y-101009586D01*
X124279127Y-100718436D01*
X124347440Y-100375001D01*
X124347440Y-100285750D01*
X124665000Y-100285750D01*
X124665000Y-100701309D01*
X124761673Y-100934698D01*
X124940301Y-101113327D01*
X125173690Y-101210000D01*
X125714250Y-101210000D01*
X125873000Y-101051250D01*
X125873000Y-100127000D01*
X126127000Y-100127000D01*
X126127000Y-101051250D01*
X126285750Y-101210000D01*
X126826310Y-101210000D01*
X127059699Y-101113327D01*
X127238327Y-100934698D01*
X127335000Y-100701309D01*
X127335000Y-100285750D01*
X127176250Y-100127000D01*
X126127000Y-100127000D01*
X125873000Y-100127000D01*
X124823750Y-100127000D01*
X124665000Y-100285750D01*
X124347440Y-100285750D01*
X124347440Y-99724999D01*
X124279127Y-99381564D01*
X124084586Y-99090414D01*
X123986687Y-99025000D01*
X124084586Y-98959586D01*
X124279127Y-98668436D01*
X124347440Y-98325001D01*
X124347440Y-97674999D01*
X124316662Y-97520269D01*
X124361952Y-97588049D01*
X124435845Y-97637423D01*
X124652560Y-97854138D01*
X124652560Y-98275001D01*
X124720873Y-98618436D01*
X124915414Y-98909586D01*
X124916597Y-98910377D01*
X124761673Y-99065302D01*
X124665000Y-99298691D01*
X124665000Y-99714250D01*
X124823750Y-99873000D01*
X125873000Y-99873000D01*
X125873000Y-99853000D01*
X126127000Y-99853000D01*
X126127000Y-99873000D01*
X127176250Y-99873000D01*
X127335000Y-99714250D01*
X127335000Y-99298691D01*
X127238327Y-99065302D01*
X127083403Y-98910377D01*
X127084586Y-98909586D01*
X127279127Y-98618436D01*
X127347440Y-98275001D01*
X127347440Y-97624999D01*
X127340989Y-97592567D01*
X129312577Y-99564156D01*
X129361951Y-99638049D01*
X129435844Y-99687423D01*
X129435845Y-99687424D01*
X129461687Y-99704691D01*
X129654690Y-99833652D01*
X129912835Y-99885000D01*
X129912839Y-99885000D01*
X130000000Y-99902337D01*
X130087161Y-99885000D01*
X147912839Y-99885000D01*
X148000000Y-99902337D01*
X148087161Y-99885000D01*
X148087165Y-99885000D01*
X148345310Y-99833652D01*
X148638049Y-99638049D01*
X148687425Y-99564153D01*
X154064156Y-94187423D01*
X154138049Y-94138049D01*
X154290000Y-93910639D01*
X154290001Y-139290000D01*
X105710000Y-139290000D01*
X105710000Y-135033352D01*
X107270204Y-135033352D01*
X107389288Y-135798175D01*
X107718246Y-136498832D01*
X108230633Y-137079000D01*
X108885258Y-137492037D01*
X109629496Y-137704742D01*
X110403520Y-137700013D01*
X111145104Y-137478233D01*
X111794634Y-137057228D01*
X112299895Y-136470844D01*
X112620268Y-135766220D01*
X112730000Y-135000000D01*
X112729185Y-134933300D01*
X112600766Y-134169990D01*
X112263273Y-133473403D01*
X111743836Y-132899539D01*
X111084214Y-132494530D01*
X110337432Y-132290934D01*
X109563524Y-132305118D01*
X108824705Y-132535942D01*
X108180366Y-132964851D01*
X107682307Y-133557363D01*
X107370566Y-134265849D01*
X107270204Y-135033352D01*
X105710000Y-135033352D01*
X105710000Y-129285750D01*
X142465000Y-129285750D01*
X142465000Y-130126309D01*
X142561673Y-130359698D01*
X142740301Y-130538327D01*
X142973690Y-130635000D01*
X144714250Y-130635000D01*
X144873000Y-130476250D01*
X144873000Y-129127000D01*
X145127000Y-129127000D01*
X145127000Y-130476250D01*
X145285750Y-130635000D01*
X147026310Y-130635000D01*
X147259699Y-130538327D01*
X147438327Y-130359698D01*
X147535000Y-130126309D01*
X147535000Y-129285750D01*
X147376250Y-129127000D01*
X145127000Y-129127000D01*
X144873000Y-129127000D01*
X142623750Y-129127000D01*
X142465000Y-129285750D01*
X105710000Y-129285750D01*
X105710000Y-127873691D01*
X142465000Y-127873691D01*
X142465000Y-128714250D01*
X142623750Y-128873000D01*
X144873000Y-128873000D01*
X144873000Y-127523750D01*
X145127000Y-127523750D01*
X145127000Y-128873000D01*
X147376250Y-128873000D01*
X147535000Y-128714250D01*
X147535000Y-127873691D01*
X147438327Y-127640302D01*
X147259699Y-127461673D01*
X147026310Y-127365000D01*
X145285750Y-127365000D01*
X145127000Y-127523750D01*
X144873000Y-127523750D01*
X144714250Y-127365000D01*
X142973690Y-127365000D01*
X142740301Y-127461673D01*
X142561673Y-127640302D01*
X142465000Y-127873691D01*
X105710000Y-127873691D01*
X105710000Y-127285750D01*
X149890000Y-127285750D01*
X149890000Y-127651309D01*
X149986673Y-127884698D01*
X150165301Y-128063327D01*
X150398690Y-128160000D01*
X150714250Y-128160000D01*
X150873000Y-128001250D01*
X150873000Y-127127000D01*
X151127000Y-127127000D01*
X151127000Y-128001250D01*
X151285750Y-128160000D01*
X151601310Y-128160000D01*
X151834699Y-128063327D01*
X152013327Y-127884698D01*
X152110000Y-127651309D01*
X152110000Y-127285750D01*
X151951250Y-127127000D01*
X151127000Y-127127000D01*
X150873000Y-127127000D01*
X150048750Y-127127000D01*
X149890000Y-127285750D01*
X105710000Y-127285750D01*
X105710000Y-77523691D01*
X119865000Y-77523691D01*
X119865000Y-78614250D01*
X120023750Y-78773000D01*
X120873000Y-78773000D01*
X120873000Y-77173750D01*
X120714250Y-77015000D01*
X120373690Y-77015000D01*
X120140301Y-77111673D01*
X119961673Y-77290302D01*
X119865000Y-77523691D01*
X105710000Y-77523691D01*
X105710000Y-74533585D01*
X114390000Y-74533585D01*
X114390000Y-74899144D01*
X114486673Y-75132533D01*
X114665301Y-75311162D01*
X114898690Y-75407835D01*
X115214250Y-75407835D01*
X115373000Y-75249085D01*
X115373000Y-74374835D01*
X115627000Y-74374835D01*
X115627000Y-75249085D01*
X115785750Y-75407835D01*
X116101310Y-75407835D01*
X116334699Y-75311162D01*
X116513327Y-75132533D01*
X116610000Y-74899144D01*
X116610000Y-74535750D01*
X116890000Y-74535750D01*
X116890000Y-74901309D01*
X116986673Y-75134698D01*
X117165301Y-75313327D01*
X117398690Y-75410000D01*
X117714250Y-75410000D01*
X117873000Y-75251250D01*
X117873000Y-74377000D01*
X118127000Y-74377000D01*
X118127000Y-75251250D01*
X118285750Y-75410000D01*
X118601310Y-75410000D01*
X118834699Y-75313327D01*
X119013327Y-75134698D01*
X119110000Y-74901309D01*
X119110000Y-74535750D01*
X119390000Y-74535750D01*
X119390000Y-74901309D01*
X119486673Y-75134698D01*
X119665301Y-75313327D01*
X119898690Y-75410000D01*
X120214250Y-75410000D01*
X120373000Y-75251250D01*
X120373000Y-74377000D01*
X120627000Y-74377000D01*
X120627000Y-75251250D01*
X120785750Y-75410000D01*
X121101310Y-75410000D01*
X121334699Y-75313327D01*
X121513327Y-75134698D01*
X121610000Y-74901309D01*
X121610000Y-74535750D01*
X121451250Y-74377000D01*
X120627000Y-74377000D01*
X120373000Y-74377000D01*
X119548750Y-74377000D01*
X119390000Y-74535750D01*
X119110000Y-74535750D01*
X118951250Y-74377000D01*
X118127000Y-74377000D01*
X117873000Y-74377000D01*
X117048750Y-74377000D01*
X116890000Y-74535750D01*
X116610000Y-74535750D01*
X116610000Y-74533585D01*
X116451250Y-74374835D01*
X115627000Y-74374835D01*
X115373000Y-74374835D01*
X114548750Y-74374835D01*
X114390000Y-74533585D01*
X105710000Y-74533585D01*
X105710000Y-55033352D01*
X107270204Y-55033352D01*
X107389288Y-55798175D01*
X107718246Y-56498832D01*
X108230633Y-57079000D01*
X108885258Y-57492037D01*
X109629496Y-57704742D01*
X110403520Y-57700013D01*
X111145104Y-57478233D01*
X111794634Y-57057228D01*
X112299895Y-56470844D01*
X112620268Y-55766220D01*
X112725223Y-55033352D01*
X147270204Y-55033352D01*
X147389288Y-55798175D01*
X147718246Y-56498832D01*
X148230633Y-57079000D01*
X148885258Y-57492037D01*
X149629496Y-57704742D01*
X150403520Y-57700013D01*
X151145104Y-57478233D01*
X151794634Y-57057228D01*
X152299895Y-56470844D01*
X152620268Y-55766220D01*
X152730000Y-55000000D01*
X152729185Y-54933300D01*
X152600766Y-54169990D01*
X152263273Y-53473403D01*
X151743836Y-52899539D01*
X151084214Y-52494530D01*
X150337432Y-52290934D01*
X149563524Y-52305118D01*
X148824705Y-52535942D01*
X148180366Y-52964851D01*
X147682307Y-53557363D01*
X147370566Y-54265849D01*
X147270204Y-55033352D01*
X112725223Y-55033352D01*
X112730000Y-55000000D01*
X112729185Y-54933300D01*
X112600766Y-54169990D01*
X112263273Y-53473403D01*
X111743836Y-52899539D01*
X111084214Y-52494530D01*
X110337432Y-52290934D01*
X109563524Y-52305118D01*
X108824705Y-52535942D01*
X108180366Y-52964851D01*
X107682307Y-53557363D01*
X107370566Y-54265849D01*
X107270204Y-55033352D01*
X105710000Y-55033352D01*
X105710000Y-50710000D01*
X154290000Y-50710000D01*
X154290000Y-68089361D01*
X154290000Y-68089361D01*
G37*
X154290000Y-68089361D02*
X154138049Y-67861951D01*
X154064156Y-67812577D01*
X153107425Y-66855847D01*
X153058049Y-66781951D01*
X152765310Y-66586348D01*
X152507165Y-66535000D01*
X152507161Y-66535000D01*
X152420000Y-66517663D01*
X152332839Y-66535000D01*
X151694656Y-66535000D01*
X151570625Y-66349375D01*
X151272239Y-66150000D01*
X151570625Y-65950625D01*
X151898839Y-65459418D01*
X152014092Y-64880000D01*
X151898839Y-64300582D01*
X151570625Y-63809375D01*
X151548967Y-63794904D01*
X151709698Y-63728327D01*
X151888327Y-63549699D01*
X151985000Y-63316310D01*
X151985000Y-62625750D01*
X151826250Y-62467000D01*
X150627000Y-62467000D01*
X150627000Y-62487000D01*
X150373000Y-62487000D01*
X150373000Y-62467000D01*
X149173750Y-62467000D01*
X149015000Y-62625750D01*
X149015000Y-63316310D01*
X149111673Y-63549699D01*
X149290302Y-63728327D01*
X149451033Y-63794904D01*
X149429375Y-63809375D01*
X149101161Y-64300582D01*
X148985908Y-64880000D01*
X149029462Y-65098960D01*
X147935845Y-66192577D01*
X147861952Y-66241951D01*
X147812578Y-66315844D01*
X147812576Y-66315846D01*
X147666348Y-66534691D01*
X147597663Y-66880000D01*
X147615001Y-66967165D01*
X147615000Y-68633421D01*
X142435845Y-73812577D01*
X142361952Y-73861951D01*
X142312578Y-73935844D01*
X142312576Y-73935846D01*
X142187525Y-74122998D01*
X142076252Y-74122998D01*
X142235000Y-73964250D01*
X142235000Y-73423690D01*
X142138327Y-73190301D01*
X141959698Y-73011673D01*
X141726309Y-72915000D01*
X141310750Y-72915000D01*
X141152000Y-73073750D01*
X141152000Y-74123000D01*
X141172000Y-74123000D01*
X141172000Y-74377000D01*
X141152000Y-74377000D01*
X141152000Y-75426250D01*
X141310750Y-75585000D01*
X141726309Y-75585000D01*
X141959698Y-75488327D01*
X142115000Y-75333025D01*
X142115000Y-75615000D01*
X135737161Y-75615000D01*
X135650000Y-75597663D01*
X135562839Y-75615000D01*
X135562835Y-75615000D01*
X135304690Y-75666348D01*
X135085845Y-75812576D01*
X135085844Y-75812577D01*
X135035000Y-75846550D01*
X135035000Y-75794126D01*
X134877431Y-75413720D01*
X134598711Y-75135000D01*
X137882054Y-75135000D01*
X138015414Y-75334586D01*
X138306564Y-75529127D01*
X138649999Y-75597440D01*
X139300001Y-75597440D01*
X139643436Y-75529127D01*
X139934586Y-75334586D01*
X139935377Y-75333403D01*
X140090302Y-75488327D01*
X140323691Y-75585000D01*
X140739250Y-75585000D01*
X140898000Y-75426250D01*
X140898000Y-74377000D01*
X140878000Y-74377000D01*
X140878000Y-74123000D01*
X140898000Y-74123000D01*
X140898000Y-73073750D01*
X140739250Y-72915000D01*
X140323691Y-72915000D01*
X140090302Y-73011673D01*
X139935377Y-73166597D01*
X139934586Y-73165414D01*
X139643436Y-72970873D01*
X139300001Y-72902560D01*
X138649999Y-72902560D01*
X138306564Y-72970873D01*
X138015414Y-73165414D01*
X137882054Y-73365000D01*
X133837159Y-73365000D01*
X133749999Y-73347663D01*
X133662839Y-73365000D01*
X133662835Y-73365000D01*
X133404690Y-73416348D01*
X133344503Y-73456564D01*
X133185845Y-73562576D01*
X133185844Y-73562577D01*
X133111951Y-73611951D01*
X133062577Y-73685844D01*
X130435847Y-76312575D01*
X130361951Y-76361951D01*
X130166348Y-76654691D01*
X130115000Y-76912836D01*
X130115000Y-76912839D01*
X130097663Y-77000000D01*
X130115000Y-77087161D01*
X130115000Y-77143541D01*
X130042191Y-77192191D01*
X130000000Y-77255334D01*
X129957809Y-77192191D01*
X129885000Y-77143541D01*
X129885000Y-74366578D01*
X133866579Y-70385000D01*
X139212839Y-70385000D01*
X139300000Y-70402337D01*
X139387161Y-70385000D01*
X139387165Y-70385000D01*
X139645310Y-70333652D01*
X139938049Y-70138049D01*
X139987425Y-70064153D01*
X141564156Y-68487423D01*
X141638049Y-68438049D01*
X141687425Y-68364154D01*
X141744238Y-68279127D01*
X141805378Y-68187625D01*
X141959586Y-68084586D01*
X142154127Y-67793436D01*
X142222440Y-67450001D01*
X142222440Y-66549999D01*
X142154127Y-66206564D01*
X141959586Y-65915414D01*
X141668436Y-65720873D01*
X141325001Y-65652560D01*
X140674999Y-65652560D01*
X140331564Y-65720873D01*
X140040414Y-65915414D01*
X139975000Y-66013313D01*
X139909586Y-65915414D01*
X139885000Y-65898986D01*
X139885000Y-62547440D01*
X139900000Y-62547440D01*
X140147765Y-62498157D01*
X140357809Y-62357809D01*
X140490058Y-62159886D01*
X140524890Y-62194718D01*
X140639447Y-62080161D01*
X140725852Y-62336643D01*
X141299336Y-62546458D01*
X141909460Y-62520839D01*
X142354148Y-62336643D01*
X142440554Y-62080159D01*
X141540000Y-61179605D01*
X141525858Y-61193748D01*
X141346253Y-61014143D01*
X141360395Y-61000000D01*
X141719605Y-61000000D01*
X142620159Y-61900554D01*
X142876643Y-61814148D01*
X143041447Y-61363690D01*
X149015000Y-61363690D01*
X149015000Y-62054250D01*
X149173750Y-62213000D01*
X150373000Y-62213000D01*
X150373000Y-61013750D01*
X150627000Y-61013750D01*
X150627000Y-62213000D01*
X151826250Y-62213000D01*
X151985000Y-62054250D01*
X151985000Y-61363690D01*
X151888327Y-61130301D01*
X151709698Y-60951673D01*
X151476309Y-60855000D01*
X150785750Y-60855000D01*
X150627000Y-61013750D01*
X150373000Y-61013750D01*
X150214250Y-60855000D01*
X149523691Y-60855000D01*
X149290302Y-60951673D01*
X149111673Y-61130301D01*
X149015000Y-61363690D01*
X143041447Y-61363690D01*
X143086458Y-61240664D01*
X143060839Y-60630540D01*
X142876643Y-60185852D01*
X142620159Y-60099446D01*
X141719605Y-61000000D01*
X141360395Y-61000000D01*
X141346253Y-60985858D01*
X141525858Y-60806253D01*
X141540000Y-60820395D01*
X142440554Y-59919841D01*
X142354148Y-59663357D01*
X141780664Y-59453542D01*
X141170540Y-59479161D01*
X140725852Y-59663357D01*
X140639447Y-59919839D01*
X140524890Y-59805282D01*
X140490058Y-59840114D01*
X140357809Y-59642191D01*
X140147765Y-59501843D01*
X139900000Y-59452560D01*
X138100000Y-59452560D01*
X137852235Y-59501843D01*
X137642191Y-59642191D01*
X137501843Y-59852235D01*
X137452560Y-60100000D01*
X137452560Y-61900000D01*
X137501843Y-62147765D01*
X137642191Y-62357809D01*
X137852235Y-62498157D01*
X138100000Y-62547440D01*
X138115000Y-62547440D01*
X138115001Y-65832167D01*
X137990414Y-65915414D01*
X137795873Y-66206564D01*
X137727560Y-66549999D01*
X137727560Y-67450001D01*
X137795873Y-67793436D01*
X137990414Y-68084586D01*
X138281564Y-68279127D01*
X138624999Y-68347440D01*
X139200982Y-68347440D01*
X138933422Y-68615000D01*
X133587160Y-68615000D01*
X133499999Y-68597663D01*
X133412838Y-68615000D01*
X133412835Y-68615000D01*
X133154690Y-68666348D01*
X132935845Y-68812576D01*
X132935844Y-68812577D01*
X132861951Y-68861951D01*
X132812577Y-68935844D01*
X128435847Y-73312575D01*
X128361951Y-73361951D01*
X128166348Y-73654691D01*
X128115000Y-73912836D01*
X128115000Y-73912839D01*
X128097663Y-74000000D01*
X128115000Y-74087161D01*
X128115001Y-77143541D01*
X128042191Y-77192191D01*
X128000000Y-77255334D01*
X127957809Y-77192191D01*
X127885000Y-77143541D01*
X127885000Y-70416578D01*
X129954139Y-68347440D01*
X130375001Y-68347440D01*
X130718436Y-68279127D01*
X131009586Y-68084586D01*
X131204127Y-67793436D01*
X131272440Y-67450001D01*
X131272440Y-66549999D01*
X131204127Y-66206564D01*
X131009586Y-65915414D01*
X130718436Y-65720873D01*
X130375001Y-65652560D01*
X129724999Y-65652560D01*
X129381564Y-65720873D01*
X129090414Y-65915414D01*
X129025000Y-66013313D01*
X128959586Y-65915414D01*
X128885000Y-65865577D01*
X128885000Y-62547440D01*
X128900000Y-62547440D01*
X129147765Y-62498157D01*
X129357809Y-62357809D01*
X129490058Y-62159886D01*
X129524890Y-62194718D01*
X129639447Y-62080161D01*
X129725852Y-62336643D01*
X130299336Y-62546458D01*
X130909460Y-62520839D01*
X131354148Y-62336643D01*
X131440554Y-62080159D01*
X130540000Y-61179605D01*
X130525858Y-61193748D01*
X130346253Y-61014143D01*
X130360395Y-61000000D01*
X130719605Y-61000000D01*
X131620159Y-61900554D01*
X131876643Y-61814148D01*
X132086458Y-61240664D01*
X132060839Y-60630540D01*
X131876643Y-60185852D01*
X131620159Y-60099446D01*
X130719605Y-61000000D01*
X130360395Y-61000000D01*
X130346253Y-60985858D01*
X130525858Y-60806253D01*
X130540000Y-60820395D01*
X131440554Y-59919841D01*
X131354148Y-59663357D01*
X130780664Y-59453542D01*
X130170540Y-59479161D01*
X129725852Y-59663357D01*
X129639447Y-59919839D01*
X129524890Y-59805282D01*
X129490058Y-59840114D01*
X129357809Y-59642191D01*
X129147765Y-59501843D01*
X128900000Y-59452560D01*
X127100000Y-59452560D01*
X126852235Y-59501843D01*
X126642191Y-59642191D01*
X126501843Y-59852235D01*
X126452560Y-60100000D01*
X126452560Y-61900000D01*
X126501843Y-62147765D01*
X126642191Y-62357809D01*
X126852235Y-62498157D01*
X127100000Y-62547440D01*
X127115000Y-62547440D01*
X127115001Y-65865577D01*
X127040414Y-65915414D01*
X126845873Y-66206564D01*
X126777560Y-66549999D01*
X126777560Y-67450001D01*
X126845873Y-67793436D01*
X127040414Y-68084586D01*
X127331564Y-68279127D01*
X127488148Y-68310273D01*
X126435847Y-69362575D01*
X126361951Y-69411951D01*
X126166348Y-69704691D01*
X126115000Y-69962836D01*
X126115000Y-69962839D01*
X126097663Y-70050000D01*
X126115000Y-70137161D01*
X126115001Y-77143541D01*
X126042191Y-77192191D01*
X126000000Y-77255334D01*
X125957809Y-77192191D01*
X125885000Y-77143541D01*
X125885000Y-73887159D01*
X125902337Y-73799999D01*
X125885000Y-73712839D01*
X125885000Y-73712835D01*
X125833652Y-73454690D01*
X125638049Y-73161951D01*
X125564156Y-73112577D01*
X120169206Y-67717628D01*
X120222440Y-67450001D01*
X120222440Y-66549999D01*
X120154127Y-66206564D01*
X119959586Y-65915414D01*
X119668436Y-65720873D01*
X119325001Y-65652560D01*
X118674999Y-65652560D01*
X118331564Y-65720873D01*
X118040414Y-65915414D01*
X117975000Y-66013313D01*
X117909586Y-65915414D01*
X117885000Y-65898986D01*
X117885000Y-62547440D01*
X117900000Y-62547440D01*
X118147765Y-62498157D01*
X118357809Y-62357809D01*
X118490058Y-62159886D01*
X118524890Y-62194718D01*
X118639447Y-62080161D01*
X118725852Y-62336643D01*
X119299336Y-62546458D01*
X119909460Y-62520839D01*
X120354148Y-62336643D01*
X120440554Y-62080159D01*
X119540000Y-61179605D01*
X119525858Y-61193748D01*
X119346253Y-61014143D01*
X119360395Y-61000000D01*
X119719605Y-61000000D01*
X120620159Y-61900554D01*
X120876643Y-61814148D01*
X121086458Y-61240664D01*
X121060839Y-60630540D01*
X120876643Y-60185852D01*
X120620159Y-60099446D01*
X119719605Y-61000000D01*
X119360395Y-61000000D01*
X119346253Y-60985858D01*
X119525858Y-60806253D01*
X119540000Y-60820395D01*
X120440554Y-59919841D01*
X120354148Y-59663357D01*
X119780664Y-59453542D01*
X119170540Y-59479161D01*
X118725852Y-59663357D01*
X118639447Y-59919839D01*
X118524890Y-59805282D01*
X118490058Y-59840114D01*
X118357809Y-59642191D01*
X118147765Y-59501843D01*
X117900000Y-59452560D01*
X116100000Y-59452560D01*
X115852235Y-59501843D01*
X115642191Y-59642191D01*
X115501843Y-59852235D01*
X115452560Y-60100000D01*
X115452560Y-61900000D01*
X115501843Y-62147765D01*
X115642191Y-62357809D01*
X115852235Y-62498157D01*
X116100000Y-62547440D01*
X116115000Y-62547440D01*
X116115001Y-65832167D01*
X115990414Y-65915414D01*
X115795873Y-66206564D01*
X115727560Y-66549999D01*
X115727560Y-67450001D01*
X115795873Y-67793436D01*
X115990414Y-68084586D01*
X116281564Y-68279127D01*
X116624999Y-68347440D01*
X117275001Y-68347440D01*
X117618436Y-68279127D01*
X117909586Y-68084586D01*
X117975000Y-67986687D01*
X118040414Y-68084586D01*
X118194623Y-68187626D01*
X118312576Y-68364154D01*
X118312577Y-68364155D01*
X118361952Y-68438049D01*
X118435845Y-68487423D01*
X120024927Y-70076506D01*
X119913720Y-70122569D01*
X119622569Y-70413720D01*
X119465000Y-70794126D01*
X119465000Y-71205874D01*
X119615001Y-71568008D01*
X119615001Y-71615000D01*
X118885000Y-71615000D01*
X118885000Y-71068007D01*
X119035000Y-70705874D01*
X119035000Y-70294126D01*
X118877431Y-69913720D01*
X118586280Y-69622569D01*
X118205874Y-69465000D01*
X117794126Y-69465000D01*
X117413720Y-69622569D01*
X117122569Y-69913720D01*
X116965000Y-70294126D01*
X116965000Y-70705874D01*
X117115001Y-71068008D01*
X117115000Y-71615000D01*
X116385000Y-71615000D01*
X116385000Y-71068007D01*
X116535000Y-70705874D01*
X116535000Y-70294126D01*
X116377431Y-69913720D01*
X116086280Y-69622569D01*
X115705874Y-69465000D01*
X115294126Y-69465000D01*
X114913720Y-69622569D01*
X114622569Y-69913720D01*
X114465000Y-70294126D01*
X114465000Y-70705874D01*
X114615001Y-71068008D01*
X114615000Y-71617143D01*
X114444922Y-71871683D01*
X114377560Y-72210335D01*
X114377560Y-72785335D01*
X114444922Y-73123987D01*
X114557435Y-73292375D01*
X114486673Y-73363137D01*
X114390000Y-73596526D01*
X114390000Y-73962085D01*
X114548750Y-74120835D01*
X115373000Y-74120835D01*
X115373000Y-74100835D01*
X115627000Y-74100835D01*
X115627000Y-74120835D01*
X116451250Y-74120835D01*
X116610000Y-73962085D01*
X116610000Y-73596526D01*
X116522383Y-73385000D01*
X116978514Y-73385000D01*
X116890000Y-73598691D01*
X116890000Y-73964250D01*
X117048750Y-74123000D01*
X117873000Y-74123000D01*
X117873000Y-74103000D01*
X118127000Y-74103000D01*
X118127000Y-74123000D01*
X118951250Y-74123000D01*
X119110000Y-73964250D01*
X119110000Y-73598691D01*
X119021486Y-73385000D01*
X119478514Y-73385000D01*
X119390000Y-73598691D01*
X119390000Y-73964250D01*
X119548750Y-74123000D01*
X120373000Y-74123000D01*
X120373000Y-74103000D01*
X120627000Y-74103000D01*
X120627000Y-74123000D01*
X121451250Y-74123000D01*
X121610000Y-73964250D01*
X121610000Y-73598691D01*
X121513327Y-73365302D01*
X121442565Y-73294540D01*
X121555078Y-73126152D01*
X121622440Y-72787500D01*
X121622440Y-72212500D01*
X121555078Y-71873848D01*
X121385000Y-71619309D01*
X121385000Y-71568007D01*
X121423494Y-71475073D01*
X124115000Y-74166579D01*
X124115001Y-77062831D01*
X124115000Y-77062836D01*
X124115000Y-77143541D01*
X124042191Y-77192191D01*
X124000000Y-77255334D01*
X123957809Y-77192191D01*
X123747765Y-77051843D01*
X123500000Y-77002560D01*
X122500000Y-77002560D01*
X122252235Y-77051843D01*
X122042191Y-77192191D01*
X122001345Y-77253320D01*
X121859699Y-77111673D01*
X121626310Y-77015000D01*
X121285750Y-77015000D01*
X121127000Y-77173750D01*
X121127000Y-78773000D01*
X121147000Y-78773000D01*
X121147000Y-79027000D01*
X121127000Y-79027000D01*
X121127000Y-79047000D01*
X120873000Y-79047000D01*
X120873000Y-79027000D01*
X120023750Y-79027000D01*
X119865000Y-79185750D01*
X119865000Y-80276309D01*
X119896584Y-80352560D01*
X118600000Y-80352560D01*
X118352235Y-80401843D01*
X118142191Y-80542191D01*
X118001843Y-80752235D01*
X117952560Y-81000000D01*
X117952560Y-82000000D01*
X118001843Y-82247765D01*
X118142191Y-82457809D01*
X118205334Y-82500000D01*
X118142191Y-82542191D01*
X118001843Y-82752235D01*
X117952560Y-83000000D01*
X117952560Y-84000000D01*
X118001843Y-84247765D01*
X118142191Y-84457809D01*
X118205334Y-84500000D01*
X118142191Y-84542191D01*
X118104524Y-84598563D01*
X118099999Y-84597663D01*
X118012840Y-84615000D01*
X118012835Y-84615000D01*
X117754690Y-84666348D01*
X117626152Y-84752235D01*
X117535845Y-84812576D01*
X117535844Y-84812577D01*
X117461951Y-84861951D01*
X117412577Y-84935844D01*
X114435847Y-87912575D01*
X114361951Y-87961951D01*
X114166348Y-88254691D01*
X114115000Y-88512836D01*
X114115000Y-88512839D01*
X114097663Y-88600000D01*
X114115000Y-88687161D01*
X114115001Y-116412834D01*
X114097663Y-116500000D01*
X114166348Y-116845309D01*
X114312576Y-117064154D01*
X114312578Y-117064156D01*
X114361952Y-117138049D01*
X114435845Y-117187423D01*
X120812577Y-123564156D01*
X120861951Y-123638049D01*
X120935844Y-123687423D01*
X120935845Y-123687424D01*
X121046880Y-123761615D01*
X121154690Y-123833652D01*
X121412835Y-123885000D01*
X121412839Y-123885000D01*
X121499999Y-123902337D01*
X121587159Y-123885000D01*
X122115577Y-123885000D01*
X122165414Y-123959586D01*
X122263313Y-124025000D01*
X122165414Y-124090414D01*
X121970873Y-124381564D01*
X121902560Y-124724999D01*
X121902560Y-125375001D01*
X121970873Y-125718436D01*
X122165414Y-126009586D01*
X122456564Y-126204127D01*
X122799999Y-126272440D01*
X123700001Y-126272440D01*
X124043436Y-126204127D01*
X124334586Y-126009586D01*
X124384423Y-125935000D01*
X127459522Y-125935000D01*
X127501843Y-126147765D01*
X127642191Y-126357809D01*
X127852235Y-126498157D01*
X128100000Y-126547440D01*
X129900000Y-126547440D01*
X130147765Y-126498157D01*
X130357809Y-126357809D01*
X130490058Y-126159886D01*
X130524890Y-126194718D01*
X130639447Y-126080161D01*
X130725852Y-126336643D01*
X131299336Y-126546458D01*
X131909460Y-126520839D01*
X132354148Y-126336643D01*
X132440554Y-126080159D01*
X131540000Y-125179605D01*
X131525858Y-125193748D01*
X131346253Y-125014143D01*
X131360395Y-125000000D01*
X131719605Y-125000000D01*
X132620159Y-125900554D01*
X132876643Y-125814148D01*
X133086458Y-125240664D01*
X133060839Y-124630540D01*
X132876643Y-124185852D01*
X132620159Y-124099446D01*
X131719605Y-125000000D01*
X131360395Y-125000000D01*
X131346253Y-124985858D01*
X131525858Y-124806253D01*
X131540000Y-124820395D01*
X132440554Y-123919841D01*
X132354148Y-123663357D01*
X131780664Y-123453542D01*
X131170540Y-123479161D01*
X130725852Y-123663357D01*
X130639447Y-123919839D01*
X130524890Y-123805282D01*
X130490058Y-123840114D01*
X130357809Y-123642191D01*
X130147765Y-123501843D01*
X129900000Y-123452560D01*
X128100000Y-123452560D01*
X127852235Y-123501843D01*
X127642191Y-123642191D01*
X127501843Y-123852235D01*
X127452560Y-124100000D01*
X127452560Y-124165000D01*
X124384423Y-124165000D01*
X124334586Y-124090414D01*
X124236687Y-124025000D01*
X124334586Y-123959586D01*
X124529127Y-123668436D01*
X124597440Y-123325001D01*
X124597440Y-122674999D01*
X124529127Y-122331564D01*
X124334586Y-122040414D01*
X124043436Y-121845873D01*
X123700001Y-121777560D01*
X122799999Y-121777560D01*
X122456564Y-121845873D01*
X122165414Y-122040414D01*
X122115577Y-122115000D01*
X121866579Y-122115000D01*
X121451579Y-121700000D01*
X141302560Y-121700000D01*
X141302560Y-123700000D01*
X141351843Y-123947765D01*
X141492191Y-124157809D01*
X141702235Y-124298157D01*
X141950000Y-124347440D01*
X143450000Y-124347440D01*
X143697765Y-124298157D01*
X143849047Y-124197073D01*
X143890301Y-124238327D01*
X144123690Y-124335000D01*
X144714250Y-124335000D01*
X144873000Y-124176250D01*
X144873000Y-122827000D01*
X144853000Y-122827000D01*
X144853000Y-122573000D01*
X144873000Y-122573000D01*
X144873000Y-121223750D01*
X144714250Y-121065000D01*
X144123690Y-121065000D01*
X143890301Y-121161673D01*
X143849047Y-121202927D01*
X143835000Y-121193541D01*
X143835000Y-120770131D01*
X144531158Y-120073973D01*
X144626152Y-120055078D01*
X144875000Y-119888803D01*
X145123848Y-120055078D01*
X145462500Y-120122440D01*
X145620862Y-120122440D01*
X146415000Y-120916579D01*
X146415000Y-121079413D01*
X146302235Y-121101843D01*
X146150953Y-121202927D01*
X146109699Y-121161673D01*
X145876310Y-121065000D01*
X145285750Y-121065000D01*
X145127000Y-121223750D01*
X145127000Y-122573000D01*
X145147000Y-122573000D01*
X145147000Y-122827000D01*
X145127000Y-122827000D01*
X145127000Y-124176250D01*
X145285750Y-124335000D01*
X145876310Y-124335000D01*
X146109699Y-124238327D01*
X146150953Y-124197073D01*
X146302235Y-124298157D01*
X146550000Y-124347440D01*
X147695862Y-124347440D01*
X149162577Y-125814156D01*
X149211951Y-125888049D01*
X149285844Y-125937423D01*
X149285845Y-125937424D01*
X149308164Y-125952337D01*
X149504690Y-126083652D01*
X149762835Y-126135000D01*
X149762839Y-126135000D01*
X149850000Y-126152337D01*
X149937161Y-126135000D01*
X149978514Y-126135000D01*
X149890000Y-126348691D01*
X149890000Y-126714250D01*
X150048750Y-126873000D01*
X150873000Y-126873000D01*
X150873000Y-126853000D01*
X151127000Y-126853000D01*
X151127000Y-126873000D01*
X151951250Y-126873000D01*
X152110000Y-126714250D01*
X152110000Y-126348691D01*
X152013327Y-126115302D01*
X151942565Y-126044540D01*
X152055078Y-125876152D01*
X152122440Y-125537500D01*
X152122440Y-124962500D01*
X152055078Y-124623848D01*
X151863247Y-124336753D01*
X151576152Y-124144922D01*
X151237500Y-124077560D01*
X150762500Y-124077560D01*
X150423848Y-124144922D01*
X150167672Y-124316093D01*
X149436579Y-123585000D01*
X149712839Y-123585000D01*
X149800000Y-123602337D01*
X149887161Y-123585000D01*
X149887165Y-123585000D01*
X150138533Y-123535000D01*
X150205874Y-123535000D01*
X150586280Y-123377431D01*
X150877431Y-123086280D01*
X151035000Y-122705874D01*
X151035000Y-122294126D01*
X150877431Y-121913720D01*
X150586280Y-121622569D01*
X150205874Y-121465000D01*
X149794126Y-121465000D01*
X149413720Y-121622569D01*
X149221289Y-121815000D01*
X148697440Y-121815000D01*
X148697440Y-121700000D01*
X148648157Y-121452235D01*
X148507809Y-121242191D01*
X148297765Y-121101843D01*
X148185000Y-121079413D01*
X148185000Y-120637160D01*
X148202337Y-120549999D01*
X148185000Y-120462836D01*
X148185000Y-120462835D01*
X148133652Y-120204690D01*
X147938049Y-119911951D01*
X147864156Y-119862577D01*
X146922440Y-118920862D01*
X146922440Y-118762500D01*
X146855078Y-118423848D01*
X146663247Y-118136753D01*
X146376152Y-117944922D01*
X146037500Y-117877560D01*
X145727571Y-117877560D01*
X146470132Y-117135000D01*
X149025719Y-117135000D01*
X149420582Y-117398839D01*
X149853744Y-117485000D01*
X150146256Y-117485000D01*
X150579418Y-117398839D01*
X151070625Y-117070625D01*
X151398839Y-116579418D01*
X151514092Y-116000000D01*
X151398839Y-115420582D01*
X151070625Y-114929375D01*
X151052381Y-114917184D01*
X151097765Y-114908157D01*
X151307809Y-114767809D01*
X151448157Y-114557765D01*
X151497440Y-114310000D01*
X151497440Y-112610000D01*
X151448157Y-112362235D01*
X151307809Y-112152191D01*
X151097765Y-112011843D01*
X150850000Y-111962560D01*
X149150000Y-111962560D01*
X148902235Y-112011843D01*
X148692191Y-112152191D01*
X148551843Y-112362235D01*
X148502560Y-112610000D01*
X148502560Y-114310000D01*
X148551843Y-114557765D01*
X148692191Y-114767809D01*
X148837646Y-114865000D01*
X147135000Y-114865000D01*
X147135000Y-111104263D01*
X148761283Y-109477981D01*
X148828592Y-109477981D01*
X149172027Y-109409668D01*
X149463177Y-109215127D01*
X149528591Y-109117228D01*
X149594005Y-109215127D01*
X149885155Y-109409668D01*
X150228590Y-109477981D01*
X150878592Y-109477981D01*
X151222027Y-109409668D01*
X151513177Y-109215127D01*
X151707718Y-108923977D01*
X151776031Y-108580542D01*
X151776031Y-107680540D01*
X151707718Y-107337105D01*
X151513177Y-107045955D01*
X151438591Y-106996118D01*
X151438591Y-106264964D01*
X151513177Y-106215127D01*
X151707718Y-105923977D01*
X151776031Y-105580542D01*
X151776031Y-104680540D01*
X151707718Y-104337105D01*
X151513177Y-104045955D01*
X151438591Y-103996118D01*
X151438591Y-101938626D01*
X151535000Y-101705874D01*
X151535000Y-101294126D01*
X151377431Y-100913720D01*
X151086280Y-100622569D01*
X150705874Y-100465000D01*
X150294126Y-100465000D01*
X149913720Y-100622569D01*
X149622569Y-100913720D01*
X149465000Y-101294126D01*
X149465000Y-101705874D01*
X149622569Y-102086280D01*
X149668592Y-102132303D01*
X149668591Y-103996118D01*
X149594005Y-104045955D01*
X149528591Y-104143854D01*
X149463177Y-104045955D01*
X149388591Y-103996118D01*
X149388591Y-103559337D01*
X149535000Y-103205874D01*
X149535000Y-102794126D01*
X149377431Y-102413720D01*
X149086280Y-102122569D01*
X148705874Y-101965000D01*
X148294126Y-101965000D01*
X147913720Y-102122569D01*
X147622569Y-102413720D01*
X147465000Y-102794126D01*
X147465000Y-103205874D01*
X147618592Y-103576678D01*
X147618592Y-103996118D01*
X147544005Y-104045955D01*
X147349464Y-104337105D01*
X147281151Y-104680540D01*
X147281151Y-105580542D01*
X147349464Y-105923977D01*
X147544005Y-106215127D01*
X147835155Y-106409668D01*
X148178590Y-106477981D01*
X148828592Y-106477981D01*
X149172027Y-106409668D01*
X149463177Y-106215127D01*
X149528591Y-106117228D01*
X149594005Y-106215127D01*
X149668592Y-106264964D01*
X149668591Y-106996118D01*
X149594005Y-107045955D01*
X149528591Y-107143854D01*
X149463177Y-107045955D01*
X149172027Y-106851414D01*
X148828592Y-106783101D01*
X148178590Y-106783101D01*
X147835155Y-106851414D01*
X147544005Y-107045955D01*
X147349464Y-107337105D01*
X147281151Y-107680540D01*
X147281151Y-107747849D01*
X145276480Y-109752521D01*
X145181712Y-109815843D01*
X144996085Y-110093654D01*
X144930854Y-110191278D01*
X144842765Y-110634132D01*
X144865001Y-110745920D01*
X144865000Y-115529868D01*
X143276480Y-117118389D01*
X143181712Y-117181711D01*
X142930854Y-117557145D01*
X142930854Y-117557146D01*
X142842765Y-118000000D01*
X142865000Y-118111783D01*
X142865000Y-118529868D01*
X141976480Y-119418389D01*
X141881712Y-119481711D01*
X141770827Y-119647662D01*
X141630854Y-119857146D01*
X141542765Y-120300000D01*
X141565001Y-120411788D01*
X141565001Y-121193541D01*
X141492191Y-121242191D01*
X141351843Y-121452235D01*
X141302560Y-121700000D01*
X121451579Y-121700000D01*
X115885000Y-116133422D01*
X115885000Y-110174778D01*
X117365000Y-110174778D01*
X117365000Y-110825222D01*
X117613914Y-111426153D01*
X118073847Y-111886086D01*
X118674778Y-112135000D01*
X119325222Y-112135000D01*
X119926153Y-111886086D01*
X120386086Y-111426153D01*
X120635000Y-110825222D01*
X120635000Y-110174778D01*
X123865000Y-110174778D01*
X123865000Y-110825222D01*
X124113914Y-111426153D01*
X124573847Y-111886086D01*
X125174778Y-112135000D01*
X125825222Y-112135000D01*
X126426153Y-111886086D01*
X126886086Y-111426153D01*
X127135000Y-110825222D01*
X127135000Y-110174778D01*
X133365000Y-110174778D01*
X133365000Y-110825222D01*
X133613914Y-111426153D01*
X134073847Y-111886086D01*
X134674778Y-112135000D01*
X135325222Y-112135000D01*
X135926153Y-111886086D01*
X136386086Y-111426153D01*
X136635000Y-110825222D01*
X136635000Y-110174778D01*
X139865000Y-110174778D01*
X139865000Y-110825222D01*
X140113914Y-111426153D01*
X140573847Y-111886086D01*
X141174778Y-112135000D01*
X141825222Y-112135000D01*
X142426153Y-111886086D01*
X142886086Y-111426153D01*
X143135000Y-110825222D01*
X143135000Y-110174778D01*
X142886086Y-109573847D01*
X142426153Y-109113914D01*
X141825222Y-108865000D01*
X141174778Y-108865000D01*
X140573847Y-109113914D01*
X140113914Y-109573847D01*
X139865000Y-110174778D01*
X136635000Y-110174778D01*
X136386086Y-109573847D01*
X135926153Y-109113914D01*
X135325222Y-108865000D01*
X134674778Y-108865000D01*
X134073847Y-109113914D01*
X133613914Y-109573847D01*
X133365000Y-110174778D01*
X127135000Y-110174778D01*
X126886086Y-109573847D01*
X126426153Y-109113914D01*
X125825222Y-108865000D01*
X125174778Y-108865000D01*
X124573847Y-109113914D01*
X124113914Y-109573847D01*
X123865000Y-110174778D01*
X120635000Y-110174778D01*
X120386086Y-109573847D01*
X119926153Y-109113914D01*
X119325222Y-108865000D01*
X118674778Y-108865000D01*
X118073847Y-109113914D01*
X117613914Y-109573847D01*
X117365000Y-110174778D01*
X115885000Y-110174778D01*
X115885000Y-105674778D01*
X117365000Y-105674778D01*
X117365000Y-106325222D01*
X117613914Y-106926153D01*
X118073847Y-107386086D01*
X118674778Y-107635000D01*
X119325222Y-107635000D01*
X119926153Y-107386086D01*
X120386086Y-106926153D01*
X120635000Y-106325222D01*
X120635000Y-105674778D01*
X123865000Y-105674778D01*
X123865000Y-106325222D01*
X124113914Y-106926153D01*
X124573847Y-107386086D01*
X125174778Y-107635000D01*
X125825222Y-107635000D01*
X126426153Y-107386086D01*
X126886086Y-106926153D01*
X127135000Y-106325222D01*
X127135000Y-105674778D01*
X133365000Y-105674778D01*
X133365000Y-106325222D01*
X133613914Y-106926153D01*
X134073847Y-107386086D01*
X134674778Y-107635000D01*
X135325222Y-107635000D01*
X135926153Y-107386086D01*
X136386086Y-106926153D01*
X136635000Y-106325222D01*
X136635000Y-105674778D01*
X139865000Y-105674778D01*
X139865000Y-106325222D01*
X140113914Y-106926153D01*
X140573847Y-107386086D01*
X141174778Y-107635000D01*
X141825222Y-107635000D01*
X142426153Y-107386086D01*
X142886086Y-106926153D01*
X143135000Y-106325222D01*
X143135000Y-105674778D01*
X142886086Y-105073847D01*
X142426153Y-104613914D01*
X141825222Y-104365000D01*
X141174778Y-104365000D01*
X140573847Y-104613914D01*
X140113914Y-105073847D01*
X139865000Y-105674778D01*
X136635000Y-105674778D01*
X136386086Y-105073847D01*
X135926153Y-104613914D01*
X135325222Y-104365000D01*
X134674778Y-104365000D01*
X134073847Y-104613914D01*
X133613914Y-105073847D01*
X133365000Y-105674778D01*
X127135000Y-105674778D01*
X126886086Y-105073847D01*
X126426153Y-104613914D01*
X125825222Y-104365000D01*
X125174778Y-104365000D01*
X124573847Y-104613914D01*
X124113914Y-105073847D01*
X123865000Y-105674778D01*
X120635000Y-105674778D01*
X120386086Y-105073847D01*
X119926153Y-104613914D01*
X119325222Y-104365000D01*
X118674778Y-104365000D01*
X118073847Y-104613914D01*
X117613914Y-105073847D01*
X117365000Y-105674778D01*
X115885000Y-105674778D01*
X115885000Y-88966578D01*
X117977634Y-86873945D01*
X117952560Y-87000000D01*
X117952560Y-88000000D01*
X118001843Y-88247765D01*
X118142191Y-88457809D01*
X118205334Y-88500000D01*
X118142191Y-88542191D01*
X118001843Y-88752235D01*
X117952560Y-89000000D01*
X117952560Y-90000000D01*
X118001843Y-90247765D01*
X118142191Y-90457809D01*
X118205334Y-90500000D01*
X118142191Y-90542191D01*
X118001843Y-90752235D01*
X117952560Y-91000000D01*
X117952560Y-92000000D01*
X118001843Y-92247765D01*
X118142191Y-92457809D01*
X118352235Y-92598157D01*
X118600000Y-92647440D01*
X119892851Y-92647440D01*
X119852560Y-92850000D01*
X119852560Y-95350000D01*
X119901843Y-95597765D01*
X120042191Y-95807809D01*
X120115001Y-95856459D01*
X120115000Y-99431993D01*
X119965000Y-99794126D01*
X119965000Y-100205874D01*
X120122569Y-100586280D01*
X120413720Y-100877431D01*
X120794126Y-101035000D01*
X121205874Y-101035000D01*
X121447296Y-100935000D01*
X121865577Y-100935000D01*
X121915414Y-101009586D01*
X122206564Y-101204127D01*
X122549999Y-101272440D01*
X123450001Y-101272440D01*
X123793436Y-101204127D01*
X124084586Y-101009586D01*
X124279127Y-100718436D01*
X124347440Y-100375001D01*
X124347440Y-100285750D01*
X124665000Y-100285750D01*
X124665000Y-100701309D01*
X124761673Y-100934698D01*
X124940301Y-101113327D01*
X125173690Y-101210000D01*
X125714250Y-101210000D01*
X125873000Y-101051250D01*
X125873000Y-100127000D01*
X126127000Y-100127000D01*
X126127000Y-101051250D01*
X126285750Y-101210000D01*
X126826310Y-101210000D01*
X127059699Y-101113327D01*
X127238327Y-100934698D01*
X127335000Y-100701309D01*
X127335000Y-100285750D01*
X127176250Y-100127000D01*
X126127000Y-100127000D01*
X125873000Y-100127000D01*
X124823750Y-100127000D01*
X124665000Y-100285750D01*
X124347440Y-100285750D01*
X124347440Y-99724999D01*
X124279127Y-99381564D01*
X124084586Y-99090414D01*
X123986687Y-99025000D01*
X124084586Y-98959586D01*
X124279127Y-98668436D01*
X124347440Y-98325001D01*
X124347440Y-97674999D01*
X124316662Y-97520269D01*
X124361952Y-97588049D01*
X124435845Y-97637423D01*
X124652560Y-97854138D01*
X124652560Y-98275001D01*
X124720873Y-98618436D01*
X124915414Y-98909586D01*
X124916597Y-98910377D01*
X124761673Y-99065302D01*
X124665000Y-99298691D01*
X124665000Y-99714250D01*
X124823750Y-99873000D01*
X125873000Y-99873000D01*
X125873000Y-99853000D01*
X126127000Y-99853000D01*
X126127000Y-99873000D01*
X127176250Y-99873000D01*
X127335000Y-99714250D01*
X127335000Y-99298691D01*
X127238327Y-99065302D01*
X127083403Y-98910377D01*
X127084586Y-98909586D01*
X127279127Y-98618436D01*
X127347440Y-98275001D01*
X127347440Y-97624999D01*
X127340989Y-97592567D01*
X129312577Y-99564156D01*
X129361951Y-99638049D01*
X129435844Y-99687423D01*
X129435845Y-99687424D01*
X129461687Y-99704691D01*
X129654690Y-99833652D01*
X129912835Y-99885000D01*
X129912839Y-99885000D01*
X130000000Y-99902337D01*
X130087161Y-99885000D01*
X147912839Y-99885000D01*
X148000000Y-99902337D01*
X148087161Y-99885000D01*
X148087165Y-99885000D01*
X148345310Y-99833652D01*
X148638049Y-99638049D01*
X148687425Y-99564153D01*
X154064156Y-94187423D01*
X154138049Y-94138049D01*
X154290000Y-93910639D01*
X154290001Y-139290000D01*
X105710000Y-139290000D01*
X105710000Y-135033352D01*
X107270204Y-135033352D01*
X107389288Y-135798175D01*
X107718246Y-136498832D01*
X108230633Y-137079000D01*
X108885258Y-137492037D01*
X109629496Y-137704742D01*
X110403520Y-137700013D01*
X111145104Y-137478233D01*
X111794634Y-137057228D01*
X112299895Y-136470844D01*
X112620268Y-135766220D01*
X112730000Y-135000000D01*
X112729185Y-134933300D01*
X112600766Y-134169990D01*
X112263273Y-133473403D01*
X111743836Y-132899539D01*
X111084214Y-132494530D01*
X110337432Y-132290934D01*
X109563524Y-132305118D01*
X108824705Y-132535942D01*
X108180366Y-132964851D01*
X107682307Y-133557363D01*
X107370566Y-134265849D01*
X107270204Y-135033352D01*
X105710000Y-135033352D01*
X105710000Y-129285750D01*
X142465000Y-129285750D01*
X142465000Y-130126309D01*
X142561673Y-130359698D01*
X142740301Y-130538327D01*
X142973690Y-130635000D01*
X144714250Y-130635000D01*
X144873000Y-130476250D01*
X144873000Y-129127000D01*
X145127000Y-129127000D01*
X145127000Y-130476250D01*
X145285750Y-130635000D01*
X147026310Y-130635000D01*
X147259699Y-130538327D01*
X147438327Y-130359698D01*
X147535000Y-130126309D01*
X147535000Y-129285750D01*
X147376250Y-129127000D01*
X145127000Y-129127000D01*
X144873000Y-129127000D01*
X142623750Y-129127000D01*
X142465000Y-129285750D01*
X105710000Y-129285750D01*
X105710000Y-127873691D01*
X142465000Y-127873691D01*
X142465000Y-128714250D01*
X142623750Y-128873000D01*
X144873000Y-128873000D01*
X144873000Y-127523750D01*
X145127000Y-127523750D01*
X145127000Y-128873000D01*
X147376250Y-128873000D01*
X147535000Y-128714250D01*
X147535000Y-127873691D01*
X147438327Y-127640302D01*
X147259699Y-127461673D01*
X147026310Y-127365000D01*
X145285750Y-127365000D01*
X145127000Y-127523750D01*
X144873000Y-127523750D01*
X144714250Y-127365000D01*
X142973690Y-127365000D01*
X142740301Y-127461673D01*
X142561673Y-127640302D01*
X142465000Y-127873691D01*
X105710000Y-127873691D01*
X105710000Y-127285750D01*
X149890000Y-127285750D01*
X149890000Y-127651309D01*
X149986673Y-127884698D01*
X150165301Y-128063327D01*
X150398690Y-128160000D01*
X150714250Y-128160000D01*
X150873000Y-128001250D01*
X150873000Y-127127000D01*
X151127000Y-127127000D01*
X151127000Y-128001250D01*
X151285750Y-128160000D01*
X151601310Y-128160000D01*
X151834699Y-128063327D01*
X152013327Y-127884698D01*
X152110000Y-127651309D01*
X152110000Y-127285750D01*
X151951250Y-127127000D01*
X151127000Y-127127000D01*
X150873000Y-127127000D01*
X150048750Y-127127000D01*
X149890000Y-127285750D01*
X105710000Y-127285750D01*
X105710000Y-77523691D01*
X119865000Y-77523691D01*
X119865000Y-78614250D01*
X120023750Y-78773000D01*
X120873000Y-78773000D01*
X120873000Y-77173750D01*
X120714250Y-77015000D01*
X120373690Y-77015000D01*
X120140301Y-77111673D01*
X119961673Y-77290302D01*
X119865000Y-77523691D01*
X105710000Y-77523691D01*
X105710000Y-74533585D01*
X114390000Y-74533585D01*
X114390000Y-74899144D01*
X114486673Y-75132533D01*
X114665301Y-75311162D01*
X114898690Y-75407835D01*
X115214250Y-75407835D01*
X115373000Y-75249085D01*
X115373000Y-74374835D01*
X115627000Y-74374835D01*
X115627000Y-75249085D01*
X115785750Y-75407835D01*
X116101310Y-75407835D01*
X116334699Y-75311162D01*
X116513327Y-75132533D01*
X116610000Y-74899144D01*
X116610000Y-74535750D01*
X116890000Y-74535750D01*
X116890000Y-74901309D01*
X116986673Y-75134698D01*
X117165301Y-75313327D01*
X117398690Y-75410000D01*
X117714250Y-75410000D01*
X117873000Y-75251250D01*
X117873000Y-74377000D01*
X118127000Y-74377000D01*
X118127000Y-75251250D01*
X118285750Y-75410000D01*
X118601310Y-75410000D01*
X118834699Y-75313327D01*
X119013327Y-75134698D01*
X119110000Y-74901309D01*
X119110000Y-74535750D01*
X119390000Y-74535750D01*
X119390000Y-74901309D01*
X119486673Y-75134698D01*
X119665301Y-75313327D01*
X119898690Y-75410000D01*
X120214250Y-75410000D01*
X120373000Y-75251250D01*
X120373000Y-74377000D01*
X120627000Y-74377000D01*
X120627000Y-75251250D01*
X120785750Y-75410000D01*
X121101310Y-75410000D01*
X121334699Y-75313327D01*
X121513327Y-75134698D01*
X121610000Y-74901309D01*
X121610000Y-74535750D01*
X121451250Y-74377000D01*
X120627000Y-74377000D01*
X120373000Y-74377000D01*
X119548750Y-74377000D01*
X119390000Y-74535750D01*
X119110000Y-74535750D01*
X118951250Y-74377000D01*
X118127000Y-74377000D01*
X117873000Y-74377000D01*
X117048750Y-74377000D01*
X116890000Y-74535750D01*
X116610000Y-74535750D01*
X116610000Y-74533585D01*
X116451250Y-74374835D01*
X115627000Y-74374835D01*
X115373000Y-74374835D01*
X114548750Y-74374835D01*
X114390000Y-74533585D01*
X105710000Y-74533585D01*
X105710000Y-55033352D01*
X107270204Y-55033352D01*
X107389288Y-55798175D01*
X107718246Y-56498832D01*
X108230633Y-57079000D01*
X108885258Y-57492037D01*
X109629496Y-57704742D01*
X110403520Y-57700013D01*
X111145104Y-57478233D01*
X111794634Y-57057228D01*
X112299895Y-56470844D01*
X112620268Y-55766220D01*
X112725223Y-55033352D01*
X147270204Y-55033352D01*
X147389288Y-55798175D01*
X147718246Y-56498832D01*
X148230633Y-57079000D01*
X148885258Y-57492037D01*
X149629496Y-57704742D01*
X150403520Y-57700013D01*
X151145104Y-57478233D01*
X151794634Y-57057228D01*
X152299895Y-56470844D01*
X152620268Y-55766220D01*
X152730000Y-55000000D01*
X152729185Y-54933300D01*
X152600766Y-54169990D01*
X152263273Y-53473403D01*
X151743836Y-52899539D01*
X151084214Y-52494530D01*
X150337432Y-52290934D01*
X149563524Y-52305118D01*
X148824705Y-52535942D01*
X148180366Y-52964851D01*
X147682307Y-53557363D01*
X147370566Y-54265849D01*
X147270204Y-55033352D01*
X112725223Y-55033352D01*
X112730000Y-55000000D01*
X112729185Y-54933300D01*
X112600766Y-54169990D01*
X112263273Y-53473403D01*
X111743836Y-52899539D01*
X111084214Y-52494530D01*
X110337432Y-52290934D01*
X109563524Y-52305118D01*
X108824705Y-52535942D01*
X108180366Y-52964851D01*
X107682307Y-53557363D01*
X107370566Y-54265849D01*
X107270204Y-55033352D01*
X105710000Y-55033352D01*
X105710000Y-50710000D01*
X154290000Y-50710000D01*
X154290000Y-68089361D01*
G04 #@! TD*
M02*
