G04 #@! TF.GenerationSoftware,KiCad,Pcbnew,(5.0.0)*
G04 #@! TF.CreationDate,2020-08-07T11:04:04-05:00*
G04 #@! TF.ProjectId,Church Controller,43687572636820436F6E74726F6C6C65,rev?*
G04 #@! TF.SameCoordinates,Original*
G04 #@! TF.FileFunction,Soldermask,Top*
G04 #@! TF.FilePolarity,Negative*
%FSLAX46Y46*%
G04 Gerber Fmt 4.6, Leading zero omitted, Abs format (unit mm)*
G04 Created by KiCad (PCBNEW (5.0.0)) date 08/07/20 11:04:04*
%MOMM*%
%LPD*%
G01*
G04 APERTURE LIST*
%ADD10C,0.100000*%
%ADD11C,1.350000*%
%ADD12R,2.200000X2.200000*%
%ADD13C,2.200000*%
%ADD14R,2.100000X2.100000*%
%ADD15O,2.100000X2.100000*%
%ADD16C,1.550000*%
%ADD17C,2.400000*%
%ADD18R,4.200000X2.400000*%
%ADD19R,1.900000X2.400000*%
%ADD20R,1.400000X2.900000*%
%ADD21R,2.200000X1.400000*%
G04 APERTURE END LIST*
D10*
G04 #@! TO.C,C1*
G36*
X144420581Y-118326625D02*
X144453343Y-118331485D01*
X144485471Y-118339533D01*
X144516656Y-118350691D01*
X144546596Y-118364852D01*
X144575005Y-118381879D01*
X144601608Y-118401609D01*
X144626149Y-118423851D01*
X144648391Y-118448392D01*
X144668121Y-118474995D01*
X144685148Y-118503404D01*
X144699309Y-118533344D01*
X144710467Y-118564529D01*
X144718515Y-118596657D01*
X144723375Y-118629419D01*
X144725000Y-118662500D01*
X144725000Y-119337500D01*
X144723375Y-119370581D01*
X144718515Y-119403343D01*
X144710467Y-119435471D01*
X144699309Y-119466656D01*
X144685148Y-119496596D01*
X144668121Y-119525005D01*
X144648391Y-119551608D01*
X144626149Y-119576149D01*
X144601608Y-119598391D01*
X144575005Y-119618121D01*
X144546596Y-119635148D01*
X144516656Y-119649309D01*
X144485471Y-119660467D01*
X144453343Y-119668515D01*
X144420581Y-119673375D01*
X144387500Y-119675000D01*
X143612500Y-119675000D01*
X143579419Y-119673375D01*
X143546657Y-119668515D01*
X143514529Y-119660467D01*
X143483344Y-119649309D01*
X143453404Y-119635148D01*
X143424995Y-119618121D01*
X143398392Y-119598391D01*
X143373851Y-119576149D01*
X143351609Y-119551608D01*
X143331879Y-119525005D01*
X143314852Y-119496596D01*
X143300691Y-119466656D01*
X143289533Y-119435471D01*
X143281485Y-119403343D01*
X143276625Y-119370581D01*
X143275000Y-119337500D01*
X143275000Y-118662500D01*
X143276625Y-118629419D01*
X143281485Y-118596657D01*
X143289533Y-118564529D01*
X143300691Y-118533344D01*
X143314852Y-118503404D01*
X143331879Y-118474995D01*
X143351609Y-118448392D01*
X143373851Y-118423851D01*
X143398392Y-118401609D01*
X143424995Y-118381879D01*
X143453404Y-118364852D01*
X143483344Y-118350691D01*
X143514529Y-118339533D01*
X143546657Y-118331485D01*
X143579419Y-118326625D01*
X143612500Y-118325000D01*
X144387500Y-118325000D01*
X144420581Y-118326625D01*
X144420581Y-118326625D01*
G37*
D11*
X144000000Y-119000000D03*
D10*
G36*
X146170581Y-118326625D02*
X146203343Y-118331485D01*
X146235471Y-118339533D01*
X146266656Y-118350691D01*
X146296596Y-118364852D01*
X146325005Y-118381879D01*
X146351608Y-118401609D01*
X146376149Y-118423851D01*
X146398391Y-118448392D01*
X146418121Y-118474995D01*
X146435148Y-118503404D01*
X146449309Y-118533344D01*
X146460467Y-118564529D01*
X146468515Y-118596657D01*
X146473375Y-118629419D01*
X146475000Y-118662500D01*
X146475000Y-119337500D01*
X146473375Y-119370581D01*
X146468515Y-119403343D01*
X146460467Y-119435471D01*
X146449309Y-119466656D01*
X146435148Y-119496596D01*
X146418121Y-119525005D01*
X146398391Y-119551608D01*
X146376149Y-119576149D01*
X146351608Y-119598391D01*
X146325005Y-119618121D01*
X146296596Y-119635148D01*
X146266656Y-119649309D01*
X146235471Y-119660467D01*
X146203343Y-119668515D01*
X146170581Y-119673375D01*
X146137500Y-119675000D01*
X145362500Y-119675000D01*
X145329419Y-119673375D01*
X145296657Y-119668515D01*
X145264529Y-119660467D01*
X145233344Y-119649309D01*
X145203404Y-119635148D01*
X145174995Y-119618121D01*
X145148392Y-119598391D01*
X145123851Y-119576149D01*
X145101609Y-119551608D01*
X145081879Y-119525005D01*
X145064852Y-119496596D01*
X145050691Y-119466656D01*
X145039533Y-119435471D01*
X145031485Y-119403343D01*
X145026625Y-119370581D01*
X145025000Y-119337500D01*
X145025000Y-118662500D01*
X145026625Y-118629419D01*
X145031485Y-118596657D01*
X145039533Y-118564529D01*
X145050691Y-118533344D01*
X145064852Y-118503404D01*
X145081879Y-118474995D01*
X145101609Y-118448392D01*
X145123851Y-118423851D01*
X145148392Y-118401609D01*
X145174995Y-118381879D01*
X145203404Y-118364852D01*
X145233344Y-118350691D01*
X145264529Y-118339533D01*
X145296657Y-118331485D01*
X145329419Y-118326625D01*
X145362500Y-118325000D01*
X146137500Y-118325000D01*
X146170581Y-118326625D01*
X146170581Y-118326625D01*
G37*
D11*
X145750000Y-119000000D03*
G04 #@! TD*
D10*
G04 #@! TO.C,C2*
G36*
X151370581Y-124526625D02*
X151403343Y-124531485D01*
X151435471Y-124539533D01*
X151466656Y-124550691D01*
X151496596Y-124564852D01*
X151525005Y-124581879D01*
X151551608Y-124601609D01*
X151576149Y-124623851D01*
X151598391Y-124648392D01*
X151618121Y-124674995D01*
X151635148Y-124703404D01*
X151649309Y-124733344D01*
X151660467Y-124764529D01*
X151668515Y-124796657D01*
X151673375Y-124829419D01*
X151675000Y-124862500D01*
X151675000Y-125637500D01*
X151673375Y-125670581D01*
X151668515Y-125703343D01*
X151660467Y-125735471D01*
X151649309Y-125766656D01*
X151635148Y-125796596D01*
X151618121Y-125825005D01*
X151598391Y-125851608D01*
X151576149Y-125876149D01*
X151551608Y-125898391D01*
X151525005Y-125918121D01*
X151496596Y-125935148D01*
X151466656Y-125949309D01*
X151435471Y-125960467D01*
X151403343Y-125968515D01*
X151370581Y-125973375D01*
X151337500Y-125975000D01*
X150662500Y-125975000D01*
X150629419Y-125973375D01*
X150596657Y-125968515D01*
X150564529Y-125960467D01*
X150533344Y-125949309D01*
X150503404Y-125935148D01*
X150474995Y-125918121D01*
X150448392Y-125898391D01*
X150423851Y-125876149D01*
X150401609Y-125851608D01*
X150381879Y-125825005D01*
X150364852Y-125796596D01*
X150350691Y-125766656D01*
X150339533Y-125735471D01*
X150331485Y-125703343D01*
X150326625Y-125670581D01*
X150325000Y-125637500D01*
X150325000Y-124862500D01*
X150326625Y-124829419D01*
X150331485Y-124796657D01*
X150339533Y-124764529D01*
X150350691Y-124733344D01*
X150364852Y-124703404D01*
X150381879Y-124674995D01*
X150401609Y-124648392D01*
X150423851Y-124623851D01*
X150448392Y-124601609D01*
X150474995Y-124581879D01*
X150503404Y-124564852D01*
X150533344Y-124550691D01*
X150564529Y-124539533D01*
X150596657Y-124531485D01*
X150629419Y-124526625D01*
X150662500Y-124525000D01*
X151337500Y-124525000D01*
X151370581Y-124526625D01*
X151370581Y-124526625D01*
G37*
D11*
X151000000Y-125250000D03*
D10*
G36*
X151370581Y-126276625D02*
X151403343Y-126281485D01*
X151435471Y-126289533D01*
X151466656Y-126300691D01*
X151496596Y-126314852D01*
X151525005Y-126331879D01*
X151551608Y-126351609D01*
X151576149Y-126373851D01*
X151598391Y-126398392D01*
X151618121Y-126424995D01*
X151635148Y-126453404D01*
X151649309Y-126483344D01*
X151660467Y-126514529D01*
X151668515Y-126546657D01*
X151673375Y-126579419D01*
X151675000Y-126612500D01*
X151675000Y-127387500D01*
X151673375Y-127420581D01*
X151668515Y-127453343D01*
X151660467Y-127485471D01*
X151649309Y-127516656D01*
X151635148Y-127546596D01*
X151618121Y-127575005D01*
X151598391Y-127601608D01*
X151576149Y-127626149D01*
X151551608Y-127648391D01*
X151525005Y-127668121D01*
X151496596Y-127685148D01*
X151466656Y-127699309D01*
X151435471Y-127710467D01*
X151403343Y-127718515D01*
X151370581Y-127723375D01*
X151337500Y-127725000D01*
X150662500Y-127725000D01*
X150629419Y-127723375D01*
X150596657Y-127718515D01*
X150564529Y-127710467D01*
X150533344Y-127699309D01*
X150503404Y-127685148D01*
X150474995Y-127668121D01*
X150448392Y-127648391D01*
X150423851Y-127626149D01*
X150401609Y-127601608D01*
X150381879Y-127575005D01*
X150364852Y-127546596D01*
X150350691Y-127516656D01*
X150339533Y-127485471D01*
X150331485Y-127453343D01*
X150326625Y-127420581D01*
X150325000Y-127387500D01*
X150325000Y-126612500D01*
X150326625Y-126579419D01*
X150331485Y-126546657D01*
X150339533Y-126514529D01*
X150350691Y-126483344D01*
X150364852Y-126453404D01*
X150381879Y-126424995D01*
X150401609Y-126398392D01*
X150423851Y-126373851D01*
X150448392Y-126351609D01*
X150474995Y-126331879D01*
X150503404Y-126314852D01*
X150533344Y-126300691D01*
X150564529Y-126289533D01*
X150596657Y-126281485D01*
X150629419Y-126276625D01*
X150662500Y-126275000D01*
X151337500Y-126275000D01*
X151370581Y-126276625D01*
X151370581Y-126276625D01*
G37*
D11*
X151000000Y-127000000D03*
G04 #@! TD*
D10*
G04 #@! TO.C,C3*
G36*
X120870581Y-71776625D02*
X120903343Y-71781485D01*
X120935471Y-71789533D01*
X120966656Y-71800691D01*
X120996596Y-71814852D01*
X121025005Y-71831879D01*
X121051608Y-71851609D01*
X121076149Y-71873851D01*
X121098391Y-71898392D01*
X121118121Y-71924995D01*
X121135148Y-71953404D01*
X121149309Y-71983344D01*
X121160467Y-72014529D01*
X121168515Y-72046657D01*
X121173375Y-72079419D01*
X121175000Y-72112500D01*
X121175000Y-72887500D01*
X121173375Y-72920581D01*
X121168515Y-72953343D01*
X121160467Y-72985471D01*
X121149309Y-73016656D01*
X121135148Y-73046596D01*
X121118121Y-73075005D01*
X121098391Y-73101608D01*
X121076149Y-73126149D01*
X121051608Y-73148391D01*
X121025005Y-73168121D01*
X120996596Y-73185148D01*
X120966656Y-73199309D01*
X120935471Y-73210467D01*
X120903343Y-73218515D01*
X120870581Y-73223375D01*
X120837500Y-73225000D01*
X120162500Y-73225000D01*
X120129419Y-73223375D01*
X120096657Y-73218515D01*
X120064529Y-73210467D01*
X120033344Y-73199309D01*
X120003404Y-73185148D01*
X119974995Y-73168121D01*
X119948392Y-73148391D01*
X119923851Y-73126149D01*
X119901609Y-73101608D01*
X119881879Y-73075005D01*
X119864852Y-73046596D01*
X119850691Y-73016656D01*
X119839533Y-72985471D01*
X119831485Y-72953343D01*
X119826625Y-72920581D01*
X119825000Y-72887500D01*
X119825000Y-72112500D01*
X119826625Y-72079419D01*
X119831485Y-72046657D01*
X119839533Y-72014529D01*
X119850691Y-71983344D01*
X119864852Y-71953404D01*
X119881879Y-71924995D01*
X119901609Y-71898392D01*
X119923851Y-71873851D01*
X119948392Y-71851609D01*
X119974995Y-71831879D01*
X120003404Y-71814852D01*
X120033344Y-71800691D01*
X120064529Y-71789533D01*
X120096657Y-71781485D01*
X120129419Y-71776625D01*
X120162500Y-71775000D01*
X120837500Y-71775000D01*
X120870581Y-71776625D01*
X120870581Y-71776625D01*
G37*
D11*
X120500000Y-72500000D03*
D10*
G36*
X120870581Y-73526625D02*
X120903343Y-73531485D01*
X120935471Y-73539533D01*
X120966656Y-73550691D01*
X120996596Y-73564852D01*
X121025005Y-73581879D01*
X121051608Y-73601609D01*
X121076149Y-73623851D01*
X121098391Y-73648392D01*
X121118121Y-73674995D01*
X121135148Y-73703404D01*
X121149309Y-73733344D01*
X121160467Y-73764529D01*
X121168515Y-73796657D01*
X121173375Y-73829419D01*
X121175000Y-73862500D01*
X121175000Y-74637500D01*
X121173375Y-74670581D01*
X121168515Y-74703343D01*
X121160467Y-74735471D01*
X121149309Y-74766656D01*
X121135148Y-74796596D01*
X121118121Y-74825005D01*
X121098391Y-74851608D01*
X121076149Y-74876149D01*
X121051608Y-74898391D01*
X121025005Y-74918121D01*
X120996596Y-74935148D01*
X120966656Y-74949309D01*
X120935471Y-74960467D01*
X120903343Y-74968515D01*
X120870581Y-74973375D01*
X120837500Y-74975000D01*
X120162500Y-74975000D01*
X120129419Y-74973375D01*
X120096657Y-74968515D01*
X120064529Y-74960467D01*
X120033344Y-74949309D01*
X120003404Y-74935148D01*
X119974995Y-74918121D01*
X119948392Y-74898391D01*
X119923851Y-74876149D01*
X119901609Y-74851608D01*
X119881879Y-74825005D01*
X119864852Y-74796596D01*
X119850691Y-74766656D01*
X119839533Y-74735471D01*
X119831485Y-74703343D01*
X119826625Y-74670581D01*
X119825000Y-74637500D01*
X119825000Y-73862500D01*
X119826625Y-73829419D01*
X119831485Y-73796657D01*
X119839533Y-73764529D01*
X119850691Y-73733344D01*
X119864852Y-73703404D01*
X119881879Y-73674995D01*
X119901609Y-73648392D01*
X119923851Y-73623851D01*
X119948392Y-73601609D01*
X119974995Y-73581879D01*
X120003404Y-73564852D01*
X120033344Y-73550691D01*
X120064529Y-73539533D01*
X120096657Y-73531485D01*
X120129419Y-73526625D01*
X120162500Y-73525000D01*
X120837500Y-73525000D01*
X120870581Y-73526625D01*
X120870581Y-73526625D01*
G37*
D11*
X120500000Y-74250000D03*
G04 #@! TD*
D10*
G04 #@! TO.C,C4*
G36*
X118370581Y-73526625D02*
X118403343Y-73531485D01*
X118435471Y-73539533D01*
X118466656Y-73550691D01*
X118496596Y-73564852D01*
X118525005Y-73581879D01*
X118551608Y-73601609D01*
X118576149Y-73623851D01*
X118598391Y-73648392D01*
X118618121Y-73674995D01*
X118635148Y-73703404D01*
X118649309Y-73733344D01*
X118660467Y-73764529D01*
X118668515Y-73796657D01*
X118673375Y-73829419D01*
X118675000Y-73862500D01*
X118675000Y-74637500D01*
X118673375Y-74670581D01*
X118668515Y-74703343D01*
X118660467Y-74735471D01*
X118649309Y-74766656D01*
X118635148Y-74796596D01*
X118618121Y-74825005D01*
X118598391Y-74851608D01*
X118576149Y-74876149D01*
X118551608Y-74898391D01*
X118525005Y-74918121D01*
X118496596Y-74935148D01*
X118466656Y-74949309D01*
X118435471Y-74960467D01*
X118403343Y-74968515D01*
X118370581Y-74973375D01*
X118337500Y-74975000D01*
X117662500Y-74975000D01*
X117629419Y-74973375D01*
X117596657Y-74968515D01*
X117564529Y-74960467D01*
X117533344Y-74949309D01*
X117503404Y-74935148D01*
X117474995Y-74918121D01*
X117448392Y-74898391D01*
X117423851Y-74876149D01*
X117401609Y-74851608D01*
X117381879Y-74825005D01*
X117364852Y-74796596D01*
X117350691Y-74766656D01*
X117339533Y-74735471D01*
X117331485Y-74703343D01*
X117326625Y-74670581D01*
X117325000Y-74637500D01*
X117325000Y-73862500D01*
X117326625Y-73829419D01*
X117331485Y-73796657D01*
X117339533Y-73764529D01*
X117350691Y-73733344D01*
X117364852Y-73703404D01*
X117381879Y-73674995D01*
X117401609Y-73648392D01*
X117423851Y-73623851D01*
X117448392Y-73601609D01*
X117474995Y-73581879D01*
X117503404Y-73564852D01*
X117533344Y-73550691D01*
X117564529Y-73539533D01*
X117596657Y-73531485D01*
X117629419Y-73526625D01*
X117662500Y-73525000D01*
X118337500Y-73525000D01*
X118370581Y-73526625D01*
X118370581Y-73526625D01*
G37*
D11*
X118000000Y-74250000D03*
D10*
G36*
X118370581Y-71776625D02*
X118403343Y-71781485D01*
X118435471Y-71789533D01*
X118466656Y-71800691D01*
X118496596Y-71814852D01*
X118525005Y-71831879D01*
X118551608Y-71851609D01*
X118576149Y-71873851D01*
X118598391Y-71898392D01*
X118618121Y-71924995D01*
X118635148Y-71953404D01*
X118649309Y-71983344D01*
X118660467Y-72014529D01*
X118668515Y-72046657D01*
X118673375Y-72079419D01*
X118675000Y-72112500D01*
X118675000Y-72887500D01*
X118673375Y-72920581D01*
X118668515Y-72953343D01*
X118660467Y-72985471D01*
X118649309Y-73016656D01*
X118635148Y-73046596D01*
X118618121Y-73075005D01*
X118598391Y-73101608D01*
X118576149Y-73126149D01*
X118551608Y-73148391D01*
X118525005Y-73168121D01*
X118496596Y-73185148D01*
X118466656Y-73199309D01*
X118435471Y-73210467D01*
X118403343Y-73218515D01*
X118370581Y-73223375D01*
X118337500Y-73225000D01*
X117662500Y-73225000D01*
X117629419Y-73223375D01*
X117596657Y-73218515D01*
X117564529Y-73210467D01*
X117533344Y-73199309D01*
X117503404Y-73185148D01*
X117474995Y-73168121D01*
X117448392Y-73148391D01*
X117423851Y-73126149D01*
X117401609Y-73101608D01*
X117381879Y-73075005D01*
X117364852Y-73046596D01*
X117350691Y-73016656D01*
X117339533Y-72985471D01*
X117331485Y-72953343D01*
X117326625Y-72920581D01*
X117325000Y-72887500D01*
X117325000Y-72112500D01*
X117326625Y-72079419D01*
X117331485Y-72046657D01*
X117339533Y-72014529D01*
X117350691Y-71983344D01*
X117364852Y-71953404D01*
X117381879Y-71924995D01*
X117401609Y-71898392D01*
X117423851Y-71873851D01*
X117448392Y-71851609D01*
X117474995Y-71831879D01*
X117503404Y-71814852D01*
X117533344Y-71800691D01*
X117564529Y-71789533D01*
X117596657Y-71781485D01*
X117629419Y-71776625D01*
X117662500Y-71775000D01*
X118337500Y-71775000D01*
X118370581Y-71776625D01*
X118370581Y-71776625D01*
G37*
D11*
X118000000Y-72500000D03*
G04 #@! TD*
D10*
G04 #@! TO.C,C5*
G36*
X115870581Y-71774460D02*
X115903343Y-71779320D01*
X115935471Y-71787368D01*
X115966656Y-71798526D01*
X115996596Y-71812687D01*
X116025005Y-71829714D01*
X116051608Y-71849444D01*
X116076149Y-71871686D01*
X116098391Y-71896227D01*
X116118121Y-71922830D01*
X116135148Y-71951239D01*
X116149309Y-71981179D01*
X116160467Y-72012364D01*
X116168515Y-72044492D01*
X116173375Y-72077254D01*
X116175000Y-72110335D01*
X116175000Y-72885335D01*
X116173375Y-72918416D01*
X116168515Y-72951178D01*
X116160467Y-72983306D01*
X116149309Y-73014491D01*
X116135148Y-73044431D01*
X116118121Y-73072840D01*
X116098391Y-73099443D01*
X116076149Y-73123984D01*
X116051608Y-73146226D01*
X116025005Y-73165956D01*
X115996596Y-73182983D01*
X115966656Y-73197144D01*
X115935471Y-73208302D01*
X115903343Y-73216350D01*
X115870581Y-73221210D01*
X115837500Y-73222835D01*
X115162500Y-73222835D01*
X115129419Y-73221210D01*
X115096657Y-73216350D01*
X115064529Y-73208302D01*
X115033344Y-73197144D01*
X115003404Y-73182983D01*
X114974995Y-73165956D01*
X114948392Y-73146226D01*
X114923851Y-73123984D01*
X114901609Y-73099443D01*
X114881879Y-73072840D01*
X114864852Y-73044431D01*
X114850691Y-73014491D01*
X114839533Y-72983306D01*
X114831485Y-72951178D01*
X114826625Y-72918416D01*
X114825000Y-72885335D01*
X114825000Y-72110335D01*
X114826625Y-72077254D01*
X114831485Y-72044492D01*
X114839533Y-72012364D01*
X114850691Y-71981179D01*
X114864852Y-71951239D01*
X114881879Y-71922830D01*
X114901609Y-71896227D01*
X114923851Y-71871686D01*
X114948392Y-71849444D01*
X114974995Y-71829714D01*
X115003404Y-71812687D01*
X115033344Y-71798526D01*
X115064529Y-71787368D01*
X115096657Y-71779320D01*
X115129419Y-71774460D01*
X115162500Y-71772835D01*
X115837500Y-71772835D01*
X115870581Y-71774460D01*
X115870581Y-71774460D01*
G37*
D11*
X115500000Y-72497835D03*
D10*
G36*
X115870581Y-73524460D02*
X115903343Y-73529320D01*
X115935471Y-73537368D01*
X115966656Y-73548526D01*
X115996596Y-73562687D01*
X116025005Y-73579714D01*
X116051608Y-73599444D01*
X116076149Y-73621686D01*
X116098391Y-73646227D01*
X116118121Y-73672830D01*
X116135148Y-73701239D01*
X116149309Y-73731179D01*
X116160467Y-73762364D01*
X116168515Y-73794492D01*
X116173375Y-73827254D01*
X116175000Y-73860335D01*
X116175000Y-74635335D01*
X116173375Y-74668416D01*
X116168515Y-74701178D01*
X116160467Y-74733306D01*
X116149309Y-74764491D01*
X116135148Y-74794431D01*
X116118121Y-74822840D01*
X116098391Y-74849443D01*
X116076149Y-74873984D01*
X116051608Y-74896226D01*
X116025005Y-74915956D01*
X115996596Y-74932983D01*
X115966656Y-74947144D01*
X115935471Y-74958302D01*
X115903343Y-74966350D01*
X115870581Y-74971210D01*
X115837500Y-74972835D01*
X115162500Y-74972835D01*
X115129419Y-74971210D01*
X115096657Y-74966350D01*
X115064529Y-74958302D01*
X115033344Y-74947144D01*
X115003404Y-74932983D01*
X114974995Y-74915956D01*
X114948392Y-74896226D01*
X114923851Y-74873984D01*
X114901609Y-74849443D01*
X114881879Y-74822840D01*
X114864852Y-74794431D01*
X114850691Y-74764491D01*
X114839533Y-74733306D01*
X114831485Y-74701178D01*
X114826625Y-74668416D01*
X114825000Y-74635335D01*
X114825000Y-73860335D01*
X114826625Y-73827254D01*
X114831485Y-73794492D01*
X114839533Y-73762364D01*
X114850691Y-73731179D01*
X114864852Y-73701239D01*
X114881879Y-73672830D01*
X114901609Y-73646227D01*
X114923851Y-73621686D01*
X114948392Y-73599444D01*
X114974995Y-73579714D01*
X115003404Y-73562687D01*
X115033344Y-73548526D01*
X115064529Y-73537368D01*
X115096657Y-73529320D01*
X115129419Y-73524460D01*
X115162500Y-73522835D01*
X115837500Y-73522835D01*
X115870581Y-73524460D01*
X115870581Y-73524460D01*
G37*
D11*
X115500000Y-74247835D03*
G04 #@! TD*
D12*
G04 #@! TO.C,D1*
X117000000Y-61000000D03*
D13*
X119540000Y-61000000D03*
G04 #@! TD*
D12*
G04 #@! TO.C,D2*
X128000000Y-61000000D03*
D13*
X130540000Y-61000000D03*
G04 #@! TD*
G04 #@! TO.C,D3*
X141540000Y-61000000D03*
D12*
X139000000Y-61000000D03*
G04 #@! TD*
D13*
G04 #@! TO.C,D4*
X131540000Y-125000000D03*
D12*
X129000000Y-125000000D03*
G04 #@! TD*
D14*
G04 #@! TO.C,J1*
X150000000Y-113460000D03*
D15*
X150000000Y-116000000D03*
G04 #@! TD*
D10*
G04 #@! TO.C,R1*
G36*
X139446071Y-73351623D02*
X139478781Y-73356475D01*
X139510857Y-73364509D01*
X139541991Y-73375649D01*
X139571884Y-73389787D01*
X139600247Y-73406787D01*
X139626807Y-73426485D01*
X139651308Y-73448692D01*
X139673515Y-73473193D01*
X139693213Y-73499753D01*
X139710213Y-73528116D01*
X139724351Y-73558009D01*
X139735491Y-73589143D01*
X139743525Y-73621219D01*
X139748377Y-73653929D01*
X139750000Y-73686956D01*
X139750000Y-74813044D01*
X139748377Y-74846071D01*
X139743525Y-74878781D01*
X139735491Y-74910857D01*
X139724351Y-74941991D01*
X139710213Y-74971884D01*
X139693213Y-75000247D01*
X139673515Y-75026807D01*
X139651308Y-75051308D01*
X139626807Y-75073515D01*
X139600247Y-75093213D01*
X139571884Y-75110213D01*
X139541991Y-75124351D01*
X139510857Y-75135491D01*
X139478781Y-75143525D01*
X139446071Y-75148377D01*
X139413044Y-75150000D01*
X138536956Y-75150000D01*
X138503929Y-75148377D01*
X138471219Y-75143525D01*
X138439143Y-75135491D01*
X138408009Y-75124351D01*
X138378116Y-75110213D01*
X138349753Y-75093213D01*
X138323193Y-75073515D01*
X138298692Y-75051308D01*
X138276485Y-75026807D01*
X138256787Y-75000247D01*
X138239787Y-74971884D01*
X138225649Y-74941991D01*
X138214509Y-74910857D01*
X138206475Y-74878781D01*
X138201623Y-74846071D01*
X138200000Y-74813044D01*
X138200000Y-73686956D01*
X138201623Y-73653929D01*
X138206475Y-73621219D01*
X138214509Y-73589143D01*
X138225649Y-73558009D01*
X138239787Y-73528116D01*
X138256787Y-73499753D01*
X138276485Y-73473193D01*
X138298692Y-73448692D01*
X138323193Y-73426485D01*
X138349753Y-73406787D01*
X138378116Y-73389787D01*
X138408009Y-73375649D01*
X138439143Y-73364509D01*
X138471219Y-73356475D01*
X138503929Y-73351623D01*
X138536956Y-73350000D01*
X139413044Y-73350000D01*
X139446071Y-73351623D01*
X139446071Y-73351623D01*
G37*
D16*
X138975000Y-74250000D03*
D10*
G36*
X141496071Y-73351623D02*
X141528781Y-73356475D01*
X141560857Y-73364509D01*
X141591991Y-73375649D01*
X141621884Y-73389787D01*
X141650247Y-73406787D01*
X141676807Y-73426485D01*
X141701308Y-73448692D01*
X141723515Y-73473193D01*
X141743213Y-73499753D01*
X141760213Y-73528116D01*
X141774351Y-73558009D01*
X141785491Y-73589143D01*
X141793525Y-73621219D01*
X141798377Y-73653929D01*
X141800000Y-73686956D01*
X141800000Y-74813044D01*
X141798377Y-74846071D01*
X141793525Y-74878781D01*
X141785491Y-74910857D01*
X141774351Y-74941991D01*
X141760213Y-74971884D01*
X141743213Y-75000247D01*
X141723515Y-75026807D01*
X141701308Y-75051308D01*
X141676807Y-75073515D01*
X141650247Y-75093213D01*
X141621884Y-75110213D01*
X141591991Y-75124351D01*
X141560857Y-75135491D01*
X141528781Y-75143525D01*
X141496071Y-75148377D01*
X141463044Y-75150000D01*
X140586956Y-75150000D01*
X140553929Y-75148377D01*
X140521219Y-75143525D01*
X140489143Y-75135491D01*
X140458009Y-75124351D01*
X140428116Y-75110213D01*
X140399753Y-75093213D01*
X140373193Y-75073515D01*
X140348692Y-75051308D01*
X140326485Y-75026807D01*
X140306787Y-75000247D01*
X140289787Y-74971884D01*
X140275649Y-74941991D01*
X140264509Y-74910857D01*
X140256475Y-74878781D01*
X140251623Y-74846071D01*
X140250000Y-74813044D01*
X140250000Y-73686956D01*
X140251623Y-73653929D01*
X140256475Y-73621219D01*
X140264509Y-73589143D01*
X140275649Y-73558009D01*
X140289787Y-73528116D01*
X140306787Y-73499753D01*
X140326485Y-73473193D01*
X140348692Y-73448692D01*
X140373193Y-73426485D01*
X140399753Y-73406787D01*
X140428116Y-73389787D01*
X140458009Y-73375649D01*
X140489143Y-73364509D01*
X140521219Y-73356475D01*
X140553929Y-73351623D01*
X140586956Y-73350000D01*
X141463044Y-73350000D01*
X141496071Y-73351623D01*
X141496071Y-73351623D01*
G37*
D16*
X141025000Y-74250000D03*
G04 #@! TD*
D10*
G04 #@! TO.C,R3*
G36*
X123596071Y-97226623D02*
X123628781Y-97231475D01*
X123660857Y-97239509D01*
X123691991Y-97250649D01*
X123721884Y-97264787D01*
X123750247Y-97281787D01*
X123776807Y-97301485D01*
X123801308Y-97323692D01*
X123823515Y-97348193D01*
X123843213Y-97374753D01*
X123860213Y-97403116D01*
X123874351Y-97433009D01*
X123885491Y-97464143D01*
X123893525Y-97496219D01*
X123898377Y-97528929D01*
X123900000Y-97561956D01*
X123900000Y-98438044D01*
X123898377Y-98471071D01*
X123893525Y-98503781D01*
X123885491Y-98535857D01*
X123874351Y-98566991D01*
X123860213Y-98596884D01*
X123843213Y-98625247D01*
X123823515Y-98651807D01*
X123801308Y-98676308D01*
X123776807Y-98698515D01*
X123750247Y-98718213D01*
X123721884Y-98735213D01*
X123691991Y-98749351D01*
X123660857Y-98760491D01*
X123628781Y-98768525D01*
X123596071Y-98773377D01*
X123563044Y-98775000D01*
X122436956Y-98775000D01*
X122403929Y-98773377D01*
X122371219Y-98768525D01*
X122339143Y-98760491D01*
X122308009Y-98749351D01*
X122278116Y-98735213D01*
X122249753Y-98718213D01*
X122223193Y-98698515D01*
X122198692Y-98676308D01*
X122176485Y-98651807D01*
X122156787Y-98625247D01*
X122139787Y-98596884D01*
X122125649Y-98566991D01*
X122114509Y-98535857D01*
X122106475Y-98503781D01*
X122101623Y-98471071D01*
X122100000Y-98438044D01*
X122100000Y-97561956D01*
X122101623Y-97528929D01*
X122106475Y-97496219D01*
X122114509Y-97464143D01*
X122125649Y-97433009D01*
X122139787Y-97403116D01*
X122156787Y-97374753D01*
X122176485Y-97348193D01*
X122198692Y-97323692D01*
X122223193Y-97301485D01*
X122249753Y-97281787D01*
X122278116Y-97264787D01*
X122308009Y-97250649D01*
X122339143Y-97239509D01*
X122371219Y-97231475D01*
X122403929Y-97226623D01*
X122436956Y-97225000D01*
X123563044Y-97225000D01*
X123596071Y-97226623D01*
X123596071Y-97226623D01*
G37*
D16*
X123000000Y-98000000D03*
D10*
G36*
X123596071Y-99276623D02*
X123628781Y-99281475D01*
X123660857Y-99289509D01*
X123691991Y-99300649D01*
X123721884Y-99314787D01*
X123750247Y-99331787D01*
X123776807Y-99351485D01*
X123801308Y-99373692D01*
X123823515Y-99398193D01*
X123843213Y-99424753D01*
X123860213Y-99453116D01*
X123874351Y-99483009D01*
X123885491Y-99514143D01*
X123893525Y-99546219D01*
X123898377Y-99578929D01*
X123900000Y-99611956D01*
X123900000Y-100488044D01*
X123898377Y-100521071D01*
X123893525Y-100553781D01*
X123885491Y-100585857D01*
X123874351Y-100616991D01*
X123860213Y-100646884D01*
X123843213Y-100675247D01*
X123823515Y-100701807D01*
X123801308Y-100726308D01*
X123776807Y-100748515D01*
X123750247Y-100768213D01*
X123721884Y-100785213D01*
X123691991Y-100799351D01*
X123660857Y-100810491D01*
X123628781Y-100818525D01*
X123596071Y-100823377D01*
X123563044Y-100825000D01*
X122436956Y-100825000D01*
X122403929Y-100823377D01*
X122371219Y-100818525D01*
X122339143Y-100810491D01*
X122308009Y-100799351D01*
X122278116Y-100785213D01*
X122249753Y-100768213D01*
X122223193Y-100748515D01*
X122198692Y-100726308D01*
X122176485Y-100701807D01*
X122156787Y-100675247D01*
X122139787Y-100646884D01*
X122125649Y-100616991D01*
X122114509Y-100585857D01*
X122106475Y-100553781D01*
X122101623Y-100521071D01*
X122100000Y-100488044D01*
X122100000Y-99611956D01*
X122101623Y-99578929D01*
X122106475Y-99546219D01*
X122114509Y-99514143D01*
X122125649Y-99483009D01*
X122139787Y-99453116D01*
X122156787Y-99424753D01*
X122176485Y-99398193D01*
X122198692Y-99373692D01*
X122223193Y-99351485D01*
X122249753Y-99331787D01*
X122278116Y-99314787D01*
X122308009Y-99300649D01*
X122339143Y-99289509D01*
X122371219Y-99281475D01*
X122403929Y-99276623D01*
X122436956Y-99275000D01*
X123563044Y-99275000D01*
X123596071Y-99276623D01*
X123596071Y-99276623D01*
G37*
D16*
X123000000Y-100050000D03*
G04 #@! TD*
D10*
G04 #@! TO.C,R4*
G36*
X126596071Y-99226623D02*
X126628781Y-99231475D01*
X126660857Y-99239509D01*
X126691991Y-99250649D01*
X126721884Y-99264787D01*
X126750247Y-99281787D01*
X126776807Y-99301485D01*
X126801308Y-99323692D01*
X126823515Y-99348193D01*
X126843213Y-99374753D01*
X126860213Y-99403116D01*
X126874351Y-99433009D01*
X126885491Y-99464143D01*
X126893525Y-99496219D01*
X126898377Y-99528929D01*
X126900000Y-99561956D01*
X126900000Y-100438044D01*
X126898377Y-100471071D01*
X126893525Y-100503781D01*
X126885491Y-100535857D01*
X126874351Y-100566991D01*
X126860213Y-100596884D01*
X126843213Y-100625247D01*
X126823515Y-100651807D01*
X126801308Y-100676308D01*
X126776807Y-100698515D01*
X126750247Y-100718213D01*
X126721884Y-100735213D01*
X126691991Y-100749351D01*
X126660857Y-100760491D01*
X126628781Y-100768525D01*
X126596071Y-100773377D01*
X126563044Y-100775000D01*
X125436956Y-100775000D01*
X125403929Y-100773377D01*
X125371219Y-100768525D01*
X125339143Y-100760491D01*
X125308009Y-100749351D01*
X125278116Y-100735213D01*
X125249753Y-100718213D01*
X125223193Y-100698515D01*
X125198692Y-100676308D01*
X125176485Y-100651807D01*
X125156787Y-100625247D01*
X125139787Y-100596884D01*
X125125649Y-100566991D01*
X125114509Y-100535857D01*
X125106475Y-100503781D01*
X125101623Y-100471071D01*
X125100000Y-100438044D01*
X125100000Y-99561956D01*
X125101623Y-99528929D01*
X125106475Y-99496219D01*
X125114509Y-99464143D01*
X125125649Y-99433009D01*
X125139787Y-99403116D01*
X125156787Y-99374753D01*
X125176485Y-99348193D01*
X125198692Y-99323692D01*
X125223193Y-99301485D01*
X125249753Y-99281787D01*
X125278116Y-99264787D01*
X125308009Y-99250649D01*
X125339143Y-99239509D01*
X125371219Y-99231475D01*
X125403929Y-99226623D01*
X125436956Y-99225000D01*
X126563044Y-99225000D01*
X126596071Y-99226623D01*
X126596071Y-99226623D01*
G37*
D16*
X126000000Y-100000000D03*
D10*
G36*
X126596071Y-97176623D02*
X126628781Y-97181475D01*
X126660857Y-97189509D01*
X126691991Y-97200649D01*
X126721884Y-97214787D01*
X126750247Y-97231787D01*
X126776807Y-97251485D01*
X126801308Y-97273692D01*
X126823515Y-97298193D01*
X126843213Y-97324753D01*
X126860213Y-97353116D01*
X126874351Y-97383009D01*
X126885491Y-97414143D01*
X126893525Y-97446219D01*
X126898377Y-97478929D01*
X126900000Y-97511956D01*
X126900000Y-98388044D01*
X126898377Y-98421071D01*
X126893525Y-98453781D01*
X126885491Y-98485857D01*
X126874351Y-98516991D01*
X126860213Y-98546884D01*
X126843213Y-98575247D01*
X126823515Y-98601807D01*
X126801308Y-98626308D01*
X126776807Y-98648515D01*
X126750247Y-98668213D01*
X126721884Y-98685213D01*
X126691991Y-98699351D01*
X126660857Y-98710491D01*
X126628781Y-98718525D01*
X126596071Y-98723377D01*
X126563044Y-98725000D01*
X125436956Y-98725000D01*
X125403929Y-98723377D01*
X125371219Y-98718525D01*
X125339143Y-98710491D01*
X125308009Y-98699351D01*
X125278116Y-98685213D01*
X125249753Y-98668213D01*
X125223193Y-98648515D01*
X125198692Y-98626308D01*
X125176485Y-98601807D01*
X125156787Y-98575247D01*
X125139787Y-98546884D01*
X125125649Y-98516991D01*
X125114509Y-98485857D01*
X125106475Y-98453781D01*
X125101623Y-98421071D01*
X125100000Y-98388044D01*
X125100000Y-97511956D01*
X125101623Y-97478929D01*
X125106475Y-97446219D01*
X125114509Y-97414143D01*
X125125649Y-97383009D01*
X125139787Y-97353116D01*
X125156787Y-97324753D01*
X125176485Y-97298193D01*
X125198692Y-97273692D01*
X125223193Y-97251485D01*
X125249753Y-97231787D01*
X125278116Y-97214787D01*
X125308009Y-97200649D01*
X125339143Y-97189509D01*
X125371219Y-97181475D01*
X125403929Y-97176623D01*
X125436956Y-97175000D01*
X126563044Y-97175000D01*
X126596071Y-97176623D01*
X126596071Y-97176623D01*
G37*
D16*
X126000000Y-97950000D03*
G04 #@! TD*
D10*
G04 #@! TO.C,R5*
G36*
X117421071Y-66101623D02*
X117453781Y-66106475D01*
X117485857Y-66114509D01*
X117516991Y-66125649D01*
X117546884Y-66139787D01*
X117575247Y-66156787D01*
X117601807Y-66176485D01*
X117626308Y-66198692D01*
X117648515Y-66223193D01*
X117668213Y-66249753D01*
X117685213Y-66278116D01*
X117699351Y-66308009D01*
X117710491Y-66339143D01*
X117718525Y-66371219D01*
X117723377Y-66403929D01*
X117725000Y-66436956D01*
X117725000Y-67563044D01*
X117723377Y-67596071D01*
X117718525Y-67628781D01*
X117710491Y-67660857D01*
X117699351Y-67691991D01*
X117685213Y-67721884D01*
X117668213Y-67750247D01*
X117648515Y-67776807D01*
X117626308Y-67801308D01*
X117601807Y-67823515D01*
X117575247Y-67843213D01*
X117546884Y-67860213D01*
X117516991Y-67874351D01*
X117485857Y-67885491D01*
X117453781Y-67893525D01*
X117421071Y-67898377D01*
X117388044Y-67900000D01*
X116511956Y-67900000D01*
X116478929Y-67898377D01*
X116446219Y-67893525D01*
X116414143Y-67885491D01*
X116383009Y-67874351D01*
X116353116Y-67860213D01*
X116324753Y-67843213D01*
X116298193Y-67823515D01*
X116273692Y-67801308D01*
X116251485Y-67776807D01*
X116231787Y-67750247D01*
X116214787Y-67721884D01*
X116200649Y-67691991D01*
X116189509Y-67660857D01*
X116181475Y-67628781D01*
X116176623Y-67596071D01*
X116175000Y-67563044D01*
X116175000Y-66436956D01*
X116176623Y-66403929D01*
X116181475Y-66371219D01*
X116189509Y-66339143D01*
X116200649Y-66308009D01*
X116214787Y-66278116D01*
X116231787Y-66249753D01*
X116251485Y-66223193D01*
X116273692Y-66198692D01*
X116298193Y-66176485D01*
X116324753Y-66156787D01*
X116353116Y-66139787D01*
X116383009Y-66125649D01*
X116414143Y-66114509D01*
X116446219Y-66106475D01*
X116478929Y-66101623D01*
X116511956Y-66100000D01*
X117388044Y-66100000D01*
X117421071Y-66101623D01*
X117421071Y-66101623D01*
G37*
D16*
X116950000Y-67000000D03*
D10*
G36*
X119471071Y-66101623D02*
X119503781Y-66106475D01*
X119535857Y-66114509D01*
X119566991Y-66125649D01*
X119596884Y-66139787D01*
X119625247Y-66156787D01*
X119651807Y-66176485D01*
X119676308Y-66198692D01*
X119698515Y-66223193D01*
X119718213Y-66249753D01*
X119735213Y-66278116D01*
X119749351Y-66308009D01*
X119760491Y-66339143D01*
X119768525Y-66371219D01*
X119773377Y-66403929D01*
X119775000Y-66436956D01*
X119775000Y-67563044D01*
X119773377Y-67596071D01*
X119768525Y-67628781D01*
X119760491Y-67660857D01*
X119749351Y-67691991D01*
X119735213Y-67721884D01*
X119718213Y-67750247D01*
X119698515Y-67776807D01*
X119676308Y-67801308D01*
X119651807Y-67823515D01*
X119625247Y-67843213D01*
X119596884Y-67860213D01*
X119566991Y-67874351D01*
X119535857Y-67885491D01*
X119503781Y-67893525D01*
X119471071Y-67898377D01*
X119438044Y-67900000D01*
X118561956Y-67900000D01*
X118528929Y-67898377D01*
X118496219Y-67893525D01*
X118464143Y-67885491D01*
X118433009Y-67874351D01*
X118403116Y-67860213D01*
X118374753Y-67843213D01*
X118348193Y-67823515D01*
X118323692Y-67801308D01*
X118301485Y-67776807D01*
X118281787Y-67750247D01*
X118264787Y-67721884D01*
X118250649Y-67691991D01*
X118239509Y-67660857D01*
X118231475Y-67628781D01*
X118226623Y-67596071D01*
X118225000Y-67563044D01*
X118225000Y-66436956D01*
X118226623Y-66403929D01*
X118231475Y-66371219D01*
X118239509Y-66339143D01*
X118250649Y-66308009D01*
X118264787Y-66278116D01*
X118281787Y-66249753D01*
X118301485Y-66223193D01*
X118323692Y-66198692D01*
X118348193Y-66176485D01*
X118374753Y-66156787D01*
X118403116Y-66139787D01*
X118433009Y-66125649D01*
X118464143Y-66114509D01*
X118496219Y-66106475D01*
X118528929Y-66101623D01*
X118561956Y-66100000D01*
X119438044Y-66100000D01*
X119471071Y-66101623D01*
X119471071Y-66101623D01*
G37*
D16*
X119000000Y-67000000D03*
G04 #@! TD*
D10*
G04 #@! TO.C,R6*
G36*
X130521071Y-66101623D02*
X130553781Y-66106475D01*
X130585857Y-66114509D01*
X130616991Y-66125649D01*
X130646884Y-66139787D01*
X130675247Y-66156787D01*
X130701807Y-66176485D01*
X130726308Y-66198692D01*
X130748515Y-66223193D01*
X130768213Y-66249753D01*
X130785213Y-66278116D01*
X130799351Y-66308009D01*
X130810491Y-66339143D01*
X130818525Y-66371219D01*
X130823377Y-66403929D01*
X130825000Y-66436956D01*
X130825000Y-67563044D01*
X130823377Y-67596071D01*
X130818525Y-67628781D01*
X130810491Y-67660857D01*
X130799351Y-67691991D01*
X130785213Y-67721884D01*
X130768213Y-67750247D01*
X130748515Y-67776807D01*
X130726308Y-67801308D01*
X130701807Y-67823515D01*
X130675247Y-67843213D01*
X130646884Y-67860213D01*
X130616991Y-67874351D01*
X130585857Y-67885491D01*
X130553781Y-67893525D01*
X130521071Y-67898377D01*
X130488044Y-67900000D01*
X129611956Y-67900000D01*
X129578929Y-67898377D01*
X129546219Y-67893525D01*
X129514143Y-67885491D01*
X129483009Y-67874351D01*
X129453116Y-67860213D01*
X129424753Y-67843213D01*
X129398193Y-67823515D01*
X129373692Y-67801308D01*
X129351485Y-67776807D01*
X129331787Y-67750247D01*
X129314787Y-67721884D01*
X129300649Y-67691991D01*
X129289509Y-67660857D01*
X129281475Y-67628781D01*
X129276623Y-67596071D01*
X129275000Y-67563044D01*
X129275000Y-66436956D01*
X129276623Y-66403929D01*
X129281475Y-66371219D01*
X129289509Y-66339143D01*
X129300649Y-66308009D01*
X129314787Y-66278116D01*
X129331787Y-66249753D01*
X129351485Y-66223193D01*
X129373692Y-66198692D01*
X129398193Y-66176485D01*
X129424753Y-66156787D01*
X129453116Y-66139787D01*
X129483009Y-66125649D01*
X129514143Y-66114509D01*
X129546219Y-66106475D01*
X129578929Y-66101623D01*
X129611956Y-66100000D01*
X130488044Y-66100000D01*
X130521071Y-66101623D01*
X130521071Y-66101623D01*
G37*
D16*
X130050000Y-67000000D03*
D10*
G36*
X128471071Y-66101623D02*
X128503781Y-66106475D01*
X128535857Y-66114509D01*
X128566991Y-66125649D01*
X128596884Y-66139787D01*
X128625247Y-66156787D01*
X128651807Y-66176485D01*
X128676308Y-66198692D01*
X128698515Y-66223193D01*
X128718213Y-66249753D01*
X128735213Y-66278116D01*
X128749351Y-66308009D01*
X128760491Y-66339143D01*
X128768525Y-66371219D01*
X128773377Y-66403929D01*
X128775000Y-66436956D01*
X128775000Y-67563044D01*
X128773377Y-67596071D01*
X128768525Y-67628781D01*
X128760491Y-67660857D01*
X128749351Y-67691991D01*
X128735213Y-67721884D01*
X128718213Y-67750247D01*
X128698515Y-67776807D01*
X128676308Y-67801308D01*
X128651807Y-67823515D01*
X128625247Y-67843213D01*
X128596884Y-67860213D01*
X128566991Y-67874351D01*
X128535857Y-67885491D01*
X128503781Y-67893525D01*
X128471071Y-67898377D01*
X128438044Y-67900000D01*
X127561956Y-67900000D01*
X127528929Y-67898377D01*
X127496219Y-67893525D01*
X127464143Y-67885491D01*
X127433009Y-67874351D01*
X127403116Y-67860213D01*
X127374753Y-67843213D01*
X127348193Y-67823515D01*
X127323692Y-67801308D01*
X127301485Y-67776807D01*
X127281787Y-67750247D01*
X127264787Y-67721884D01*
X127250649Y-67691991D01*
X127239509Y-67660857D01*
X127231475Y-67628781D01*
X127226623Y-67596071D01*
X127225000Y-67563044D01*
X127225000Y-66436956D01*
X127226623Y-66403929D01*
X127231475Y-66371219D01*
X127239509Y-66339143D01*
X127250649Y-66308009D01*
X127264787Y-66278116D01*
X127281787Y-66249753D01*
X127301485Y-66223193D01*
X127323692Y-66198692D01*
X127348193Y-66176485D01*
X127374753Y-66156787D01*
X127403116Y-66139787D01*
X127433009Y-66125649D01*
X127464143Y-66114509D01*
X127496219Y-66106475D01*
X127528929Y-66101623D01*
X127561956Y-66100000D01*
X128438044Y-66100000D01*
X128471071Y-66101623D01*
X128471071Y-66101623D01*
G37*
D16*
X128000000Y-67000000D03*
G04 #@! TD*
D10*
G04 #@! TO.C,R7*
G36*
X139421071Y-66101623D02*
X139453781Y-66106475D01*
X139485857Y-66114509D01*
X139516991Y-66125649D01*
X139546884Y-66139787D01*
X139575247Y-66156787D01*
X139601807Y-66176485D01*
X139626308Y-66198692D01*
X139648515Y-66223193D01*
X139668213Y-66249753D01*
X139685213Y-66278116D01*
X139699351Y-66308009D01*
X139710491Y-66339143D01*
X139718525Y-66371219D01*
X139723377Y-66403929D01*
X139725000Y-66436956D01*
X139725000Y-67563044D01*
X139723377Y-67596071D01*
X139718525Y-67628781D01*
X139710491Y-67660857D01*
X139699351Y-67691991D01*
X139685213Y-67721884D01*
X139668213Y-67750247D01*
X139648515Y-67776807D01*
X139626308Y-67801308D01*
X139601807Y-67823515D01*
X139575247Y-67843213D01*
X139546884Y-67860213D01*
X139516991Y-67874351D01*
X139485857Y-67885491D01*
X139453781Y-67893525D01*
X139421071Y-67898377D01*
X139388044Y-67900000D01*
X138511956Y-67900000D01*
X138478929Y-67898377D01*
X138446219Y-67893525D01*
X138414143Y-67885491D01*
X138383009Y-67874351D01*
X138353116Y-67860213D01*
X138324753Y-67843213D01*
X138298193Y-67823515D01*
X138273692Y-67801308D01*
X138251485Y-67776807D01*
X138231787Y-67750247D01*
X138214787Y-67721884D01*
X138200649Y-67691991D01*
X138189509Y-67660857D01*
X138181475Y-67628781D01*
X138176623Y-67596071D01*
X138175000Y-67563044D01*
X138175000Y-66436956D01*
X138176623Y-66403929D01*
X138181475Y-66371219D01*
X138189509Y-66339143D01*
X138200649Y-66308009D01*
X138214787Y-66278116D01*
X138231787Y-66249753D01*
X138251485Y-66223193D01*
X138273692Y-66198692D01*
X138298193Y-66176485D01*
X138324753Y-66156787D01*
X138353116Y-66139787D01*
X138383009Y-66125649D01*
X138414143Y-66114509D01*
X138446219Y-66106475D01*
X138478929Y-66101623D01*
X138511956Y-66100000D01*
X139388044Y-66100000D01*
X139421071Y-66101623D01*
X139421071Y-66101623D01*
G37*
D16*
X138950000Y-67000000D03*
D10*
G36*
X141471071Y-66101623D02*
X141503781Y-66106475D01*
X141535857Y-66114509D01*
X141566991Y-66125649D01*
X141596884Y-66139787D01*
X141625247Y-66156787D01*
X141651807Y-66176485D01*
X141676308Y-66198692D01*
X141698515Y-66223193D01*
X141718213Y-66249753D01*
X141735213Y-66278116D01*
X141749351Y-66308009D01*
X141760491Y-66339143D01*
X141768525Y-66371219D01*
X141773377Y-66403929D01*
X141775000Y-66436956D01*
X141775000Y-67563044D01*
X141773377Y-67596071D01*
X141768525Y-67628781D01*
X141760491Y-67660857D01*
X141749351Y-67691991D01*
X141735213Y-67721884D01*
X141718213Y-67750247D01*
X141698515Y-67776807D01*
X141676308Y-67801308D01*
X141651807Y-67823515D01*
X141625247Y-67843213D01*
X141596884Y-67860213D01*
X141566991Y-67874351D01*
X141535857Y-67885491D01*
X141503781Y-67893525D01*
X141471071Y-67898377D01*
X141438044Y-67900000D01*
X140561956Y-67900000D01*
X140528929Y-67898377D01*
X140496219Y-67893525D01*
X140464143Y-67885491D01*
X140433009Y-67874351D01*
X140403116Y-67860213D01*
X140374753Y-67843213D01*
X140348193Y-67823515D01*
X140323692Y-67801308D01*
X140301485Y-67776807D01*
X140281787Y-67750247D01*
X140264787Y-67721884D01*
X140250649Y-67691991D01*
X140239509Y-67660857D01*
X140231475Y-67628781D01*
X140226623Y-67596071D01*
X140225000Y-67563044D01*
X140225000Y-66436956D01*
X140226623Y-66403929D01*
X140231475Y-66371219D01*
X140239509Y-66339143D01*
X140250649Y-66308009D01*
X140264787Y-66278116D01*
X140281787Y-66249753D01*
X140301485Y-66223193D01*
X140323692Y-66198692D01*
X140348193Y-66176485D01*
X140374753Y-66156787D01*
X140403116Y-66139787D01*
X140433009Y-66125649D01*
X140464143Y-66114509D01*
X140496219Y-66106475D01*
X140528929Y-66101623D01*
X140561956Y-66100000D01*
X141438044Y-66100000D01*
X141471071Y-66101623D01*
X141471071Y-66101623D01*
G37*
D16*
X141000000Y-67000000D03*
G04 #@! TD*
D10*
G04 #@! TO.C,R8*
G36*
X148974662Y-107232164D02*
X149007372Y-107237016D01*
X149039448Y-107245050D01*
X149070582Y-107256190D01*
X149100475Y-107270328D01*
X149128838Y-107287328D01*
X149155398Y-107307026D01*
X149179899Y-107329233D01*
X149202106Y-107353734D01*
X149221804Y-107380294D01*
X149238804Y-107408657D01*
X149252942Y-107438550D01*
X149264082Y-107469684D01*
X149272116Y-107501760D01*
X149276968Y-107534470D01*
X149278591Y-107567497D01*
X149278591Y-108693585D01*
X149276968Y-108726612D01*
X149272116Y-108759322D01*
X149264082Y-108791398D01*
X149252942Y-108822532D01*
X149238804Y-108852425D01*
X149221804Y-108880788D01*
X149202106Y-108907348D01*
X149179899Y-108931849D01*
X149155398Y-108954056D01*
X149128838Y-108973754D01*
X149100475Y-108990754D01*
X149070582Y-109004892D01*
X149039448Y-109016032D01*
X149007372Y-109024066D01*
X148974662Y-109028918D01*
X148941635Y-109030541D01*
X148065547Y-109030541D01*
X148032520Y-109028918D01*
X147999810Y-109024066D01*
X147967734Y-109016032D01*
X147936600Y-109004892D01*
X147906707Y-108990754D01*
X147878344Y-108973754D01*
X147851784Y-108954056D01*
X147827283Y-108931849D01*
X147805076Y-108907348D01*
X147785378Y-108880788D01*
X147768378Y-108852425D01*
X147754240Y-108822532D01*
X147743100Y-108791398D01*
X147735066Y-108759322D01*
X147730214Y-108726612D01*
X147728591Y-108693585D01*
X147728591Y-107567497D01*
X147730214Y-107534470D01*
X147735066Y-107501760D01*
X147743100Y-107469684D01*
X147754240Y-107438550D01*
X147768378Y-107408657D01*
X147785378Y-107380294D01*
X147805076Y-107353734D01*
X147827283Y-107329233D01*
X147851784Y-107307026D01*
X147878344Y-107287328D01*
X147906707Y-107270328D01*
X147936600Y-107256190D01*
X147967734Y-107245050D01*
X147999810Y-107237016D01*
X148032520Y-107232164D01*
X148065547Y-107230541D01*
X148941635Y-107230541D01*
X148974662Y-107232164D01*
X148974662Y-107232164D01*
G37*
D16*
X148503591Y-108130541D03*
D10*
G36*
X151024662Y-107232164D02*
X151057372Y-107237016D01*
X151089448Y-107245050D01*
X151120582Y-107256190D01*
X151150475Y-107270328D01*
X151178838Y-107287328D01*
X151205398Y-107307026D01*
X151229899Y-107329233D01*
X151252106Y-107353734D01*
X151271804Y-107380294D01*
X151288804Y-107408657D01*
X151302942Y-107438550D01*
X151314082Y-107469684D01*
X151322116Y-107501760D01*
X151326968Y-107534470D01*
X151328591Y-107567497D01*
X151328591Y-108693585D01*
X151326968Y-108726612D01*
X151322116Y-108759322D01*
X151314082Y-108791398D01*
X151302942Y-108822532D01*
X151288804Y-108852425D01*
X151271804Y-108880788D01*
X151252106Y-108907348D01*
X151229899Y-108931849D01*
X151205398Y-108954056D01*
X151178838Y-108973754D01*
X151150475Y-108990754D01*
X151120582Y-109004892D01*
X151089448Y-109016032D01*
X151057372Y-109024066D01*
X151024662Y-109028918D01*
X150991635Y-109030541D01*
X150115547Y-109030541D01*
X150082520Y-109028918D01*
X150049810Y-109024066D01*
X150017734Y-109016032D01*
X149986600Y-109004892D01*
X149956707Y-108990754D01*
X149928344Y-108973754D01*
X149901784Y-108954056D01*
X149877283Y-108931849D01*
X149855076Y-108907348D01*
X149835378Y-108880788D01*
X149818378Y-108852425D01*
X149804240Y-108822532D01*
X149793100Y-108791398D01*
X149785066Y-108759322D01*
X149780214Y-108726612D01*
X149778591Y-108693585D01*
X149778591Y-107567497D01*
X149780214Y-107534470D01*
X149785066Y-107501760D01*
X149793100Y-107469684D01*
X149804240Y-107438550D01*
X149818378Y-107408657D01*
X149835378Y-107380294D01*
X149855076Y-107353734D01*
X149877283Y-107329233D01*
X149901784Y-107307026D01*
X149928344Y-107287328D01*
X149956707Y-107270328D01*
X149986600Y-107256190D01*
X150017734Y-107245050D01*
X150049810Y-107237016D01*
X150082520Y-107232164D01*
X150115547Y-107230541D01*
X150991635Y-107230541D01*
X151024662Y-107232164D01*
X151024662Y-107232164D01*
G37*
D16*
X150553591Y-108130541D03*
G04 #@! TD*
D10*
G04 #@! TO.C,R9*
G36*
X148974662Y-104232164D02*
X149007372Y-104237016D01*
X149039448Y-104245050D01*
X149070582Y-104256190D01*
X149100475Y-104270328D01*
X149128838Y-104287328D01*
X149155398Y-104307026D01*
X149179899Y-104329233D01*
X149202106Y-104353734D01*
X149221804Y-104380294D01*
X149238804Y-104408657D01*
X149252942Y-104438550D01*
X149264082Y-104469684D01*
X149272116Y-104501760D01*
X149276968Y-104534470D01*
X149278591Y-104567497D01*
X149278591Y-105693585D01*
X149276968Y-105726612D01*
X149272116Y-105759322D01*
X149264082Y-105791398D01*
X149252942Y-105822532D01*
X149238804Y-105852425D01*
X149221804Y-105880788D01*
X149202106Y-105907348D01*
X149179899Y-105931849D01*
X149155398Y-105954056D01*
X149128838Y-105973754D01*
X149100475Y-105990754D01*
X149070582Y-106004892D01*
X149039448Y-106016032D01*
X149007372Y-106024066D01*
X148974662Y-106028918D01*
X148941635Y-106030541D01*
X148065547Y-106030541D01*
X148032520Y-106028918D01*
X147999810Y-106024066D01*
X147967734Y-106016032D01*
X147936600Y-106004892D01*
X147906707Y-105990754D01*
X147878344Y-105973754D01*
X147851784Y-105954056D01*
X147827283Y-105931849D01*
X147805076Y-105907348D01*
X147785378Y-105880788D01*
X147768378Y-105852425D01*
X147754240Y-105822532D01*
X147743100Y-105791398D01*
X147735066Y-105759322D01*
X147730214Y-105726612D01*
X147728591Y-105693585D01*
X147728591Y-104567497D01*
X147730214Y-104534470D01*
X147735066Y-104501760D01*
X147743100Y-104469684D01*
X147754240Y-104438550D01*
X147768378Y-104408657D01*
X147785378Y-104380294D01*
X147805076Y-104353734D01*
X147827283Y-104329233D01*
X147851784Y-104307026D01*
X147878344Y-104287328D01*
X147906707Y-104270328D01*
X147936600Y-104256190D01*
X147967734Y-104245050D01*
X147999810Y-104237016D01*
X148032520Y-104232164D01*
X148065547Y-104230541D01*
X148941635Y-104230541D01*
X148974662Y-104232164D01*
X148974662Y-104232164D01*
G37*
D16*
X148503591Y-105130541D03*
D10*
G36*
X151024662Y-104232164D02*
X151057372Y-104237016D01*
X151089448Y-104245050D01*
X151120582Y-104256190D01*
X151150475Y-104270328D01*
X151178838Y-104287328D01*
X151205398Y-104307026D01*
X151229899Y-104329233D01*
X151252106Y-104353734D01*
X151271804Y-104380294D01*
X151288804Y-104408657D01*
X151302942Y-104438550D01*
X151314082Y-104469684D01*
X151322116Y-104501760D01*
X151326968Y-104534470D01*
X151328591Y-104567497D01*
X151328591Y-105693585D01*
X151326968Y-105726612D01*
X151322116Y-105759322D01*
X151314082Y-105791398D01*
X151302942Y-105822532D01*
X151288804Y-105852425D01*
X151271804Y-105880788D01*
X151252106Y-105907348D01*
X151229899Y-105931849D01*
X151205398Y-105954056D01*
X151178838Y-105973754D01*
X151150475Y-105990754D01*
X151120582Y-106004892D01*
X151089448Y-106016032D01*
X151057372Y-106024066D01*
X151024662Y-106028918D01*
X150991635Y-106030541D01*
X150115547Y-106030541D01*
X150082520Y-106028918D01*
X150049810Y-106024066D01*
X150017734Y-106016032D01*
X149986600Y-106004892D01*
X149956707Y-105990754D01*
X149928344Y-105973754D01*
X149901784Y-105954056D01*
X149877283Y-105931849D01*
X149855076Y-105907348D01*
X149835378Y-105880788D01*
X149818378Y-105852425D01*
X149804240Y-105822532D01*
X149793100Y-105791398D01*
X149785066Y-105759322D01*
X149780214Y-105726612D01*
X149778591Y-105693585D01*
X149778591Y-104567497D01*
X149780214Y-104534470D01*
X149785066Y-104501760D01*
X149793100Y-104469684D01*
X149804240Y-104438550D01*
X149818378Y-104408657D01*
X149835378Y-104380294D01*
X149855076Y-104353734D01*
X149877283Y-104329233D01*
X149901784Y-104307026D01*
X149928344Y-104287328D01*
X149956707Y-104270328D01*
X149986600Y-104256190D01*
X150017734Y-104245050D01*
X150049810Y-104237016D01*
X150082520Y-104232164D01*
X150115547Y-104230541D01*
X150991635Y-104230541D01*
X151024662Y-104232164D01*
X151024662Y-104232164D01*
G37*
D16*
X150553591Y-105130541D03*
G04 #@! TD*
D10*
G04 #@! TO.C,R10*
G36*
X123846071Y-122226623D02*
X123878781Y-122231475D01*
X123910857Y-122239509D01*
X123941991Y-122250649D01*
X123971884Y-122264787D01*
X124000247Y-122281787D01*
X124026807Y-122301485D01*
X124051308Y-122323692D01*
X124073515Y-122348193D01*
X124093213Y-122374753D01*
X124110213Y-122403116D01*
X124124351Y-122433009D01*
X124135491Y-122464143D01*
X124143525Y-122496219D01*
X124148377Y-122528929D01*
X124150000Y-122561956D01*
X124150000Y-123438044D01*
X124148377Y-123471071D01*
X124143525Y-123503781D01*
X124135491Y-123535857D01*
X124124351Y-123566991D01*
X124110213Y-123596884D01*
X124093213Y-123625247D01*
X124073515Y-123651807D01*
X124051308Y-123676308D01*
X124026807Y-123698515D01*
X124000247Y-123718213D01*
X123971884Y-123735213D01*
X123941991Y-123749351D01*
X123910857Y-123760491D01*
X123878781Y-123768525D01*
X123846071Y-123773377D01*
X123813044Y-123775000D01*
X122686956Y-123775000D01*
X122653929Y-123773377D01*
X122621219Y-123768525D01*
X122589143Y-123760491D01*
X122558009Y-123749351D01*
X122528116Y-123735213D01*
X122499753Y-123718213D01*
X122473193Y-123698515D01*
X122448692Y-123676308D01*
X122426485Y-123651807D01*
X122406787Y-123625247D01*
X122389787Y-123596884D01*
X122375649Y-123566991D01*
X122364509Y-123535857D01*
X122356475Y-123503781D01*
X122351623Y-123471071D01*
X122350000Y-123438044D01*
X122350000Y-122561956D01*
X122351623Y-122528929D01*
X122356475Y-122496219D01*
X122364509Y-122464143D01*
X122375649Y-122433009D01*
X122389787Y-122403116D01*
X122406787Y-122374753D01*
X122426485Y-122348193D01*
X122448692Y-122323692D01*
X122473193Y-122301485D01*
X122499753Y-122281787D01*
X122528116Y-122264787D01*
X122558009Y-122250649D01*
X122589143Y-122239509D01*
X122621219Y-122231475D01*
X122653929Y-122226623D01*
X122686956Y-122225000D01*
X123813044Y-122225000D01*
X123846071Y-122226623D01*
X123846071Y-122226623D01*
G37*
D16*
X123250000Y-123000000D03*
D10*
G36*
X123846071Y-124276623D02*
X123878781Y-124281475D01*
X123910857Y-124289509D01*
X123941991Y-124300649D01*
X123971884Y-124314787D01*
X124000247Y-124331787D01*
X124026807Y-124351485D01*
X124051308Y-124373692D01*
X124073515Y-124398193D01*
X124093213Y-124424753D01*
X124110213Y-124453116D01*
X124124351Y-124483009D01*
X124135491Y-124514143D01*
X124143525Y-124546219D01*
X124148377Y-124578929D01*
X124150000Y-124611956D01*
X124150000Y-125488044D01*
X124148377Y-125521071D01*
X124143525Y-125553781D01*
X124135491Y-125585857D01*
X124124351Y-125616991D01*
X124110213Y-125646884D01*
X124093213Y-125675247D01*
X124073515Y-125701807D01*
X124051308Y-125726308D01*
X124026807Y-125748515D01*
X124000247Y-125768213D01*
X123971884Y-125785213D01*
X123941991Y-125799351D01*
X123910857Y-125810491D01*
X123878781Y-125818525D01*
X123846071Y-125823377D01*
X123813044Y-125825000D01*
X122686956Y-125825000D01*
X122653929Y-125823377D01*
X122621219Y-125818525D01*
X122589143Y-125810491D01*
X122558009Y-125799351D01*
X122528116Y-125785213D01*
X122499753Y-125768213D01*
X122473193Y-125748515D01*
X122448692Y-125726308D01*
X122426485Y-125701807D01*
X122406787Y-125675247D01*
X122389787Y-125646884D01*
X122375649Y-125616991D01*
X122364509Y-125585857D01*
X122356475Y-125553781D01*
X122351623Y-125521071D01*
X122350000Y-125488044D01*
X122350000Y-124611956D01*
X122351623Y-124578929D01*
X122356475Y-124546219D01*
X122364509Y-124514143D01*
X122375649Y-124483009D01*
X122389787Y-124453116D01*
X122406787Y-124424753D01*
X122426485Y-124398193D01*
X122448692Y-124373692D01*
X122473193Y-124351485D01*
X122499753Y-124331787D01*
X122528116Y-124314787D01*
X122558009Y-124300649D01*
X122589143Y-124289509D01*
X122621219Y-124281475D01*
X122653929Y-124276623D01*
X122686956Y-124275000D01*
X123813044Y-124275000D01*
X123846071Y-124276623D01*
X123846071Y-124276623D01*
G37*
D16*
X123250000Y-125050000D03*
G04 #@! TD*
D17*
G04 #@! TO.C,SW1*
X135000000Y-110500000D03*
X135000000Y-106000000D03*
X141500000Y-110500000D03*
X141500000Y-106000000D03*
G04 #@! TD*
G04 #@! TO.C,SW2*
X125500000Y-106000000D03*
X125500000Y-110500000D03*
X119000000Y-106000000D03*
X119000000Y-110500000D03*
G04 #@! TD*
D18*
G04 #@! TO.C,U1*
X145000000Y-129000000D03*
D19*
X145000000Y-122700000D03*
X142700000Y-122700000D03*
X147300000Y-122700000D03*
G04 #@! TD*
D20*
G04 #@! TO.C,U2*
X135000000Y-78900000D03*
X133000000Y-78900000D03*
X131000000Y-78900000D03*
X129000000Y-78900000D03*
X127000000Y-78900000D03*
X125000000Y-78900000D03*
X123000000Y-78900000D03*
X121000000Y-78900000D03*
D21*
X119500000Y-81500000D03*
X119500000Y-83500000D03*
X119500000Y-85500000D03*
X119500000Y-87500000D03*
X119500000Y-89500000D03*
X119500000Y-91500000D03*
D20*
X121000000Y-94100000D03*
X123000000Y-94100000D03*
X125000000Y-94100000D03*
X127000000Y-94100000D03*
X129000000Y-94100000D03*
X131000000Y-94100000D03*
X133000000Y-94100000D03*
X135000000Y-94100000D03*
G04 #@! TD*
D14*
G04 #@! TO.C,J2*
X150500000Y-62340000D03*
D15*
X150500000Y-64880000D03*
X150500000Y-67420000D03*
X150500000Y-69960000D03*
X150500000Y-72500000D03*
X150500000Y-75040000D03*
G04 #@! TD*
M02*
